%TF.GenerationSoftware,KiCad,Pcbnew,10.0.0*%
%TF.CreationDate,2026-03-30T22:31:16+02:00*%
%TF.ProjectId,kicad-esp32c6-co2,6b696361-642d-4657-9370-333263362d63,rev?*%
%TF.SameCoordinates,Original*%
%TF.FileFunction,Legend,Top*%
%TF.FilePolarity,Positive*%
%FSLAX46Y46*%
G04 Gerber Fmt 4.6, Leading zero omitted, Abs format (unit mm)*
G04 Created by KiCad (PCBNEW 10.0.0) date 2026-03-30 22:31:16*
%MOMM*%
%LPD*%
G01*
G04 APERTURE LIST*
%ADD10C,0.150000*%
%ADD11C,0.127000*%
%ADD12C,0.100000*%
%ADD13C,0.120000*%
G04 APERTURE END LIST*
D10*
X76907200Y-68038094D02*
X76954819Y-67895237D01*
X76954819Y-67895237D02*
X76954819Y-67657142D01*
X76954819Y-67657142D02*
X76907200Y-67561904D01*
X76907200Y-67561904D02*
X76859580Y-67514285D01*
X76859580Y-67514285D02*
X76764342Y-67466666D01*
X76764342Y-67466666D02*
X76669104Y-67466666D01*
X76669104Y-67466666D02*
X76573866Y-67514285D01*
X76573866Y-67514285D02*
X76526247Y-67561904D01*
X76526247Y-67561904D02*
X76478628Y-67657142D01*
X76478628Y-67657142D02*
X76431009Y-67847618D01*
X76431009Y-67847618D02*
X76383390Y-67942856D01*
X76383390Y-67942856D02*
X76335771Y-67990475D01*
X76335771Y-67990475D02*
X76240533Y-68038094D01*
X76240533Y-68038094D02*
X76145295Y-68038094D01*
X76145295Y-68038094D02*
X76050057Y-67990475D01*
X76050057Y-67990475D02*
X76002438Y-67942856D01*
X76002438Y-67942856D02*
X75954819Y-67847618D01*
X75954819Y-67847618D02*
X75954819Y-67609523D01*
X75954819Y-67609523D02*
X76002438Y-67466666D01*
X76859580Y-66466666D02*
X76907200Y-66514285D01*
X76907200Y-66514285D02*
X76954819Y-66657142D01*
X76954819Y-66657142D02*
X76954819Y-66752380D01*
X76954819Y-66752380D02*
X76907200Y-66895237D01*
X76907200Y-66895237D02*
X76811961Y-66990475D01*
X76811961Y-66990475D02*
X76716723Y-67038094D01*
X76716723Y-67038094D02*
X76526247Y-67085713D01*
X76526247Y-67085713D02*
X76383390Y-67085713D01*
X76383390Y-67085713D02*
X76192914Y-67038094D01*
X76192914Y-67038094D02*
X76097676Y-66990475D01*
X76097676Y-66990475D02*
X76002438Y-66895237D01*
X76002438Y-66895237D02*
X75954819Y-66752380D01*
X75954819Y-66752380D02*
X75954819Y-66657142D01*
X75954819Y-66657142D02*
X76002438Y-66514285D01*
X76002438Y-66514285D02*
X76050057Y-66466666D01*
X76954819Y-66038094D02*
X75954819Y-66038094D01*
X75954819Y-66038094D02*
X75954819Y-65799999D01*
X75954819Y-65799999D02*
X76002438Y-65657142D01*
X76002438Y-65657142D02*
X76097676Y-65561904D01*
X76097676Y-65561904D02*
X76192914Y-65514285D01*
X76192914Y-65514285D02*
X76383390Y-65466666D01*
X76383390Y-65466666D02*
X76526247Y-65466666D01*
X76526247Y-65466666D02*
X76716723Y-65514285D01*
X76716723Y-65514285D02*
X76811961Y-65561904D01*
X76811961Y-65561904D02*
X76907200Y-65657142D01*
X76907200Y-65657142D02*
X76954819Y-65799999D01*
X76954819Y-65799999D02*
X76954819Y-66038094D01*
X76288152Y-64609523D02*
X76954819Y-64609523D01*
X75907200Y-64847618D02*
X76621485Y-65085713D01*
X76621485Y-65085713D02*
X76621485Y-64466666D01*
X76954819Y-63561904D02*
X76954819Y-64133332D01*
X76954819Y-63847618D02*
X75954819Y-63847618D01*
X75954819Y-63847618D02*
X76097676Y-63942856D01*
X76097676Y-63942856D02*
X76192914Y-64038094D01*
X76192914Y-64038094D02*
X76240533Y-64133332D01*
%TO.C,U1*%
D11*
X62490000Y-59129000D02*
X62490000Y-41984000D01*
X64395000Y-61034000D02*
X78365000Y-61034000D01*
D12*
X78365000Y-40079000D02*
X64395000Y-40079000D01*
D11*
X78365000Y-40079000D02*
X64395000Y-40079000D01*
X80270000Y-59129000D02*
X80270000Y-41984000D01*
X62490000Y-41984000D02*
G75*
G02*
X64395000Y-40079000I1905000J0D01*
G01*
X64395000Y-61034000D02*
G75*
G02*
X62490000Y-59129000I1J1905001D01*
G01*
X78365000Y-40079000D02*
G75*
G02*
X80270000Y-41984000I0J-1905000D01*
G01*
X80270000Y-59129000D02*
G75*
G02*
X78365000Y-61034000I-1905001J1D01*
G01*
%TO.C,SCD41*%
D13*
X77500000Y-62820000D02*
X80500000Y-62820000D01*
X77500000Y-72640000D02*
X77500000Y-62820000D01*
X80500000Y-62820000D02*
X80500000Y-72640000D01*
X80500000Y-65190000D02*
X77500000Y-65190000D01*
X80500000Y-72640000D02*
X77500000Y-72640000D01*
%TD*%
M02*
