M48
; DRILL file KiCad 10.0.0 date 2026-05-12T19:48:04
; FORMAT={-:-/ absolute / inch / decimal}
; #@! TF.CreationDate,2026-05-12T19:48:04+02:00
; #@! TF.GenerationSoftware,Kicad,Pcbnew,10.0.0
; #@! TF.FileFunction,Plated,1,4,PTH
FMAT,2
INCH
; #@! TA.AperFunction,Plated,PTH,ViaDrill
T1C0.0118
; #@! TA.AperFunction,Plated,PTH,ComponentDrill
T2C0.0350
; #@! TA.AperFunction,Plated,PTH,ComponentDrill
T3C0.0394
%
G90
G05
T1
X4.0433Y-1.6299
X4.7362Y-2.5551
X4.9291Y-2.4646
T2
X4.1732Y-1.2205
X4.1732Y-1.3205
X4.1732Y-1.4205
X4.1732Y-1.5205
X4.1732Y-1.6205
X4.1732Y-1.7205
X4.1732Y-1.8205
X4.7732Y-1.2205
X4.7732Y-1.3205
X4.7732Y-1.4205
X4.7732Y-1.5205
X4.7732Y-1.6205
X4.7732Y-1.7205
X4.7732Y-1.8205
T3
X4.2756Y-2.0866
X4.2756Y-2.185
X4.3543Y-2.9252
X4.4157Y-3.1063
X4.4276Y-2.3976
X4.5079Y-2.9252
X4.5157Y-3.1063
X4.5276Y-2.3976
X4.6157Y-3.1063
X4.6276Y-2.3976
X4.6654Y-2.9252
X4.6693Y-2.0866
X4.6693Y-2.185
X4.8228Y-2.9252
X4.9213Y-2.0394
X4.9213Y-2.1394
X4.9213Y-2.2394
M30
