%TF.GenerationSoftware,KiCad,Pcbnew,10.0.0*%
%TF.CreationDate,2026-05-12T19:48:04+02:00*%
%TF.ProjectId,esp32-c6-motion-light,65737033-322d-4633-962d-6d6f74696f6e,rev?*%
%TF.SameCoordinates,Original*%
%TF.FileFunction,Legend,Top*%
%TF.FilePolarity,Positive*%
%FSLAX46Y46*%
G04 Gerber Fmt 4.6, Leading zero omitted, Abs format (unit mm)*
G04 Created by KiCad (PCBNEW 10.0.0) date 2026-05-12 19:48:04*
%MOMM*%
%LPD*%
G01*
G04 APERTURE LIST*
%ADD10C,0.100000*%
%ADD11C,0.150000*%
%ADD12C,0.101600*%
%ADD13C,0.120000*%
%ADD14C,0.060000*%
%ADD15C,0.000000*%
G04 APERTURE END LIST*
D10*
X109303884Y-82762475D02*
X109303884Y-81762475D01*
X109303884Y-81762475D02*
X109637217Y-82476760D01*
X109637217Y-82476760D02*
X109970550Y-81762475D01*
X109970550Y-81762475D02*
X109970550Y-82762475D01*
X110589598Y-82762475D02*
X110494360Y-82714856D01*
X110494360Y-82714856D02*
X110446741Y-82667236D01*
X110446741Y-82667236D02*
X110399122Y-82571998D01*
X110399122Y-82571998D02*
X110399122Y-82286284D01*
X110399122Y-82286284D02*
X110446741Y-82191046D01*
X110446741Y-82191046D02*
X110494360Y-82143427D01*
X110494360Y-82143427D02*
X110589598Y-82095808D01*
X110589598Y-82095808D02*
X110732455Y-82095808D01*
X110732455Y-82095808D02*
X110827693Y-82143427D01*
X110827693Y-82143427D02*
X110875312Y-82191046D01*
X110875312Y-82191046D02*
X110922931Y-82286284D01*
X110922931Y-82286284D02*
X110922931Y-82571998D01*
X110922931Y-82571998D02*
X110875312Y-82667236D01*
X110875312Y-82667236D02*
X110827693Y-82714856D01*
X110827693Y-82714856D02*
X110732455Y-82762475D01*
X110732455Y-82762475D02*
X110589598Y-82762475D01*
X111208646Y-82095808D02*
X111589598Y-82095808D01*
X111351503Y-81762475D02*
X111351503Y-82619617D01*
X111351503Y-82619617D02*
X111399122Y-82714856D01*
X111399122Y-82714856D02*
X111494360Y-82762475D01*
X111494360Y-82762475D02*
X111589598Y-82762475D01*
X111922932Y-82762475D02*
X111922932Y-82095808D01*
X111922932Y-81762475D02*
X111875313Y-81810094D01*
X111875313Y-81810094D02*
X111922932Y-81857713D01*
X111922932Y-81857713D02*
X111970551Y-81810094D01*
X111970551Y-81810094D02*
X111922932Y-81762475D01*
X111922932Y-81762475D02*
X111922932Y-81857713D01*
X112541979Y-82762475D02*
X112446741Y-82714856D01*
X112446741Y-82714856D02*
X112399122Y-82667236D01*
X112399122Y-82667236D02*
X112351503Y-82571998D01*
X112351503Y-82571998D02*
X112351503Y-82286284D01*
X112351503Y-82286284D02*
X112399122Y-82191046D01*
X112399122Y-82191046D02*
X112446741Y-82143427D01*
X112446741Y-82143427D02*
X112541979Y-82095808D01*
X112541979Y-82095808D02*
X112684836Y-82095808D01*
X112684836Y-82095808D02*
X112780074Y-82143427D01*
X112780074Y-82143427D02*
X112827693Y-82191046D01*
X112827693Y-82191046D02*
X112875312Y-82286284D01*
X112875312Y-82286284D02*
X112875312Y-82571998D01*
X112875312Y-82571998D02*
X112827693Y-82667236D01*
X112827693Y-82667236D02*
X112780074Y-82714856D01*
X112780074Y-82714856D02*
X112684836Y-82762475D01*
X112684836Y-82762475D02*
X112541979Y-82762475D01*
X113303884Y-82095808D02*
X113303884Y-82762475D01*
X113303884Y-82191046D02*
X113351503Y-82143427D01*
X113351503Y-82143427D02*
X113446741Y-82095808D01*
X113446741Y-82095808D02*
X113589598Y-82095808D01*
X113589598Y-82095808D02*
X113684836Y-82143427D01*
X113684836Y-82143427D02*
X113732455Y-82238665D01*
X113732455Y-82238665D02*
X113732455Y-82762475D01*
X114922932Y-82714856D02*
X115065789Y-82762475D01*
X115065789Y-82762475D02*
X115303884Y-82762475D01*
X115303884Y-82762475D02*
X115399122Y-82714856D01*
X115399122Y-82714856D02*
X115446741Y-82667236D01*
X115446741Y-82667236D02*
X115494360Y-82571998D01*
X115494360Y-82571998D02*
X115494360Y-82476760D01*
X115494360Y-82476760D02*
X115446741Y-82381522D01*
X115446741Y-82381522D02*
X115399122Y-82333903D01*
X115399122Y-82333903D02*
X115303884Y-82286284D01*
X115303884Y-82286284D02*
X115113408Y-82238665D01*
X115113408Y-82238665D02*
X115018170Y-82191046D01*
X115018170Y-82191046D02*
X114970551Y-82143427D01*
X114970551Y-82143427D02*
X114922932Y-82048189D01*
X114922932Y-82048189D02*
X114922932Y-81952951D01*
X114922932Y-81952951D02*
X114970551Y-81857713D01*
X114970551Y-81857713D02*
X115018170Y-81810094D01*
X115018170Y-81810094D02*
X115113408Y-81762475D01*
X115113408Y-81762475D02*
X115351503Y-81762475D01*
X115351503Y-81762475D02*
X115494360Y-81810094D01*
X116303884Y-82714856D02*
X116208646Y-82762475D01*
X116208646Y-82762475D02*
X116018170Y-82762475D01*
X116018170Y-82762475D02*
X115922932Y-82714856D01*
X115922932Y-82714856D02*
X115875313Y-82619617D01*
X115875313Y-82619617D02*
X115875313Y-82238665D01*
X115875313Y-82238665D02*
X115922932Y-82143427D01*
X115922932Y-82143427D02*
X116018170Y-82095808D01*
X116018170Y-82095808D02*
X116208646Y-82095808D01*
X116208646Y-82095808D02*
X116303884Y-82143427D01*
X116303884Y-82143427D02*
X116351503Y-82238665D01*
X116351503Y-82238665D02*
X116351503Y-82333903D01*
X116351503Y-82333903D02*
X115875313Y-82429141D01*
X116780075Y-82095808D02*
X116780075Y-82762475D01*
X116780075Y-82191046D02*
X116827694Y-82143427D01*
X116827694Y-82143427D02*
X116922932Y-82095808D01*
X116922932Y-82095808D02*
X117065789Y-82095808D01*
X117065789Y-82095808D02*
X117161027Y-82143427D01*
X117161027Y-82143427D02*
X117208646Y-82238665D01*
X117208646Y-82238665D02*
X117208646Y-82762475D01*
X117637218Y-82714856D02*
X117732456Y-82762475D01*
X117732456Y-82762475D02*
X117922932Y-82762475D01*
X117922932Y-82762475D02*
X118018170Y-82714856D01*
X118018170Y-82714856D02*
X118065789Y-82619617D01*
X118065789Y-82619617D02*
X118065789Y-82571998D01*
X118065789Y-82571998D02*
X118018170Y-82476760D01*
X118018170Y-82476760D02*
X117922932Y-82429141D01*
X117922932Y-82429141D02*
X117780075Y-82429141D01*
X117780075Y-82429141D02*
X117684837Y-82381522D01*
X117684837Y-82381522D02*
X117637218Y-82286284D01*
X117637218Y-82286284D02*
X117637218Y-82238665D01*
X117637218Y-82238665D02*
X117684837Y-82143427D01*
X117684837Y-82143427D02*
X117780075Y-82095808D01*
X117780075Y-82095808D02*
X117922932Y-82095808D01*
X117922932Y-82095808D02*
X118018170Y-82143427D01*
X118637218Y-82762475D02*
X118541980Y-82714856D01*
X118541980Y-82714856D02*
X118494361Y-82667236D01*
X118494361Y-82667236D02*
X118446742Y-82571998D01*
X118446742Y-82571998D02*
X118446742Y-82286284D01*
X118446742Y-82286284D02*
X118494361Y-82191046D01*
X118494361Y-82191046D02*
X118541980Y-82143427D01*
X118541980Y-82143427D02*
X118637218Y-82095808D01*
X118637218Y-82095808D02*
X118780075Y-82095808D01*
X118780075Y-82095808D02*
X118875313Y-82143427D01*
X118875313Y-82143427D02*
X118922932Y-82191046D01*
X118922932Y-82191046D02*
X118970551Y-82286284D01*
X118970551Y-82286284D02*
X118970551Y-82571998D01*
X118970551Y-82571998D02*
X118922932Y-82667236D01*
X118922932Y-82667236D02*
X118875313Y-82714856D01*
X118875313Y-82714856D02*
X118780075Y-82762475D01*
X118780075Y-82762475D02*
X118637218Y-82762475D01*
X119399123Y-82762475D02*
X119399123Y-82095808D01*
X119399123Y-82286284D02*
X119446742Y-82191046D01*
X119446742Y-82191046D02*
X119494361Y-82143427D01*
X119494361Y-82143427D02*
X119589599Y-82095808D01*
X119589599Y-82095808D02*
X119684837Y-82095808D01*
X109208646Y-83705752D02*
X109446741Y-84372419D01*
X109446741Y-84372419D02*
X109684836Y-83705752D01*
X110065789Y-84277180D02*
X110113408Y-84324800D01*
X110113408Y-84324800D02*
X110065789Y-84372419D01*
X110065789Y-84372419D02*
X110018170Y-84324800D01*
X110018170Y-84324800D02*
X110065789Y-84277180D01*
X110065789Y-84277180D02*
X110065789Y-84372419D01*
X111065788Y-84372419D02*
X110494360Y-84372419D01*
X110780074Y-84372419D02*
X110780074Y-83372419D01*
X110780074Y-83372419D02*
X110684836Y-83515276D01*
X110684836Y-83515276D02*
X110589598Y-83610514D01*
X110589598Y-83610514D02*
X110494360Y-83658133D01*
X111494360Y-84277180D02*
X111541979Y-84324800D01*
X111541979Y-84324800D02*
X111494360Y-84372419D01*
X111494360Y-84372419D02*
X111446741Y-84324800D01*
X111446741Y-84324800D02*
X111494360Y-84277180D01*
X111494360Y-84277180D02*
X111494360Y-84372419D01*
X112161026Y-83372419D02*
X112256264Y-83372419D01*
X112256264Y-83372419D02*
X112351502Y-83420038D01*
X112351502Y-83420038D02*
X112399121Y-83467657D01*
X112399121Y-83467657D02*
X112446740Y-83562895D01*
X112446740Y-83562895D02*
X112494359Y-83753371D01*
X112494359Y-83753371D02*
X112494359Y-83991466D01*
X112494359Y-83991466D02*
X112446740Y-84181942D01*
X112446740Y-84181942D02*
X112399121Y-84277180D01*
X112399121Y-84277180D02*
X112351502Y-84324800D01*
X112351502Y-84324800D02*
X112256264Y-84372419D01*
X112256264Y-84372419D02*
X112161026Y-84372419D01*
X112161026Y-84372419D02*
X112065788Y-84324800D01*
X112065788Y-84324800D02*
X112018169Y-84277180D01*
X112018169Y-84277180D02*
X111970550Y-84181942D01*
X111970550Y-84181942D02*
X111922931Y-83991466D01*
X111922931Y-83991466D02*
X111922931Y-83753371D01*
X111922931Y-83753371D02*
X111970550Y-83562895D01*
X111970550Y-83562895D02*
X112018169Y-83467657D01*
X112018169Y-83467657D02*
X112065788Y-83420038D01*
X112065788Y-83420038D02*
X112161026Y-83372419D01*
X112922931Y-84277180D02*
X112970550Y-84324800D01*
X112970550Y-84324800D02*
X112922931Y-84372419D01*
X112922931Y-84372419D02*
X112875312Y-84324800D01*
X112875312Y-84324800D02*
X112922931Y-84277180D01*
X112922931Y-84277180D02*
X112922931Y-84372419D01*
X113589597Y-83372419D02*
X113684835Y-83372419D01*
X113684835Y-83372419D02*
X113780073Y-83420038D01*
X113780073Y-83420038D02*
X113827692Y-83467657D01*
X113827692Y-83467657D02*
X113875311Y-83562895D01*
X113875311Y-83562895D02*
X113922930Y-83753371D01*
X113922930Y-83753371D02*
X113922930Y-83991466D01*
X113922930Y-83991466D02*
X113875311Y-84181942D01*
X113875311Y-84181942D02*
X113827692Y-84277180D01*
X113827692Y-84277180D02*
X113780073Y-84324800D01*
X113780073Y-84324800D02*
X113684835Y-84372419D01*
X113684835Y-84372419D02*
X113589597Y-84372419D01*
X113589597Y-84372419D02*
X113494359Y-84324800D01*
X113494359Y-84324800D02*
X113446740Y-84277180D01*
X113446740Y-84277180D02*
X113399121Y-84181942D01*
X113399121Y-84181942D02*
X113351502Y-83991466D01*
X113351502Y-83991466D02*
X113351502Y-83753371D01*
X113351502Y-83753371D02*
X113399121Y-83562895D01*
X113399121Y-83562895D02*
X113446740Y-83467657D01*
X113446740Y-83467657D02*
X113494359Y-83420038D01*
X113494359Y-83420038D02*
X113589597Y-83372419D01*
D11*
X124869819Y-76877506D02*
X125584104Y-76877506D01*
X125584104Y-76877506D02*
X125726961Y-76925125D01*
X125726961Y-76925125D02*
X125822200Y-77020363D01*
X125822200Y-77020363D02*
X125869819Y-77163220D01*
X125869819Y-77163220D02*
X125869819Y-77258458D01*
X125869819Y-75925125D02*
X125869819Y-76401315D01*
X125869819Y-76401315D02*
X124869819Y-76401315D01*
X125774580Y-75020363D02*
X125822200Y-75067982D01*
X125822200Y-75067982D02*
X125869819Y-75210839D01*
X125869819Y-75210839D02*
X125869819Y-75306077D01*
X125869819Y-75306077D02*
X125822200Y-75448934D01*
X125822200Y-75448934D02*
X125726961Y-75544172D01*
X125726961Y-75544172D02*
X125631723Y-75591791D01*
X125631723Y-75591791D02*
X125441247Y-75639410D01*
X125441247Y-75639410D02*
X125298390Y-75639410D01*
X125298390Y-75639410D02*
X125107914Y-75591791D01*
X125107914Y-75591791D02*
X125012676Y-75544172D01*
X125012676Y-75544172D02*
X124917438Y-75448934D01*
X124917438Y-75448934D02*
X124869819Y-75306077D01*
X124869819Y-75306077D02*
X124869819Y-75210839D01*
X124869819Y-75210839D02*
X124917438Y-75067982D01*
X124917438Y-75067982D02*
X124965057Y-75020363D01*
X124869819Y-74306077D02*
X125584104Y-74306077D01*
X125584104Y-74306077D02*
X125726961Y-74353696D01*
X125726961Y-74353696D02*
X125822200Y-74448934D01*
X125822200Y-74448934D02*
X125869819Y-74591791D01*
X125869819Y-74591791D02*
X125869819Y-74687029D01*
X125869819Y-73353696D02*
X125869819Y-73829886D01*
X125869819Y-73829886D02*
X124869819Y-73829886D01*
X125774580Y-72448934D02*
X125822200Y-72496553D01*
X125822200Y-72496553D02*
X125869819Y-72639410D01*
X125869819Y-72639410D02*
X125869819Y-72734648D01*
X125869819Y-72734648D02*
X125822200Y-72877505D01*
X125822200Y-72877505D02*
X125726961Y-72972743D01*
X125726961Y-72972743D02*
X125631723Y-73020362D01*
X125631723Y-73020362D02*
X125441247Y-73067981D01*
X125441247Y-73067981D02*
X125298390Y-73067981D01*
X125298390Y-73067981D02*
X125107914Y-73020362D01*
X125107914Y-73020362D02*
X125012676Y-72972743D01*
X125012676Y-72972743D02*
X124917438Y-72877505D01*
X124917438Y-72877505D02*
X124869819Y-72734648D01*
X124869819Y-72734648D02*
X124869819Y-72639410D01*
X124869819Y-72639410D02*
X124917438Y-72496553D01*
X124917438Y-72496553D02*
X124965057Y-72448934D01*
X124869819Y-71734648D02*
X125584104Y-71734648D01*
X125584104Y-71734648D02*
X125726961Y-71782267D01*
X125726961Y-71782267D02*
X125822200Y-71877505D01*
X125822200Y-71877505D02*
X125869819Y-72020362D01*
X125869819Y-72020362D02*
X125869819Y-72115600D01*
X125869819Y-70782267D02*
X125869819Y-71258457D01*
X125869819Y-71258457D02*
X124869819Y-71258457D01*
X125774580Y-69877505D02*
X125822200Y-69925124D01*
X125822200Y-69925124D02*
X125869819Y-70067981D01*
X125869819Y-70067981D02*
X125869819Y-70163219D01*
X125869819Y-70163219D02*
X125822200Y-70306076D01*
X125822200Y-70306076D02*
X125726961Y-70401314D01*
X125726961Y-70401314D02*
X125631723Y-70448933D01*
X125631723Y-70448933D02*
X125441247Y-70496552D01*
X125441247Y-70496552D02*
X125298390Y-70496552D01*
X125298390Y-70496552D02*
X125107914Y-70448933D01*
X125107914Y-70448933D02*
X125012676Y-70401314D01*
X125012676Y-70401314D02*
X124917438Y-70306076D01*
X124917438Y-70306076D02*
X124869819Y-70163219D01*
X124869819Y-70163219D02*
X124869819Y-70067981D01*
X124869819Y-70067981D02*
X124917438Y-69925124D01*
X124917438Y-69925124D02*
X124965057Y-69877505D01*
X124869819Y-69163219D02*
X125584104Y-69163219D01*
X125584104Y-69163219D02*
X125726961Y-69210838D01*
X125726961Y-69210838D02*
X125822200Y-69306076D01*
X125822200Y-69306076D02*
X125869819Y-69448933D01*
X125869819Y-69448933D02*
X125869819Y-69544171D01*
X125869819Y-68210838D02*
X125869819Y-68687028D01*
X125869819Y-68687028D02*
X124869819Y-68687028D01*
X125774580Y-67306076D02*
X125822200Y-67353695D01*
X125822200Y-67353695D02*
X125869819Y-67496552D01*
X125869819Y-67496552D02*
X125869819Y-67591790D01*
X125869819Y-67591790D02*
X125822200Y-67734647D01*
X125822200Y-67734647D02*
X125726961Y-67829885D01*
X125726961Y-67829885D02*
X125631723Y-67877504D01*
X125631723Y-67877504D02*
X125441247Y-67925123D01*
X125441247Y-67925123D02*
X125298390Y-67925123D01*
X125298390Y-67925123D02*
X125107914Y-67877504D01*
X125107914Y-67877504D02*
X125012676Y-67829885D01*
X125012676Y-67829885D02*
X124917438Y-67734647D01*
X124917438Y-67734647D02*
X124869819Y-67591790D01*
X124869819Y-67591790D02*
X124869819Y-67496552D01*
X124869819Y-67496552D02*
X124917438Y-67353695D01*
X124917438Y-67353695D02*
X124965057Y-67306076D01*
D12*
X110280952Y-48133525D02*
X110614285Y-48133525D01*
X110757142Y-48657335D02*
X110280952Y-48657335D01*
X110280952Y-48657335D02*
X110280952Y-47657335D01*
X110280952Y-47657335D02*
X110757142Y-47657335D01*
X111138095Y-48609716D02*
X111280952Y-48657335D01*
X111280952Y-48657335D02*
X111519047Y-48657335D01*
X111519047Y-48657335D02*
X111614285Y-48609716D01*
X111614285Y-48609716D02*
X111661904Y-48562096D01*
X111661904Y-48562096D02*
X111709523Y-48466858D01*
X111709523Y-48466858D02*
X111709523Y-48371620D01*
X111709523Y-48371620D02*
X111661904Y-48276382D01*
X111661904Y-48276382D02*
X111614285Y-48228763D01*
X111614285Y-48228763D02*
X111519047Y-48181144D01*
X111519047Y-48181144D02*
X111328571Y-48133525D01*
X111328571Y-48133525D02*
X111233333Y-48085906D01*
X111233333Y-48085906D02*
X111185714Y-48038287D01*
X111185714Y-48038287D02*
X111138095Y-47943049D01*
X111138095Y-47943049D02*
X111138095Y-47847811D01*
X111138095Y-47847811D02*
X111185714Y-47752573D01*
X111185714Y-47752573D02*
X111233333Y-47704954D01*
X111233333Y-47704954D02*
X111328571Y-47657335D01*
X111328571Y-47657335D02*
X111566666Y-47657335D01*
X111566666Y-47657335D02*
X111709523Y-47704954D01*
X112138095Y-48657335D02*
X112138095Y-47657335D01*
X112138095Y-47657335D02*
X112519047Y-47657335D01*
X112519047Y-47657335D02*
X112614285Y-47704954D01*
X112614285Y-47704954D02*
X112661904Y-47752573D01*
X112661904Y-47752573D02*
X112709523Y-47847811D01*
X112709523Y-47847811D02*
X112709523Y-47990668D01*
X112709523Y-47990668D02*
X112661904Y-48085906D01*
X112661904Y-48085906D02*
X112614285Y-48133525D01*
X112614285Y-48133525D02*
X112519047Y-48181144D01*
X112519047Y-48181144D02*
X112138095Y-48181144D01*
X113042857Y-47657335D02*
X113661904Y-47657335D01*
X113661904Y-47657335D02*
X113328571Y-48038287D01*
X113328571Y-48038287D02*
X113471428Y-48038287D01*
X113471428Y-48038287D02*
X113566666Y-48085906D01*
X113566666Y-48085906D02*
X113614285Y-48133525D01*
X113614285Y-48133525D02*
X113661904Y-48228763D01*
X113661904Y-48228763D02*
X113661904Y-48466858D01*
X113661904Y-48466858D02*
X113614285Y-48562096D01*
X113614285Y-48562096D02*
X113566666Y-48609716D01*
X113566666Y-48609716D02*
X113471428Y-48657335D01*
X113471428Y-48657335D02*
X113185714Y-48657335D01*
X113185714Y-48657335D02*
X113090476Y-48609716D01*
X113090476Y-48609716D02*
X113042857Y-48562096D01*
X114042857Y-47752573D02*
X114090476Y-47704954D01*
X114090476Y-47704954D02*
X114185714Y-47657335D01*
X114185714Y-47657335D02*
X114423809Y-47657335D01*
X114423809Y-47657335D02*
X114519047Y-47704954D01*
X114519047Y-47704954D02*
X114566666Y-47752573D01*
X114566666Y-47752573D02*
X114614285Y-47847811D01*
X114614285Y-47847811D02*
X114614285Y-47943049D01*
X114614285Y-47943049D02*
X114566666Y-48085906D01*
X114566666Y-48085906D02*
X113995238Y-48657335D01*
X113995238Y-48657335D02*
X114614285Y-48657335D01*
X115614285Y-48562096D02*
X115566666Y-48609716D01*
X115566666Y-48609716D02*
X115423809Y-48657335D01*
X115423809Y-48657335D02*
X115328571Y-48657335D01*
X115328571Y-48657335D02*
X115185714Y-48609716D01*
X115185714Y-48609716D02*
X115090476Y-48514477D01*
X115090476Y-48514477D02*
X115042857Y-48419239D01*
X115042857Y-48419239D02*
X114995238Y-48228763D01*
X114995238Y-48228763D02*
X114995238Y-48085906D01*
X114995238Y-48085906D02*
X115042857Y-47895430D01*
X115042857Y-47895430D02*
X115090476Y-47800192D01*
X115090476Y-47800192D02*
X115185714Y-47704954D01*
X115185714Y-47704954D02*
X115328571Y-47657335D01*
X115328571Y-47657335D02*
X115423809Y-47657335D01*
X115423809Y-47657335D02*
X115566666Y-47704954D01*
X115566666Y-47704954D02*
X115614285Y-47752573D01*
X116471428Y-47657335D02*
X116280952Y-47657335D01*
X116280952Y-47657335D02*
X116185714Y-47704954D01*
X116185714Y-47704954D02*
X116138095Y-47752573D01*
X116138095Y-47752573D02*
X116042857Y-47895430D01*
X116042857Y-47895430D02*
X115995238Y-48085906D01*
X115995238Y-48085906D02*
X115995238Y-48466858D01*
X115995238Y-48466858D02*
X116042857Y-48562096D01*
X116042857Y-48562096D02*
X116090476Y-48609716D01*
X116090476Y-48609716D02*
X116185714Y-48657335D01*
X116185714Y-48657335D02*
X116376190Y-48657335D01*
X116376190Y-48657335D02*
X116471428Y-48609716D01*
X116471428Y-48609716D02*
X116519047Y-48562096D01*
X116519047Y-48562096D02*
X116566666Y-48466858D01*
X116566666Y-48466858D02*
X116566666Y-48228763D01*
X116566666Y-48228763D02*
X116519047Y-48133525D01*
X116519047Y-48133525D02*
X116471428Y-48085906D01*
X116471428Y-48085906D02*
X116376190Y-48038287D01*
X116376190Y-48038287D02*
X116185714Y-48038287D01*
X116185714Y-48038287D02*
X116090476Y-48085906D01*
X116090476Y-48085906D02*
X116042857Y-48133525D01*
X116042857Y-48133525D02*
X115995238Y-48228763D01*
D11*
X123666667Y-49827200D02*
X123809524Y-49874819D01*
X123809524Y-49874819D02*
X124047619Y-49874819D01*
X124047619Y-49874819D02*
X124142857Y-49827200D01*
X124142857Y-49827200D02*
X124190476Y-49779580D01*
X124190476Y-49779580D02*
X124238095Y-49684342D01*
X124238095Y-49684342D02*
X124238095Y-49589104D01*
X124238095Y-49589104D02*
X124190476Y-49493866D01*
X124190476Y-49493866D02*
X124142857Y-49446247D01*
X124142857Y-49446247D02*
X124047619Y-49398628D01*
X124047619Y-49398628D02*
X123857143Y-49351009D01*
X123857143Y-49351009D02*
X123761905Y-49303390D01*
X123761905Y-49303390D02*
X123714286Y-49255771D01*
X123714286Y-49255771D02*
X123666667Y-49160533D01*
X123666667Y-49160533D02*
X123666667Y-49065295D01*
X123666667Y-49065295D02*
X123714286Y-48970057D01*
X123714286Y-48970057D02*
X123761905Y-48922438D01*
X123761905Y-48922438D02*
X123857143Y-48874819D01*
X123857143Y-48874819D02*
X124095238Y-48874819D01*
X124095238Y-48874819D02*
X124238095Y-48922438D01*
X124571429Y-48874819D02*
X124809524Y-49874819D01*
X124809524Y-49874819D02*
X125000000Y-49160533D01*
X125000000Y-49160533D02*
X125190476Y-49874819D01*
X125190476Y-49874819D02*
X125428572Y-48874819D01*
X126333333Y-49874819D02*
X125761905Y-49874819D01*
X126047619Y-49874819D02*
X126047619Y-48874819D01*
X126047619Y-48874819D02*
X125952381Y-49017676D01*
X125952381Y-49017676D02*
X125857143Y-49112914D01*
X125857143Y-49112914D02*
X125761905Y-49160533D01*
X120954819Y-62376189D02*
X119954819Y-62376189D01*
X119954819Y-62376189D02*
X119954819Y-61995237D01*
X119954819Y-61995237D02*
X120002438Y-61899999D01*
X120002438Y-61899999D02*
X120050057Y-61852380D01*
X120050057Y-61852380D02*
X120145295Y-61804761D01*
X120145295Y-61804761D02*
X120288152Y-61804761D01*
X120288152Y-61804761D02*
X120383390Y-61852380D01*
X120383390Y-61852380D02*
X120431009Y-61899999D01*
X120431009Y-61899999D02*
X120478628Y-61995237D01*
X120478628Y-61995237D02*
X120478628Y-62376189D01*
X120954819Y-61376189D02*
X119954819Y-61376189D01*
X120954819Y-60328571D02*
X120478628Y-60661904D01*
X120954819Y-60899999D02*
X119954819Y-60899999D01*
X119954819Y-60899999D02*
X119954819Y-60519047D01*
X119954819Y-60519047D02*
X120002438Y-60423809D01*
X120002438Y-60423809D02*
X120050057Y-60376190D01*
X120050057Y-60376190D02*
X120145295Y-60328571D01*
X120145295Y-60328571D02*
X120288152Y-60328571D01*
X120288152Y-60328571D02*
X120383390Y-60376190D01*
X120383390Y-60376190D02*
X120431009Y-60423809D01*
X120431009Y-60423809D02*
X120478628Y-60519047D01*
X120478628Y-60519047D02*
X120478628Y-60899999D01*
X120050057Y-59947618D02*
X120002438Y-59899999D01*
X120002438Y-59899999D02*
X119954819Y-59804761D01*
X119954819Y-59804761D02*
X119954819Y-59566666D01*
X119954819Y-59566666D02*
X120002438Y-59471428D01*
X120002438Y-59471428D02*
X120050057Y-59423809D01*
X120050057Y-59423809D02*
X120145295Y-59376190D01*
X120145295Y-59376190D02*
X120240533Y-59376190D01*
X120240533Y-59376190D02*
X120383390Y-59423809D01*
X120383390Y-59423809D02*
X120954819Y-59995237D01*
X120954819Y-59995237D02*
X120954819Y-59376190D01*
X107483333Y-68654819D02*
X107150000Y-68178628D01*
X106911905Y-68654819D02*
X106911905Y-67654819D01*
X106911905Y-67654819D02*
X107292857Y-67654819D01*
X107292857Y-67654819D02*
X107388095Y-67702438D01*
X107388095Y-67702438D02*
X107435714Y-67750057D01*
X107435714Y-67750057D02*
X107483333Y-67845295D01*
X107483333Y-67845295D02*
X107483333Y-67988152D01*
X107483333Y-67988152D02*
X107435714Y-68083390D01*
X107435714Y-68083390D02*
X107388095Y-68131009D01*
X107388095Y-68131009D02*
X107292857Y-68178628D01*
X107292857Y-68178628D02*
X106911905Y-68178628D01*
X108340476Y-67988152D02*
X108340476Y-68654819D01*
X108102381Y-67607200D02*
X107864286Y-68321485D01*
X107864286Y-68321485D02*
X108483333Y-68321485D01*
X120454819Y-67366666D02*
X119978628Y-67699999D01*
X120454819Y-67938094D02*
X119454819Y-67938094D01*
X119454819Y-67938094D02*
X119454819Y-67557142D01*
X119454819Y-67557142D02*
X119502438Y-67461904D01*
X119502438Y-67461904D02*
X119550057Y-67414285D01*
X119550057Y-67414285D02*
X119645295Y-67366666D01*
X119645295Y-67366666D02*
X119788152Y-67366666D01*
X119788152Y-67366666D02*
X119883390Y-67414285D01*
X119883390Y-67414285D02*
X119931009Y-67461904D01*
X119931009Y-67461904D02*
X119978628Y-67557142D01*
X119978628Y-67557142D02*
X119978628Y-67938094D01*
X119550057Y-66985713D02*
X119502438Y-66938094D01*
X119502438Y-66938094D02*
X119454819Y-66842856D01*
X119454819Y-66842856D02*
X119454819Y-66604761D01*
X119454819Y-66604761D02*
X119502438Y-66509523D01*
X119502438Y-66509523D02*
X119550057Y-66461904D01*
X119550057Y-66461904D02*
X119645295Y-66414285D01*
X119645295Y-66414285D02*
X119740533Y-66414285D01*
X119740533Y-66414285D02*
X119883390Y-66461904D01*
X119883390Y-66461904D02*
X120454819Y-67033332D01*
X120454819Y-67033332D02*
X120454819Y-66414285D01*
X109338095Y-71756819D02*
X109909523Y-71756819D01*
X109623809Y-72756819D02*
X109623809Y-71756819D01*
X110242857Y-72756819D02*
X110242857Y-71756819D01*
X110242857Y-71756819D02*
X110623809Y-71756819D01*
X110623809Y-71756819D02*
X110719047Y-71804438D01*
X110719047Y-71804438D02*
X110766666Y-71852057D01*
X110766666Y-71852057D02*
X110814285Y-71947295D01*
X110814285Y-71947295D02*
X110814285Y-72090152D01*
X110814285Y-72090152D02*
X110766666Y-72185390D01*
X110766666Y-72185390D02*
X110719047Y-72233009D01*
X110719047Y-72233009D02*
X110623809Y-72280628D01*
X110623809Y-72280628D02*
X110242857Y-72280628D01*
X111147619Y-71756819D02*
X111766666Y-71756819D01*
X111766666Y-71756819D02*
X111433333Y-72137771D01*
X111433333Y-72137771D02*
X111576190Y-72137771D01*
X111576190Y-72137771D02*
X111671428Y-72185390D01*
X111671428Y-72185390D02*
X111719047Y-72233009D01*
X111719047Y-72233009D02*
X111766666Y-72328247D01*
X111766666Y-72328247D02*
X111766666Y-72566342D01*
X111766666Y-72566342D02*
X111719047Y-72661580D01*
X111719047Y-72661580D02*
X111671428Y-72709200D01*
X111671428Y-72709200D02*
X111576190Y-72756819D01*
X111576190Y-72756819D02*
X111290476Y-72756819D01*
X111290476Y-72756819D02*
X111195238Y-72709200D01*
X111195238Y-72709200D02*
X111147619Y-72661580D01*
X114033333Y-65354819D02*
X113700000Y-64878628D01*
X113461905Y-65354819D02*
X113461905Y-64354819D01*
X113461905Y-64354819D02*
X113842857Y-64354819D01*
X113842857Y-64354819D02*
X113938095Y-64402438D01*
X113938095Y-64402438D02*
X113985714Y-64450057D01*
X113985714Y-64450057D02*
X114033333Y-64545295D01*
X114033333Y-64545295D02*
X114033333Y-64688152D01*
X114033333Y-64688152D02*
X113985714Y-64783390D01*
X113985714Y-64783390D02*
X113938095Y-64831009D01*
X113938095Y-64831009D02*
X113842857Y-64878628D01*
X113842857Y-64878628D02*
X113461905Y-64878628D01*
X114366667Y-64354819D02*
X114985714Y-64354819D01*
X114985714Y-64354819D02*
X114652381Y-64735771D01*
X114652381Y-64735771D02*
X114795238Y-64735771D01*
X114795238Y-64735771D02*
X114890476Y-64783390D01*
X114890476Y-64783390D02*
X114938095Y-64831009D01*
X114938095Y-64831009D02*
X114985714Y-64926247D01*
X114985714Y-64926247D02*
X114985714Y-65164342D01*
X114985714Y-65164342D02*
X114938095Y-65259580D01*
X114938095Y-65259580D02*
X114890476Y-65307200D01*
X114890476Y-65307200D02*
X114795238Y-65354819D01*
X114795238Y-65354819D02*
X114509524Y-65354819D01*
X114509524Y-65354819D02*
X114414286Y-65307200D01*
X114414286Y-65307200D02*
X114366667Y-65259580D01*
X113999999Y-70700057D02*
X113904761Y-70652438D01*
X113904761Y-70652438D02*
X113809523Y-70557200D01*
X113809523Y-70557200D02*
X113666666Y-70414342D01*
X113666666Y-70414342D02*
X113571428Y-70366723D01*
X113571428Y-70366723D02*
X113476190Y-70366723D01*
X113523809Y-70604819D02*
X113428571Y-70557200D01*
X113428571Y-70557200D02*
X113333333Y-70461961D01*
X113333333Y-70461961D02*
X113285714Y-70271485D01*
X113285714Y-70271485D02*
X113285714Y-69938152D01*
X113285714Y-69938152D02*
X113333333Y-69747676D01*
X113333333Y-69747676D02*
X113428571Y-69652438D01*
X113428571Y-69652438D02*
X113523809Y-69604819D01*
X113523809Y-69604819D02*
X113714285Y-69604819D01*
X113714285Y-69604819D02*
X113809523Y-69652438D01*
X113809523Y-69652438D02*
X113904761Y-69747676D01*
X113904761Y-69747676D02*
X113952380Y-69938152D01*
X113952380Y-69938152D02*
X113952380Y-70271485D01*
X113952380Y-70271485D02*
X113904761Y-70461961D01*
X113904761Y-70461961D02*
X113809523Y-70557200D01*
X113809523Y-70557200D02*
X113714285Y-70604819D01*
X113714285Y-70604819D02*
X113523809Y-70604819D01*
X114904761Y-70604819D02*
X114333333Y-70604819D01*
X114619047Y-70604819D02*
X114619047Y-69604819D01*
X114619047Y-69604819D02*
X114523809Y-69747676D01*
X114523809Y-69747676D02*
X114428571Y-69842914D01*
X114428571Y-69842914D02*
X114333333Y-69890533D01*
X115285714Y-70319104D02*
X115761904Y-70319104D01*
X115190476Y-70604819D02*
X115523809Y-69604819D01*
X115523809Y-69604819D02*
X115857142Y-70604819D01*
X116714285Y-70604819D02*
X116142857Y-70604819D01*
X116428571Y-70604819D02*
X116428571Y-69604819D01*
X116428571Y-69604819D02*
X116333333Y-69747676D01*
X116333333Y-69747676D02*
X116238095Y-69842914D01*
X116238095Y-69842914D02*
X116142857Y-69890533D01*
X113238095Y-71756819D02*
X113809523Y-71756819D01*
X113523809Y-72756819D02*
X113523809Y-71756819D01*
X114142857Y-72756819D02*
X114142857Y-71756819D01*
X114142857Y-71756819D02*
X114523809Y-71756819D01*
X114523809Y-71756819D02*
X114619047Y-71804438D01*
X114619047Y-71804438D02*
X114666666Y-71852057D01*
X114666666Y-71852057D02*
X114714285Y-71947295D01*
X114714285Y-71947295D02*
X114714285Y-72090152D01*
X114714285Y-72090152D02*
X114666666Y-72185390D01*
X114666666Y-72185390D02*
X114619047Y-72233009D01*
X114619047Y-72233009D02*
X114523809Y-72280628D01*
X114523809Y-72280628D02*
X114142857Y-72280628D01*
X115095238Y-71852057D02*
X115142857Y-71804438D01*
X115142857Y-71804438D02*
X115238095Y-71756819D01*
X115238095Y-71756819D02*
X115476190Y-71756819D01*
X115476190Y-71756819D02*
X115571428Y-71804438D01*
X115571428Y-71804438D02*
X115619047Y-71852057D01*
X115619047Y-71852057D02*
X115666666Y-71947295D01*
X115666666Y-71947295D02*
X115666666Y-72042533D01*
X115666666Y-72042533D02*
X115619047Y-72185390D01*
X115619047Y-72185390D02*
X115047619Y-72756819D01*
X115047619Y-72756819D02*
X115666666Y-72756819D01*
X108054819Y-61833333D02*
X108769104Y-61833333D01*
X108769104Y-61833333D02*
X108911961Y-61880952D01*
X108911961Y-61880952D02*
X109007200Y-61976190D01*
X109007200Y-61976190D02*
X109054819Y-62119047D01*
X109054819Y-62119047D02*
X109054819Y-62214285D01*
X109054819Y-61357142D02*
X108054819Y-61357142D01*
X108054819Y-61357142D02*
X108054819Y-60976190D01*
X108054819Y-60976190D02*
X108102438Y-60880952D01*
X108102438Y-60880952D02*
X108150057Y-60833333D01*
X108150057Y-60833333D02*
X108245295Y-60785714D01*
X108245295Y-60785714D02*
X108388152Y-60785714D01*
X108388152Y-60785714D02*
X108483390Y-60833333D01*
X108483390Y-60833333D02*
X108531009Y-60880952D01*
X108531009Y-60880952D02*
X108578628Y-60976190D01*
X108578628Y-60976190D02*
X108578628Y-61357142D01*
X109054819Y-59833333D02*
X109054819Y-60404761D01*
X109054819Y-60119047D02*
X108054819Y-60119047D01*
X108054819Y-60119047D02*
X108197676Y-60214285D01*
X108197676Y-60214285D02*
X108292914Y-60309523D01*
X108292914Y-60309523D02*
X108340533Y-60404761D01*
X110234819Y-80019047D02*
X110234819Y-80495237D01*
X110234819Y-80495237D02*
X109234819Y-80495237D01*
X109711009Y-79685713D02*
X109711009Y-79352380D01*
X110234819Y-79209523D02*
X110234819Y-79685713D01*
X110234819Y-79685713D02*
X109234819Y-79685713D01*
X109234819Y-79685713D02*
X109234819Y-79209523D01*
X110234819Y-78780951D02*
X109234819Y-78780951D01*
X109234819Y-78780951D02*
X109234819Y-78542856D01*
X109234819Y-78542856D02*
X109282438Y-78399999D01*
X109282438Y-78399999D02*
X109377676Y-78304761D01*
X109377676Y-78304761D02*
X109472914Y-78257142D01*
X109472914Y-78257142D02*
X109663390Y-78209523D01*
X109663390Y-78209523D02*
X109806247Y-78209523D01*
X109806247Y-78209523D02*
X109996723Y-78257142D01*
X109996723Y-78257142D02*
X110091961Y-78304761D01*
X110091961Y-78304761D02*
X110187200Y-78399999D01*
X110187200Y-78399999D02*
X110234819Y-78542856D01*
X110234819Y-78542856D02*
X110234819Y-78780951D01*
X110234819Y-77257142D02*
X110234819Y-77828570D01*
X110234819Y-77542856D02*
X109234819Y-77542856D01*
X109234819Y-77542856D02*
X109377676Y-77638094D01*
X109377676Y-77638094D02*
X109472914Y-77733332D01*
X109472914Y-77733332D02*
X109520533Y-77828570D01*
X121604819Y-54583333D02*
X122319104Y-54583333D01*
X122319104Y-54583333D02*
X122461961Y-54630952D01*
X122461961Y-54630952D02*
X122557200Y-54726190D01*
X122557200Y-54726190D02*
X122604819Y-54869047D01*
X122604819Y-54869047D02*
X122604819Y-54964285D01*
X122604819Y-53583333D02*
X122604819Y-54154761D01*
X122604819Y-53869047D02*
X121604819Y-53869047D01*
X121604819Y-53869047D02*
X121747676Y-53964285D01*
X121747676Y-53964285D02*
X121842914Y-54059523D01*
X121842914Y-54059523D02*
X121890533Y-54154761D01*
X111604819Y-54583333D02*
X112319104Y-54583333D01*
X112319104Y-54583333D02*
X112461961Y-54630952D01*
X112461961Y-54630952D02*
X112557200Y-54726190D01*
X112557200Y-54726190D02*
X112604819Y-54869047D01*
X112604819Y-54869047D02*
X112604819Y-54964285D01*
X111700057Y-54154761D02*
X111652438Y-54107142D01*
X111652438Y-54107142D02*
X111604819Y-54011904D01*
X111604819Y-54011904D02*
X111604819Y-53773809D01*
X111604819Y-53773809D02*
X111652438Y-53678571D01*
X111652438Y-53678571D02*
X111700057Y-53630952D01*
X111700057Y-53630952D02*
X111795295Y-53583333D01*
X111795295Y-53583333D02*
X111890533Y-53583333D01*
X111890533Y-53583333D02*
X112033390Y-53630952D01*
X112033390Y-53630952D02*
X112604819Y-54202380D01*
X112604819Y-54202380D02*
X112604819Y-53583333D01*
X121238095Y-71756819D02*
X121809523Y-71756819D01*
X121523809Y-72756819D02*
X121523809Y-71756819D01*
X122142857Y-72756819D02*
X122142857Y-71756819D01*
X122142857Y-71756819D02*
X122523809Y-71756819D01*
X122523809Y-71756819D02*
X122619047Y-71804438D01*
X122619047Y-71804438D02*
X122666666Y-71852057D01*
X122666666Y-71852057D02*
X122714285Y-71947295D01*
X122714285Y-71947295D02*
X122714285Y-72090152D01*
X122714285Y-72090152D02*
X122666666Y-72185390D01*
X122666666Y-72185390D02*
X122619047Y-72233009D01*
X122619047Y-72233009D02*
X122523809Y-72280628D01*
X122523809Y-72280628D02*
X122142857Y-72280628D01*
X123666666Y-72756819D02*
X123095238Y-72756819D01*
X123380952Y-72756819D02*
X123380952Y-71756819D01*
X123380952Y-71756819D02*
X123285714Y-71899676D01*
X123285714Y-71899676D02*
X123190476Y-71994914D01*
X123190476Y-71994914D02*
X123095238Y-72042533D01*
X102733333Y-70854819D02*
X102400000Y-70378628D01*
X102161905Y-70854819D02*
X102161905Y-69854819D01*
X102161905Y-69854819D02*
X102542857Y-69854819D01*
X102542857Y-69854819D02*
X102638095Y-69902438D01*
X102638095Y-69902438D02*
X102685714Y-69950057D01*
X102685714Y-69950057D02*
X102733333Y-70045295D01*
X102733333Y-70045295D02*
X102733333Y-70188152D01*
X102733333Y-70188152D02*
X102685714Y-70283390D01*
X102685714Y-70283390D02*
X102638095Y-70331009D01*
X102638095Y-70331009D02*
X102542857Y-70378628D01*
X102542857Y-70378628D02*
X102161905Y-70378628D01*
X103638095Y-69854819D02*
X103161905Y-69854819D01*
X103161905Y-69854819D02*
X103114286Y-70331009D01*
X103114286Y-70331009D02*
X103161905Y-70283390D01*
X103161905Y-70283390D02*
X103257143Y-70235771D01*
X103257143Y-70235771D02*
X103495238Y-70235771D01*
X103495238Y-70235771D02*
X103590476Y-70283390D01*
X103590476Y-70283390D02*
X103638095Y-70331009D01*
X103638095Y-70331009D02*
X103685714Y-70426247D01*
X103685714Y-70426247D02*
X103685714Y-70664342D01*
X103685714Y-70664342D02*
X103638095Y-70759580D01*
X103638095Y-70759580D02*
X103590476Y-70807200D01*
X103590476Y-70807200D02*
X103495238Y-70854819D01*
X103495238Y-70854819D02*
X103257143Y-70854819D01*
X103257143Y-70854819D02*
X103161905Y-70807200D01*
X103161905Y-70807200D02*
X103114286Y-70759580D01*
X107728571Y-70650057D02*
X107633333Y-70602438D01*
X107633333Y-70602438D02*
X107538095Y-70507200D01*
X107538095Y-70507200D02*
X107395238Y-70364342D01*
X107395238Y-70364342D02*
X107300000Y-70316723D01*
X107300000Y-70316723D02*
X107204762Y-70316723D01*
X107252381Y-70554819D02*
X107157143Y-70507200D01*
X107157143Y-70507200D02*
X107061905Y-70411961D01*
X107061905Y-70411961D02*
X107014286Y-70221485D01*
X107014286Y-70221485D02*
X107014286Y-69888152D01*
X107014286Y-69888152D02*
X107061905Y-69697676D01*
X107061905Y-69697676D02*
X107157143Y-69602438D01*
X107157143Y-69602438D02*
X107252381Y-69554819D01*
X107252381Y-69554819D02*
X107442857Y-69554819D01*
X107442857Y-69554819D02*
X107538095Y-69602438D01*
X107538095Y-69602438D02*
X107633333Y-69697676D01*
X107633333Y-69697676D02*
X107680952Y-69888152D01*
X107680952Y-69888152D02*
X107680952Y-70221485D01*
X107680952Y-70221485D02*
X107633333Y-70411961D01*
X107633333Y-70411961D02*
X107538095Y-70507200D01*
X107538095Y-70507200D02*
X107442857Y-70554819D01*
X107442857Y-70554819D02*
X107252381Y-70554819D01*
X108633333Y-70554819D02*
X108061905Y-70554819D01*
X108347619Y-70554819D02*
X108347619Y-69554819D01*
X108347619Y-69554819D02*
X108252381Y-69697676D01*
X108252381Y-69697676D02*
X108157143Y-69792914D01*
X108157143Y-69792914D02*
X108061905Y-69840533D01*
X109395238Y-70031009D02*
X109538095Y-70078628D01*
X109538095Y-70078628D02*
X109585714Y-70126247D01*
X109585714Y-70126247D02*
X109633333Y-70221485D01*
X109633333Y-70221485D02*
X109633333Y-70364342D01*
X109633333Y-70364342D02*
X109585714Y-70459580D01*
X109585714Y-70459580D02*
X109538095Y-70507200D01*
X109538095Y-70507200D02*
X109442857Y-70554819D01*
X109442857Y-70554819D02*
X109061905Y-70554819D01*
X109061905Y-70554819D02*
X109061905Y-69554819D01*
X109061905Y-69554819D02*
X109395238Y-69554819D01*
X109395238Y-69554819D02*
X109490476Y-69602438D01*
X109490476Y-69602438D02*
X109538095Y-69650057D01*
X109538095Y-69650057D02*
X109585714Y-69745295D01*
X109585714Y-69745295D02*
X109585714Y-69840533D01*
X109585714Y-69840533D02*
X109538095Y-69935771D01*
X109538095Y-69935771D02*
X109490476Y-69983390D01*
X109490476Y-69983390D02*
X109395238Y-70031009D01*
X109395238Y-70031009D02*
X109061905Y-70031009D01*
X110585714Y-70554819D02*
X110014286Y-70554819D01*
X110300000Y-70554819D02*
X110300000Y-69554819D01*
X110300000Y-69554819D02*
X110204762Y-69697676D01*
X110204762Y-69697676D02*
X110109524Y-69792914D01*
X110109524Y-69792914D02*
X110014286Y-69840533D01*
X117238095Y-71756819D02*
X117809523Y-71756819D01*
X117523809Y-72756819D02*
X117523809Y-71756819D01*
X118142857Y-72756819D02*
X118142857Y-71756819D01*
X118142857Y-71756819D02*
X118523809Y-71756819D01*
X118523809Y-71756819D02*
X118619047Y-71804438D01*
X118619047Y-71804438D02*
X118666666Y-71852057D01*
X118666666Y-71852057D02*
X118714285Y-71947295D01*
X118714285Y-71947295D02*
X118714285Y-72090152D01*
X118714285Y-72090152D02*
X118666666Y-72185390D01*
X118666666Y-72185390D02*
X118619047Y-72233009D01*
X118619047Y-72233009D02*
X118523809Y-72280628D01*
X118523809Y-72280628D02*
X118142857Y-72280628D01*
X119571428Y-72090152D02*
X119571428Y-72756819D01*
X119333333Y-71709200D02*
X119095238Y-72423485D01*
X119095238Y-72423485D02*
X119714285Y-72423485D01*
%TO.C,SW1*%
D13*
X123620000Y-50420000D02*
X125000000Y-50420000D01*
X123620000Y-51800000D02*
X123620000Y-50420000D01*
X123620000Y-53070000D02*
X123620000Y-58260000D01*
X123620000Y-53070000D02*
X126380000Y-53070000D01*
X123620000Y-58260000D02*
X126380000Y-58260000D01*
X126380000Y-53070000D02*
X126380000Y-58260000D01*
%TO.C,PIR2*%
X111080000Y-62280000D02*
X111080000Y-60900000D01*
X112460000Y-62280000D02*
X111080000Y-62280000D01*
X113730000Y-62280000D02*
X118920000Y-62280000D01*
X113730000Y-62280000D02*
X113730000Y-59520000D01*
X118920000Y-62280000D02*
X118920000Y-59520000D01*
X113730000Y-59520000D02*
X118920000Y-59520000D01*
%TO.C,R4*%
D11*
X107220000Y-65940000D02*
X106260000Y-65940000D01*
X106260000Y-65940000D02*
X106260000Y-67260000D01*
X106260000Y-67260000D02*
X107220000Y-67260000D01*
X108080000Y-65940000D02*
X109040000Y-65940000D01*
X109040000Y-65940000D02*
X109040000Y-67260000D01*
X109040000Y-67260000D02*
X108080000Y-67260000D01*
%TO.C,R2*%
X117280000Y-67680000D02*
X117280000Y-68960000D01*
X117280000Y-68960000D02*
X119120000Y-68960000D01*
X119120000Y-68960000D02*
X119120000Y-67680000D01*
X117280000Y-66720000D02*
X117280000Y-65440000D01*
X117280000Y-65440000D02*
X119120000Y-65440000D01*
X119120000Y-65440000D02*
X119120000Y-66720000D01*
%TO.C,TP3*%
D13*
X109400000Y-73100000D02*
X111800000Y-73100000D01*
X109400000Y-75500000D02*
X109400000Y-73100000D01*
X111800000Y-73100000D02*
X111800000Y-75500000D01*
X111800000Y-75500000D02*
X109400000Y-75500000D01*
%TO.C,R3*%
D11*
X111780000Y-65820000D02*
X113060000Y-65820000D01*
X113060000Y-65820000D02*
X113060000Y-63980000D01*
X113060000Y-63980000D02*
X111780000Y-63980000D01*
X110820000Y-65820000D02*
X109540000Y-65820000D01*
X109540000Y-65820000D02*
X109540000Y-63980000D01*
X109540000Y-63980000D02*
X110820000Y-63980000D01*
%TO.C,Q1A1*%
X115730000Y-65720000D02*
X114270000Y-65720000D01*
X114270000Y-65720000D02*
X114270000Y-66760000D01*
X115730000Y-68780000D02*
X114270000Y-68780000D01*
X114270000Y-68780000D02*
X114270000Y-67740000D01*
X115730000Y-66790000D02*
X115730000Y-67710000D01*
D14*
X116230000Y-68700000D02*
G75*
G02*
X116170000Y-68700000I-30000J0D01*
G01*
X116170000Y-68700000D02*
G75*
G02*
X116230000Y-68700000I30000J0D01*
G01*
%TO.C,TP2*%
D13*
X113300000Y-73100000D02*
X115700000Y-73100000D01*
X113300000Y-75500000D02*
X113300000Y-73100000D01*
X115700000Y-73100000D02*
X115700000Y-75500000D01*
X115700000Y-75500000D02*
X113300000Y-75500000D01*
%TO.C,JP1*%
X106800000Y-62400000D02*
X106200000Y-62400000D01*
X105500000Y-61700000D02*
X105500000Y-60300000D01*
X107500000Y-60300000D02*
X107500000Y-61700000D01*
X106200000Y-59600000D02*
X106800000Y-59600000D01*
X106200000Y-62400000D02*
G75*
G02*
X105500000Y-61700000I-1J699999D01*
G01*
X107500000Y-61700000D02*
G75*
G02*
X106800000Y-62400000I-699999J-1D01*
G01*
X105500000Y-60300000D02*
G75*
G02*
X106200000Y-59600000I700000J0D01*
G01*
X106800000Y-59600000D02*
G75*
G02*
X107500000Y-60300000I0J-700000D01*
G01*
%TO.C,LED1*%
X110780000Y-80280000D02*
X110780000Y-78900000D01*
X112160000Y-80280000D02*
X110780000Y-80280000D01*
X113430000Y-80280000D02*
X118620000Y-80280000D01*
X113430000Y-80280000D02*
X113430000Y-77520000D01*
X118620000Y-80280000D02*
X118620000Y-77520000D01*
X113430000Y-77520000D02*
X118620000Y-77520000D01*
%TO.C,J1*%
X121350000Y-50150000D02*
X120100000Y-50150000D01*
X118800000Y-50450000D02*
X118800000Y-51200000D01*
X118800000Y-51200000D02*
X115850000Y-51200000D01*
X115850000Y-51200000D02*
X115850000Y-54250000D01*
X121350000Y-51400000D02*
X121350000Y-50150000D01*
X118800000Y-57300000D02*
X115850000Y-57300000D01*
X115850000Y-57300000D02*
X115850000Y-54250000D01*
X118800000Y-58050000D02*
X118800000Y-57300000D01*
X115090000Y-50440000D02*
X121060000Y-50440000D01*
X121060000Y-58060000D01*
X115090000Y-58060000D01*
X115090000Y-50440000D01*
X120300000Y-50450000D02*
X121050000Y-50450000D01*
X121050000Y-52250000D01*
X120300000Y-52250000D01*
X120300000Y-50450000D01*
X120300000Y-53750000D02*
X121050000Y-53750000D01*
X121050000Y-54750000D01*
X120300000Y-54750000D01*
X120300000Y-53750000D01*
X120300000Y-56250000D02*
X121050000Y-56250000D01*
X121050000Y-58050000D01*
X120300000Y-58050000D01*
X120300000Y-56250000D01*
%TO.C,J2*%
X111350000Y-50150000D02*
X110100000Y-50150000D01*
X108800000Y-50450000D02*
X108800000Y-51200000D01*
X108800000Y-51200000D02*
X105850000Y-51200000D01*
X105850000Y-51200000D02*
X105850000Y-54250000D01*
X111350000Y-51400000D02*
X111350000Y-50150000D01*
X108800000Y-57300000D02*
X105850000Y-57300000D01*
X105850000Y-57300000D02*
X105850000Y-54250000D01*
X108800000Y-58050000D02*
X108800000Y-57300000D01*
X105090000Y-50440000D02*
X111060000Y-50440000D01*
X111060000Y-58060000D01*
X105090000Y-58060000D01*
X105090000Y-50440000D01*
X110300000Y-50450000D02*
X111050000Y-50450000D01*
X111050000Y-52250000D01*
X110300000Y-52250000D01*
X110300000Y-50450000D01*
X110300000Y-53750000D02*
X111050000Y-53750000D01*
X111050000Y-54750000D01*
X110300000Y-54750000D01*
X110300000Y-53750000D01*
X110300000Y-56250000D02*
X111050000Y-56250000D01*
X111050000Y-58050000D01*
X110300000Y-58050000D01*
X110300000Y-56250000D01*
%TO.C,TP1*%
X121300000Y-73100000D02*
X123700000Y-73100000D01*
X121300000Y-75500000D02*
X121300000Y-73100000D01*
X123700000Y-73100000D02*
X123700000Y-75500000D01*
X123700000Y-75500000D02*
X121300000Y-75500000D01*
%TO.C,R5*%
D11*
X101880000Y-67980000D02*
X101880000Y-69260000D01*
X101880000Y-69260000D02*
X103720000Y-69260000D01*
X103720000Y-69260000D02*
X103720000Y-67980000D01*
X101880000Y-67020000D02*
X101880000Y-65740000D01*
X101880000Y-65740000D02*
X103720000Y-65740000D01*
X103720000Y-65740000D02*
X103720000Y-67020000D01*
%TO.C,Q1B1*%
X109820000Y-67540000D02*
X109820000Y-69260000D01*
X109820000Y-69260000D02*
X110860000Y-69260000D01*
X112880000Y-67540000D02*
X112880000Y-69260000D01*
X112880000Y-69260000D02*
X111840000Y-69260000D01*
X110890000Y-67540000D02*
X111810000Y-67540000D01*
D14*
X112880000Y-66980000D02*
G75*
G02*
X112820000Y-66980000I-30000J0D01*
G01*
X112820000Y-66980000D02*
G75*
G02*
X112880000Y-66980000I30000J0D01*
G01*
%TO.C,TP4*%
D13*
X117300000Y-73100000D02*
X119700000Y-73100000D01*
X117300000Y-75500000D02*
X117300000Y-73100000D01*
X119700000Y-73100000D02*
X119700000Y-75500000D01*
X119700000Y-75500000D02*
X117300000Y-75500000D01*
D15*
%TO.C,G\u002A\u002A\u002A*%
G36*
X104657552Y-75406678D02*
G01*
X104777915Y-75407296D01*
X105370179Y-75410621D01*
X105330219Y-75445130D01*
X105295356Y-75473055D01*
X105247970Y-75508090D01*
X105193774Y-75546292D01*
X105138484Y-75583717D01*
X105087816Y-75616423D01*
X105047483Y-75640466D01*
X105045701Y-75641446D01*
X105025289Y-75652219D01*
X105011271Y-75660188D01*
X105005711Y-75666438D01*
X105010671Y-75672053D01*
X105028216Y-75678118D01*
X105060408Y-75685715D01*
X105109311Y-75695929D01*
X105175173Y-75709468D01*
X105281812Y-75733816D01*
X105402650Y-75765244D01*
X105532417Y-75802124D01*
X105665843Y-75842833D01*
X105797658Y-75885744D01*
X105922592Y-75929233D01*
X106035373Y-75971675D01*
X106068299Y-75984877D01*
X106131896Y-76010835D01*
X106089631Y-76022505D01*
X106064673Y-76028972D01*
X106023661Y-76039128D01*
X105971311Y-76051824D01*
X105912340Y-76065911D01*
X105879361Y-76073702D01*
X105823620Y-76087329D01*
X105776691Y-76099790D01*
X105741823Y-76110140D01*
X105722266Y-76117433D01*
X105719406Y-76120199D01*
X105732188Y-76126207D01*
X105760864Y-76137290D01*
X105801079Y-76151823D01*
X105844752Y-76166923D01*
X106008639Y-76227417D01*
X106177855Y-76299004D01*
X106345305Y-76378369D01*
X106503894Y-76462194D01*
X106612939Y-76526108D01*
X106658392Y-76554534D01*
X106697096Y-76579558D01*
X106725486Y-76598811D01*
X106739992Y-76609927D01*
X106740975Y-76611061D01*
X106732650Y-76614119D01*
X106704880Y-76616699D01*
X106659543Y-76618727D01*
X106598519Y-76620130D01*
X106523686Y-76620836D01*
X106488391Y-76620907D01*
X106229721Y-76620907D01*
X106405121Y-76736035D01*
X106624853Y-76885285D01*
X106826746Y-77033095D01*
X107013940Y-77181863D01*
X107189574Y-77333988D01*
X107198013Y-77341638D01*
X107242325Y-77381882D01*
X107283775Y-77419501D01*
X107318469Y-77450963D01*
X107342513Y-77472737D01*
X107347299Y-77477060D01*
X107380268Y-77506807D01*
X107332284Y-77499868D01*
X107308163Y-77495284D01*
X107267046Y-77486266D01*
X107212596Y-77473671D01*
X107148478Y-77458352D01*
X107078355Y-77441166D01*
X107042344Y-77432180D01*
X106974529Y-77415464D01*
X106914525Y-77401271D01*
X106865099Y-77390206D01*
X106829018Y-77382873D01*
X106809050Y-77379879D01*
X106806004Y-77380516D01*
X106815788Y-77390486D01*
X106838651Y-77411422D01*
X106871419Y-77440483D01*
X106910919Y-77474827D01*
X106920881Y-77483397D01*
X106989875Y-77540764D01*
X107072943Y-77606789D01*
X107166218Y-77678599D01*
X107265834Y-77753320D01*
X107367925Y-77828080D01*
X107468624Y-77900005D01*
X107564064Y-77966221D01*
X107631501Y-78011486D01*
X107688572Y-78049182D01*
X107740651Y-78083719D01*
X107784712Y-78113079D01*
X107817728Y-78135244D01*
X107836675Y-78148196D01*
X107838791Y-78149709D01*
X107846002Y-78156228D01*
X107848068Y-78163926D01*
X107843190Y-78175210D01*
X107829570Y-78192486D01*
X107805409Y-78218162D01*
X107768909Y-78254644D01*
X107736814Y-78286176D01*
X107673458Y-78345682D01*
X107610944Y-78398409D01*
X107546499Y-78445887D01*
X107477352Y-78489647D01*
X107400730Y-78531218D01*
X107313860Y-78572131D01*
X107213972Y-78613915D01*
X107098293Y-78658101D01*
X106996389Y-78694838D01*
X106867695Y-78742439D01*
X106751062Y-78789814D01*
X106648684Y-78835971D01*
X106562755Y-78879921D01*
X106495469Y-78920671D01*
X106493724Y-78921860D01*
X106375692Y-79014490D01*
X106274732Y-79119578D01*
X106190172Y-79237984D01*
X106121339Y-79370563D01*
X106099275Y-79424553D01*
X106032636Y-79596736D01*
X105970769Y-79750666D01*
X105912509Y-79888572D01*
X105856690Y-80012684D01*
X105802147Y-80125232D01*
X105747714Y-80228445D01*
X105692227Y-80324554D01*
X105634519Y-80415789D01*
X105573425Y-80504378D01*
X105507781Y-80592552D01*
X105451601Y-80663800D01*
X105365422Y-80764574D01*
X105266219Y-80870117D01*
X105158776Y-80975897D01*
X105047880Y-81077381D01*
X104938317Y-81170034D01*
X104834872Y-81249323D01*
X104829163Y-81253415D01*
X104773272Y-81293305D01*
X104761743Y-81263046D01*
X104747820Y-81219237D01*
X104733014Y-81160359D01*
X104718640Y-81092557D01*
X104706016Y-81021977D01*
X104697517Y-80963367D01*
X104684425Y-80859572D01*
X104648469Y-80966205D01*
X104623401Y-81049795D01*
X104600600Y-81143480D01*
X104580723Y-81242795D01*
X104564429Y-81343275D01*
X104552375Y-81440456D01*
X104545218Y-81529874D01*
X104543618Y-81607063D01*
X104546737Y-81656654D01*
X104547607Y-81682230D01*
X104543842Y-81695919D01*
X104542163Y-81696641D01*
X104532336Y-81688342D01*
X104514483Y-81666289D01*
X104491982Y-81634751D01*
X104485217Y-81624664D01*
X104464269Y-81590617D01*
X104436702Y-81542360D01*
X104405244Y-81484849D01*
X104372622Y-81423045D01*
X104350668Y-81380104D01*
X104267998Y-81199070D01*
X104199198Y-81010817D01*
X104143023Y-80811492D01*
X104098423Y-80598321D01*
X104084228Y-80518346D01*
X104066025Y-80598321D01*
X104037146Y-80740775D01*
X104015866Y-80883543D01*
X104005687Y-80976868D01*
X103999982Y-81034486D01*
X103994042Y-81091411D01*
X103988648Y-81140313D01*
X103985241Y-81168808D01*
X103977073Y-81232787D01*
X103907166Y-81088833D01*
X103878019Y-81027030D01*
X103848423Y-80961214D01*
X103821592Y-80898716D01*
X103800739Y-80846868D01*
X103798456Y-80840813D01*
X103741876Y-80665920D01*
X103696516Y-80476280D01*
X103662945Y-80275625D01*
X103641734Y-80067685D01*
X103633451Y-79856191D01*
X103634030Y-79763901D01*
X103635088Y-79706780D01*
X103635794Y-79657993D01*
X103636112Y-79621137D01*
X103636005Y-79599806D01*
X103635715Y-79595954D01*
X103629998Y-79604520D01*
X103616149Y-79627439D01*
X103596652Y-79660568D01*
X103586172Y-79678610D01*
X103564906Y-79713703D01*
X103536500Y-79758251D01*
X103503578Y-79808391D01*
X103468763Y-79860259D01*
X103434678Y-79909988D01*
X103403947Y-79953716D01*
X103379193Y-79987578D01*
X103363040Y-80007709D01*
X103362021Y-80008795D01*
X103358319Y-80007702D01*
X103355364Y-79994855D01*
X103353091Y-79968657D01*
X103351437Y-79927509D01*
X103350336Y-79869813D01*
X103349725Y-79793972D01*
X103349538Y-79699560D01*
X103349047Y-79584435D01*
X103347340Y-79486735D01*
X103344068Y-79402575D01*
X103338881Y-79328072D01*
X103331428Y-79259340D01*
X103321361Y-79192496D01*
X103308329Y-79123654D01*
X103291982Y-79048932D01*
X103290265Y-79041478D01*
X103268641Y-78957578D01*
X103241914Y-78868878D01*
X103212263Y-78781767D01*
X103181868Y-78702631D01*
X103167038Y-78669462D01*
X103854332Y-78669462D01*
X103856782Y-78690589D01*
X103861982Y-78713576D01*
X103884011Y-78814090D01*
X103902802Y-78932102D01*
X103918147Y-79064004D01*
X103929838Y-79206184D01*
X103937669Y-79355032D01*
X103941431Y-79506937D01*
X103940917Y-79658289D01*
X103935919Y-79805477D01*
X103930077Y-79898418D01*
X103926345Y-79952192D01*
X103923810Y-79997902D01*
X103922645Y-80031574D01*
X103923022Y-80049234D01*
X103923493Y-80050851D01*
X103928507Y-80044693D01*
X103939420Y-80021578D01*
X103956449Y-79980957D01*
X103979814Y-79922286D01*
X104009734Y-79845015D01*
X104046428Y-79748599D01*
X104077544Y-79666007D01*
X104137329Y-79506783D01*
X104150638Y-79548710D01*
X104160545Y-79580753D01*
X104175454Y-79630069D01*
X104194419Y-79693447D01*
X104216497Y-79767682D01*
X104240741Y-79849563D01*
X104266206Y-79935883D01*
X104291948Y-80023433D01*
X104317021Y-80109005D01*
X104340480Y-80189391D01*
X104361381Y-80261381D01*
X104378777Y-80321768D01*
X104390278Y-80362201D01*
X104409247Y-80427451D01*
X104423897Y-80472932D01*
X104434616Y-80499674D01*
X104441792Y-80508709D01*
X104444520Y-80506156D01*
X104449177Y-80490100D01*
X104457522Y-80456624D01*
X104468750Y-80409152D01*
X104482054Y-80351113D01*
X104496627Y-80285931D01*
X104500630Y-80267758D01*
X104561915Y-79958545D01*
X104607570Y-79659902D01*
X104618596Y-79569311D01*
X104624968Y-79514688D01*
X104630726Y-79467460D01*
X104635345Y-79431778D01*
X104638301Y-79411791D01*
X104638817Y-79409362D01*
X104643046Y-79414587D01*
X104652444Y-79437450D01*
X104666109Y-79475146D01*
X104683143Y-79524866D01*
X104702644Y-79583805D01*
X104723713Y-79649156D01*
X104745450Y-79718113D01*
X104766955Y-79787867D01*
X104787327Y-79855614D01*
X104805666Y-79918546D01*
X104821073Y-79973857D01*
X104826863Y-79995720D01*
X104842913Y-80061122D01*
X104859305Y-80134086D01*
X104875283Y-80210584D01*
X104890092Y-80286587D01*
X104902976Y-80358066D01*
X104913178Y-80420992D01*
X104919944Y-80471338D01*
X104922517Y-80505073D01*
X104922522Y-80505670D01*
X104924813Y-80538827D01*
X104929415Y-80564881D01*
X104933369Y-80576772D01*
X104937817Y-80580615D01*
X104943840Y-80574235D01*
X104952516Y-80555460D01*
X104964925Y-80522116D01*
X104982147Y-80472028D01*
X104995976Y-80430827D01*
X105039060Y-80279498D01*
X105072836Y-80113151D01*
X105096858Y-79936163D01*
X105110678Y-79752916D01*
X105113851Y-79567788D01*
X105105930Y-79385159D01*
X105104470Y-79366708D01*
X105101056Y-79321542D01*
X105098904Y-79285104D01*
X105098254Y-79262087D01*
X105098778Y-79256510D01*
X105105048Y-79263662D01*
X105119747Y-79285776D01*
X105140629Y-79319349D01*
X105163650Y-79357812D01*
X105218371Y-79457184D01*
X105274064Y-79569947D01*
X105327338Y-79688613D01*
X105374803Y-79805698D01*
X105406908Y-79894968D01*
X105424238Y-79946083D01*
X105439384Y-79989543D01*
X105450984Y-80021535D01*
X105457679Y-80038243D01*
X105458534Y-80039712D01*
X105460798Y-80031529D01*
X105463675Y-80005779D01*
X105466835Y-79966199D01*
X105469944Y-79916529D01*
X105470680Y-79902861D01*
X105471457Y-79689957D01*
X105452096Y-79473008D01*
X105412963Y-79253823D01*
X105354426Y-79034217D01*
X105276852Y-78816000D01*
X105226379Y-78697616D01*
X105206288Y-78651751D01*
X105191230Y-78614540D01*
X105182451Y-78589303D01*
X105181200Y-78579362D01*
X105182016Y-78579532D01*
X105229183Y-78609070D01*
X105288108Y-78648838D01*
X105354137Y-78695450D01*
X105422618Y-78745515D01*
X105488897Y-78795646D01*
X105548321Y-78842454D01*
X105586167Y-78873833D01*
X105615139Y-78897481D01*
X105636728Y-78912932D01*
X105647089Y-78917495D01*
X105647481Y-78916753D01*
X105642555Y-78901880D01*
X105629010Y-78871956D01*
X105608695Y-78830513D01*
X105583459Y-78781080D01*
X105555151Y-78727187D01*
X105525621Y-78672365D01*
X105496718Y-78620144D01*
X105470291Y-78574054D01*
X105452406Y-78544340D01*
X105384333Y-78440829D01*
X105308370Y-78335814D01*
X105227946Y-78233492D01*
X105146489Y-78138061D01*
X105067431Y-78053719D01*
X104997422Y-77987471D01*
X104928512Y-77927162D01*
X104967107Y-77996473D01*
X104980766Y-78022720D01*
X104999525Y-78061089D01*
X105021614Y-78107694D01*
X105045262Y-78158650D01*
X105068701Y-78210070D01*
X105090159Y-78258070D01*
X105107868Y-78298764D01*
X105120056Y-78328266D01*
X105124955Y-78342690D01*
X105124979Y-78343046D01*
X105116894Y-78339514D01*
X105095632Y-78326740D01*
X105065680Y-78307428D01*
X105063665Y-78306094D01*
X105024457Y-78281496D01*
X104974141Y-78252023D01*
X104915774Y-78219262D01*
X104852415Y-78184797D01*
X104787123Y-78150212D01*
X104722954Y-78117093D01*
X104662968Y-78087023D01*
X104610222Y-78061588D01*
X104567775Y-78042372D01*
X104538685Y-78030960D01*
X104527888Y-78028463D01*
X104530121Y-78036679D01*
X104542402Y-78059027D01*
X104562704Y-78092059D01*
X104588014Y-78130847D01*
X104677623Y-78282614D01*
X104753747Y-78448782D01*
X104815367Y-78626448D01*
X104861463Y-78812710D01*
X104889167Y-78988161D01*
X104894341Y-79037028D01*
X104899230Y-79090722D01*
X104903580Y-79145333D01*
X104907135Y-79196949D01*
X104909643Y-79241659D01*
X104910848Y-79275555D01*
X104910496Y-79294723D01*
X104909277Y-79297397D01*
X104902612Y-79286884D01*
X104887056Y-79260959D01*
X104864408Y-79222665D01*
X104836469Y-79175042D01*
X104808111Y-79126418D01*
X104736489Y-79006689D01*
X104668489Y-78900677D01*
X104599951Y-78802245D01*
X104526715Y-78705255D01*
X104498255Y-78669330D01*
X104462436Y-78625568D01*
X104422377Y-78578182D01*
X104380443Y-78529793D01*
X104339000Y-78483023D01*
X104300414Y-78440493D01*
X104267052Y-78404823D01*
X104241279Y-78378635D01*
X104225462Y-78364550D01*
X104221728Y-78363004D01*
X104223247Y-78374294D01*
X104231525Y-78399442D01*
X104243482Y-78429848D01*
X104297908Y-78582704D01*
X104339924Y-78749891D01*
X104369042Y-78928056D01*
X104384774Y-79113846D01*
X104386633Y-79303908D01*
X104382929Y-79388035D01*
X104373216Y-79547985D01*
X104275927Y-79356045D01*
X104240505Y-79287171D01*
X104202675Y-79215332D01*
X104165527Y-79146283D01*
X104132152Y-79085781D01*
X104109363Y-79045894D01*
X104080559Y-78997860D01*
X104047203Y-78944041D01*
X104011323Y-78887510D01*
X103974944Y-78831340D01*
X103940094Y-78778605D01*
X103908798Y-78732378D01*
X103883083Y-78695732D01*
X103864975Y-78671741D01*
X103857416Y-78663778D01*
X103854332Y-78669462D01*
X103167038Y-78669462D01*
X103152909Y-78637861D01*
X103151833Y-78635704D01*
X103084791Y-78517108D01*
X103004481Y-78400707D01*
X102913376Y-78288762D01*
X102813953Y-78183536D01*
X102708685Y-78087290D01*
X102600049Y-78002287D01*
X102490518Y-77930789D01*
X102382567Y-77875058D01*
X102278671Y-77837356D01*
X102278308Y-77837255D01*
X102213149Y-77822313D01*
X102128321Y-77807812D01*
X102025479Y-77793918D01*
X101906281Y-77780801D01*
X101772382Y-77768629D01*
X101625438Y-77757570D01*
X101467105Y-77747792D01*
X101328374Y-77740777D01*
X101157509Y-77735747D01*
X100991920Y-77736324D01*
X100833775Y-77742289D01*
X100685240Y-77753425D01*
X100548482Y-77769514D01*
X100425670Y-77790339D01*
X100318969Y-77815682D01*
X100230548Y-77845327D01*
X100213124Y-77852686D01*
X100154066Y-77878805D01*
X100161498Y-77833672D01*
X100196955Y-77676574D01*
X104812250Y-77676574D01*
X104917964Y-77743708D01*
X104987945Y-77789203D01*
X105071881Y-77845514D01*
X105166777Y-77910513D01*
X105269638Y-77982071D01*
X105377470Y-78058060D01*
X105487279Y-78136351D01*
X105596069Y-78214815D01*
X105700848Y-78291323D01*
X105798620Y-78363748D01*
X105886390Y-78429960D01*
X105924171Y-78458974D01*
X105969657Y-78493973D01*
X106008923Y-78523845D01*
X106039022Y-78546377D01*
X106057007Y-78559352D01*
X106060757Y-78561629D01*
X106059815Y-78554369D01*
X106056588Y-78548300D01*
X105933560Y-78361203D01*
X105791639Y-78177727D01*
X105629656Y-77996371D01*
X105615854Y-77981969D01*
X105524853Y-77887490D01*
X105572838Y-77894756D01*
X105682516Y-77915624D01*
X105804651Y-77946246D01*
X105933777Y-77984823D01*
X106064428Y-78029552D01*
X106191138Y-78078630D01*
X106308441Y-78130255D01*
X106352922Y-78151929D01*
X106386820Y-78168031D01*
X106410410Y-78177326D01*
X106420120Y-78178494D01*
X106419358Y-78176444D01*
X106408889Y-78162689D01*
X106388437Y-78135600D01*
X106360811Y-78098904D01*
X106328823Y-78056331D01*
X106323913Y-78049790D01*
X106214225Y-77911840D01*
X106091137Y-77771433D01*
X105960623Y-77635026D01*
X105828658Y-77509076D01*
X105798936Y-77482448D01*
X105742456Y-77432497D01*
X105782941Y-77438017D01*
X105862367Y-77450509D01*
X105951704Y-77467263D01*
X106041979Y-77486431D01*
X106124220Y-77506168D01*
X106157504Y-77515103D01*
X106201620Y-77526916D01*
X106236610Y-77535190D01*
X106258439Y-77539042D01*
X106263703Y-77538319D01*
X106253700Y-77526084D01*
X106230354Y-77502608D01*
X106196544Y-77470498D01*
X106155148Y-77432358D01*
X106109044Y-77390794D01*
X106061110Y-77348412D01*
X106014226Y-77307818D01*
X105971268Y-77271617D01*
X105949151Y-77253552D01*
X105832883Y-77165492D01*
X105706918Y-77079822D01*
X105575936Y-76999270D01*
X105444614Y-76926563D01*
X105317632Y-76864426D01*
X105199667Y-76815587D01*
X105194290Y-76813616D01*
X105146646Y-76797362D01*
X105090519Y-76779921D01*
X105030426Y-76762505D01*
X104970882Y-76746326D01*
X104916402Y-76732595D01*
X104871502Y-76722524D01*
X104840697Y-76717323D01*
X104833712Y-76716876D01*
X104834308Y-76721791D01*
X104851118Y-76735419D01*
X104881733Y-76756084D01*
X104923740Y-76782111D01*
X104949480Y-76797321D01*
X105117290Y-76902476D01*
X105286802Y-77022893D01*
X105451848Y-77154011D01*
X105562174Y-77250403D01*
X105610159Y-77294091D01*
X105551511Y-77288284D01*
X105522616Y-77286174D01*
X105476783Y-77283728D01*
X105418397Y-77281139D01*
X105351841Y-77278600D01*
X105281498Y-77276303D01*
X105274265Y-77276089D01*
X105197876Y-77273918D01*
X105141413Y-77272864D01*
X105103481Y-77273499D01*
X105082686Y-77276398D01*
X105077636Y-77282133D01*
X105086935Y-77291279D01*
X105109189Y-77304408D01*
X105143005Y-77322095D01*
X105151637Y-77326541D01*
X105210103Y-77358188D01*
X105280225Y-77398513D01*
X105356190Y-77443962D01*
X105432183Y-77490984D01*
X105502390Y-77536026D01*
X105560996Y-77575535D01*
X105572838Y-77583905D01*
X105619824Y-77618214D01*
X105667047Y-77653895D01*
X105711546Y-77688567D01*
X105750361Y-77719851D01*
X105780532Y-77745364D01*
X105799099Y-77762728D01*
X105803479Y-77769386D01*
X105792342Y-77768675D01*
X105764000Y-77764357D01*
X105722151Y-77757060D01*
X105670491Y-77747417D01*
X105641055Y-77741699D01*
X105417607Y-77704613D01*
X105201444Y-77683130D01*
X104996906Y-77676574D01*
X104812250Y-77676574D01*
X100196955Y-77676574D01*
X100199639Y-77664681D01*
X100223509Y-77595726D01*
X100497103Y-77595726D01*
X100506017Y-77592754D01*
X100530172Y-77582102D01*
X100565685Y-77565533D01*
X100601070Y-77548518D01*
X100658899Y-77521630D01*
X100724227Y-77493181D01*
X100786054Y-77467904D01*
X100807481Y-77459689D01*
X100993320Y-77398296D01*
X101193341Y-77346873D01*
X101404432Y-77305533D01*
X101623482Y-77274392D01*
X101847382Y-77253563D01*
X102073019Y-77243161D01*
X102297285Y-77243300D01*
X102517068Y-77254095D01*
X102729257Y-77275660D01*
X102930742Y-77308109D01*
X103118412Y-77351557D01*
X103189165Y-77372120D01*
X103228350Y-77383752D01*
X103258851Y-77391868D01*
X103275711Y-77395183D01*
X103277464Y-77394982D01*
X103272811Y-77385601D01*
X103254215Y-77365754D01*
X103224668Y-77337937D01*
X103187164Y-77304645D01*
X103144695Y-77268375D01*
X103100254Y-77231623D01*
X103056833Y-77196884D01*
X103017425Y-77166654D01*
X102985022Y-77143430D01*
X102962617Y-77129706D01*
X102956480Y-77127269D01*
X102911244Y-77119472D01*
X102847984Y-77112439D01*
X102769990Y-77106263D01*
X102680554Y-77101039D01*
X102582966Y-77096862D01*
X102480519Y-77093826D01*
X102376503Y-77092025D01*
X102274211Y-77091555D01*
X102176932Y-77092510D01*
X102087958Y-77094985D01*
X102010581Y-77099074D01*
X102000630Y-77099798D01*
X101749516Y-77126373D01*
X101510048Y-77167034D01*
X101283391Y-77221466D01*
X101070707Y-77289354D01*
X100873162Y-77370384D01*
X100728814Y-77443350D01*
X100687785Y-77466930D01*
X100643199Y-77494006D01*
X100598779Y-77522129D01*
X100558250Y-77548852D01*
X100525335Y-77571725D01*
X100503757Y-77588300D01*
X100497103Y-77595726D01*
X100223509Y-77595726D01*
X100257188Y-77498438D01*
X100332491Y-77338109D01*
X100361228Y-77290554D01*
X100582641Y-77290554D01*
X100589226Y-77288343D01*
X100608413Y-77275076D01*
X100641980Y-77249896D01*
X100658906Y-77237004D01*
X100710442Y-77199432D01*
X100769281Y-77159210D01*
X100825507Y-77123039D01*
X100845261Y-77111078D01*
X100992306Y-77033381D01*
X101152381Y-76966535D01*
X101326438Y-76910322D01*
X101515432Y-76864525D01*
X101720315Y-76828924D01*
X101942041Y-76803303D01*
X102181562Y-76787445D01*
X102277876Y-76783921D01*
X102354704Y-76781612D01*
X102412223Y-76779592D01*
X102452446Y-76777635D01*
X102477385Y-76775519D01*
X102489051Y-76773019D01*
X102489457Y-76769911D01*
X102480613Y-76765970D01*
X102469815Y-76762542D01*
X102417097Y-76749207D01*
X102349092Y-76735707D01*
X102271815Y-76722965D01*
X102191278Y-76711907D01*
X102113493Y-76703454D01*
X102057619Y-76699209D01*
X102010527Y-76695828D01*
X101973390Y-76691828D01*
X101950044Y-76687717D01*
X101944167Y-76684137D01*
X101956372Y-76678623D01*
X101962092Y-76676496D01*
X103499448Y-76676496D01*
X103499867Y-76710585D01*
X103503199Y-76739776D01*
X103505749Y-76749616D01*
X103536374Y-76808069D01*
X103582701Y-76856175D01*
X103641111Y-76892619D01*
X103707985Y-76916084D01*
X103779705Y-76925254D01*
X103852652Y-76918814D01*
X103915903Y-76898786D01*
X103983008Y-76858220D01*
X104037628Y-76803143D01*
X104078043Y-76737202D01*
X104102533Y-76664042D01*
X104109380Y-76587312D01*
X104097662Y-76513351D01*
X104081109Y-76468575D01*
X104058763Y-76422254D01*
X104048648Y-76404975D01*
X104016464Y-76354324D01*
X103936255Y-76354324D01*
X103897962Y-76354917D01*
X103869613Y-76356487D01*
X103856411Y-76358718D01*
X103856045Y-76359182D01*
X103861496Y-76370149D01*
X103875240Y-76392132D01*
X103882686Y-76403298D01*
X103914857Y-76465435D01*
X103926114Y-76526866D01*
X103920076Y-76577228D01*
X103895216Y-76638670D01*
X103857187Y-76685871D01*
X103809299Y-76718129D01*
X103754858Y-76734745D01*
X103697173Y-76735018D01*
X103639551Y-76718248D01*
X103585301Y-76683734D01*
X103555854Y-76654345D01*
X103534015Y-76629932D01*
X103517880Y-76613917D01*
X103512504Y-76610243D01*
X103506084Y-76619785D01*
X103501626Y-76644049D01*
X103499448Y-76676496D01*
X101962092Y-76676496D01*
X101985721Y-76667710D01*
X102029035Y-76652458D01*
X102083132Y-76633925D01*
X102144833Y-76613173D01*
X102210957Y-76591262D01*
X102278325Y-76569251D01*
X102343755Y-76548201D01*
X102404068Y-76529171D01*
X102456083Y-76513221D01*
X102464483Y-76510710D01*
X102505753Y-76498234D01*
X102529118Y-76489966D01*
X102537133Y-76484086D01*
X102532349Y-76478771D01*
X102518023Y-76472484D01*
X102492651Y-76467448D01*
X102452565Y-76467272D01*
X102396807Y-76472087D01*
X102324419Y-76482028D01*
X102234442Y-76497227D01*
X102125919Y-76517819D01*
X101997890Y-76543936D01*
X101984024Y-76546847D01*
X101784712Y-76592439D01*
X101604313Y-76641643D01*
X101440590Y-76695361D01*
X101291302Y-76754497D01*
X101154209Y-76819952D01*
X101027073Y-76892629D01*
X100907655Y-76973431D01*
X100886314Y-76989279D01*
X100840393Y-77026480D01*
X100786792Y-77074005D01*
X100730539Y-77127005D01*
X100676664Y-77180628D01*
X100630198Y-77230024D01*
X100600162Y-77265218D01*
X100586879Y-77282560D01*
X100582641Y-77290554D01*
X100361228Y-77290554D01*
X100423892Y-77186858D01*
X100529737Y-77047850D01*
X100626230Y-76945138D01*
X100718318Y-76861754D01*
X100815227Y-76785205D01*
X100918581Y-76714814D01*
X101030005Y-76649903D01*
X101151123Y-76589795D01*
X101283558Y-76533811D01*
X101428934Y-76481273D01*
X101488594Y-76462709D01*
X103601769Y-76462709D01*
X103613613Y-76492605D01*
X103635790Y-76514815D01*
X103665662Y-76523313D01*
X103671694Y-76522917D01*
X103697572Y-76512181D01*
X103720159Y-76491563D01*
X103733439Y-76459959D01*
X103729614Y-76430012D01*
X103712818Y-76405322D01*
X103687182Y-76389491D01*
X103656840Y-76386120D01*
X103625925Y-76398810D01*
X103619626Y-76403961D01*
X103602894Y-76431153D01*
X103601769Y-76462709D01*
X101488594Y-76462709D01*
X101588877Y-76431505D01*
X101765010Y-76383828D01*
X101958956Y-76337564D01*
X102172341Y-76292037D01*
X102209012Y-76284652D01*
X102293914Y-76267470D01*
X102361353Y-76252836D01*
X102414814Y-76239286D01*
X102457778Y-76225355D01*
X102493730Y-76209578D01*
X102526152Y-76190491D01*
X102549843Y-76173030D01*
X102909066Y-76173030D01*
X102918680Y-76181878D01*
X102942846Y-76200046D01*
X102978277Y-76225170D01*
X103021687Y-76254883D01*
X103038437Y-76266116D01*
X103164532Y-76350229D01*
X103246372Y-76265875D01*
X103292626Y-76220868D01*
X103346539Y-76172426D01*
X103399102Y-76128527D01*
X103418849Y-76113181D01*
X103503910Y-76055405D01*
X103603149Y-75998515D01*
X103709590Y-75946066D01*
X103816251Y-75901613D01*
X103874047Y-75881352D01*
X103956942Y-75856111D01*
X104035155Y-75836021D01*
X104113095Y-75820438D01*
X104195172Y-75808720D01*
X104285796Y-75800223D01*
X104385962Y-75794500D01*
X104762426Y-75794500D01*
X104767758Y-75799832D01*
X104773090Y-75794500D01*
X104767758Y-75789169D01*
X104762426Y-75794500D01*
X104385962Y-75794500D01*
X104389375Y-75794305D01*
X104495844Y-75790691D01*
X104757095Y-75783837D01*
X104645130Y-75759893D01*
X104452048Y-75727704D01*
X104265038Y-75715222D01*
X104082235Y-75722358D01*
X104015995Y-75729858D01*
X103941791Y-75741569D01*
X103863178Y-75757105D01*
X103785915Y-75775080D01*
X103715760Y-75794108D01*
X103658472Y-75812804D01*
X103638549Y-75820686D01*
X103610735Y-75831032D01*
X103592945Y-75834621D01*
X103589462Y-75832831D01*
X103597144Y-75822508D01*
X103617717Y-75802332D01*
X103647469Y-75775837D01*
X103663908Y-75761924D01*
X103696169Y-75734378D01*
X103720546Y-75712273D01*
X103733579Y-75698811D01*
X103734754Y-75696313D01*
X103723824Y-75698044D01*
X103697429Y-75705653D01*
X103660157Y-75717758D01*
X103636317Y-75725960D01*
X103542123Y-75762473D01*
X103440308Y-75807943D01*
X103338318Y-75858699D01*
X103243601Y-75911071D01*
X103177544Y-75952014D01*
X103129929Y-75984772D01*
X103080574Y-76020938D01*
X103032408Y-76058097D01*
X102988366Y-76093835D01*
X102951379Y-76125739D01*
X102924379Y-76151395D01*
X102910299Y-76168389D01*
X102909066Y-76173030D01*
X102549843Y-76173030D01*
X102558528Y-76166629D01*
X102594340Y-76136527D01*
X102624433Y-76109968D01*
X102719927Y-76025575D01*
X102802398Y-75954071D01*
X102874298Y-75893673D01*
X102938081Y-75842599D01*
X102996201Y-75799066D01*
X103051112Y-75761291D01*
X103105267Y-75727491D01*
X103161120Y-75695884D01*
X103221125Y-75664686D01*
X103271115Y-75640104D01*
X103445220Y-75565596D01*
X103630446Y-75505214D01*
X103819082Y-75460069D01*
X103877328Y-75448497D01*
X103930174Y-75438634D01*
X103979873Y-75430356D01*
X104028680Y-75423538D01*
X104078850Y-75418056D01*
X104132637Y-75413786D01*
X104192295Y-75410605D01*
X104260078Y-75408388D01*
X104338241Y-75407010D01*
X104429038Y-75406349D01*
X104534724Y-75406280D01*
X104657552Y-75406678D01*
G37*
%TD*%
%LPC*%
G36*
X113010000Y-79750000D02*
G01*
X111310000Y-79750000D01*
X111310000Y-78050000D01*
X113010000Y-78050000D01*
X113010000Y-79750000D01*
G37*
G36*
X114946742Y-78086601D02*
G01*
X115100687Y-78150367D01*
X115239234Y-78242941D01*
X115357059Y-78360766D01*
X115449633Y-78499313D01*
X115513399Y-78653258D01*
X115545907Y-78816685D01*
X115545907Y-78983315D01*
X115513399Y-79146742D01*
X115449633Y-79300687D01*
X115357059Y-79439234D01*
X115239234Y-79557059D01*
X115100687Y-79649633D01*
X114946742Y-79713399D01*
X114783315Y-79745907D01*
X114616685Y-79745907D01*
X114453258Y-79713399D01*
X114299313Y-79649633D01*
X114160766Y-79557059D01*
X114042941Y-79439234D01*
X113950367Y-79300687D01*
X113886601Y-79146742D01*
X113854093Y-78983315D01*
X113854093Y-78816685D01*
X113886601Y-78653258D01*
X113950367Y-78499313D01*
X114042941Y-78360766D01*
X114160766Y-78242941D01*
X114299313Y-78150367D01*
X114453258Y-78086601D01*
X114616685Y-78054093D01*
X114783315Y-78054093D01*
X114946742Y-78086601D01*
G37*
G36*
X117486742Y-78086601D02*
G01*
X117640687Y-78150367D01*
X117779234Y-78242941D01*
X117897059Y-78360766D01*
X117989633Y-78499313D01*
X118053399Y-78653258D01*
X118085907Y-78816685D01*
X118085907Y-78983315D01*
X118053399Y-79146742D01*
X117989633Y-79300687D01*
X117897059Y-79439234D01*
X117779234Y-79557059D01*
X117640687Y-79649633D01*
X117486742Y-79713399D01*
X117323315Y-79745907D01*
X117156685Y-79745907D01*
X116993258Y-79713399D01*
X116839313Y-79649633D01*
X116700766Y-79557059D01*
X116582941Y-79439234D01*
X116490367Y-79300687D01*
X116426601Y-79146742D01*
X116394093Y-78983315D01*
X116394093Y-78816685D01*
X116426601Y-78653258D01*
X116490367Y-78499313D01*
X116582941Y-78360766D01*
X116700766Y-78242941D01*
X116839313Y-78150367D01*
X116993258Y-78086601D01*
X117156685Y-78054093D01*
X117323315Y-78054093D01*
X117486742Y-78086601D01*
G37*
G36*
X111600000Y-75300000D02*
G01*
X109600000Y-75300000D01*
X109600000Y-73300000D01*
X111600000Y-73300000D01*
X111600000Y-75300000D01*
G37*
G36*
X115500000Y-75300000D02*
G01*
X113500000Y-75300000D01*
X113500000Y-73300000D01*
X115500000Y-73300000D01*
X115500000Y-75300000D01*
G37*
G36*
X119500000Y-75300000D02*
G01*
X117500000Y-75300000D01*
X117500000Y-73300000D01*
X119500000Y-73300000D01*
X119500000Y-75300000D01*
G37*
G36*
X123500000Y-75300000D02*
G01*
X121500000Y-75300000D01*
X121500000Y-73300000D01*
X123500000Y-73300000D01*
X123500000Y-75300000D01*
G37*
G36*
X111616000Y-70018500D02*
G01*
X111084000Y-70018500D01*
X111084000Y-68981500D01*
X111616000Y-68981500D01*
X111616000Y-70018500D01*
G37*
G36*
X103488500Y-69066500D02*
G01*
X102111500Y-69066500D01*
X102111500Y-67933500D01*
X103488500Y-67933500D01*
X103488500Y-69066500D01*
G37*
G36*
X118888500Y-68766500D02*
G01*
X117511500Y-68766500D01*
X117511500Y-67633500D01*
X118888500Y-67633500D01*
X118888500Y-68766500D01*
G37*
G36*
X116625000Y-68550000D02*
G01*
X115375000Y-68550000D01*
X115375000Y-67850000D01*
X116625000Y-67850000D01*
X116625000Y-68550000D01*
G37*
G36*
X110666000Y-67818500D02*
G01*
X110134000Y-67818500D01*
X110134000Y-66781500D01*
X110666000Y-66781500D01*
X110666000Y-67818500D01*
G37*
G36*
X112566000Y-67818500D02*
G01*
X112034000Y-67818500D01*
X112034000Y-66781500D01*
X112566000Y-66781500D01*
X112566000Y-67818500D01*
G37*
G36*
X114625000Y-67600000D02*
G01*
X113375000Y-67600000D01*
X113375000Y-66900000D01*
X114625000Y-66900000D01*
X114625000Y-67600000D01*
G37*
G36*
X103488500Y-67066500D02*
G01*
X102111500Y-67066500D01*
X102111500Y-65933500D01*
X103488500Y-65933500D01*
X103488500Y-67066500D01*
G37*
G36*
X107303000Y-67032000D02*
G01*
X106497000Y-67032000D01*
X106497000Y-66168000D01*
X107303000Y-66168000D01*
X107303000Y-67032000D01*
G37*
G36*
X108803000Y-67032000D02*
G01*
X107997000Y-67032000D01*
X107997000Y-66168000D01*
X108803000Y-66168000D01*
X108803000Y-67032000D01*
G37*
G36*
X118888500Y-66766500D02*
G01*
X117511500Y-66766500D01*
X117511500Y-65633500D01*
X118888500Y-65633500D01*
X118888500Y-66766500D01*
G37*
G36*
X116625000Y-66650000D02*
G01*
X115375000Y-66650000D01*
X115375000Y-65950000D01*
X116625000Y-65950000D01*
X116625000Y-66650000D01*
G37*
G36*
X110866500Y-65588500D02*
G01*
X109733500Y-65588500D01*
X109733500Y-64211500D01*
X110866500Y-64211500D01*
X110866500Y-65588500D01*
G37*
G36*
X112866500Y-65588500D02*
G01*
X111733500Y-65588500D01*
X111733500Y-64211500D01*
X112866500Y-64211500D01*
X112866500Y-65588500D01*
G37*
G36*
X106753536Y-59846464D02*
G01*
X106754701Y-59849278D01*
X106811327Y-59849278D01*
X106815263Y-59849278D01*
X106816557Y-59849448D01*
X106942636Y-59883230D01*
X106943842Y-59883730D01*
X106947244Y-59885694D01*
X106947246Y-59885695D01*
X107053473Y-59947025D01*
X107053475Y-59947026D01*
X107056881Y-59948993D01*
X107057917Y-59949787D01*
X107150213Y-60042083D01*
X107151007Y-60043119D01*
X107216270Y-60156158D01*
X107216770Y-60157364D01*
X107250552Y-60283443D01*
X107250722Y-60284737D01*
X107250722Y-60345298D01*
X107253536Y-60346464D01*
X107255000Y-60350000D01*
X107255000Y-60850000D01*
X107253536Y-60853536D01*
X107250251Y-60854895D01*
X107250000Y-60856160D01*
X107250000Y-61143838D01*
X107250251Y-61145104D01*
X107253536Y-61146464D01*
X107255000Y-61150000D01*
X107255000Y-61650000D01*
X107253536Y-61653536D01*
X107250722Y-61654701D01*
X107250722Y-61715263D01*
X107250552Y-61716557D01*
X107216770Y-61842636D01*
X107216270Y-61843842D01*
X107151007Y-61956881D01*
X107150213Y-61957917D01*
X107057917Y-62050213D01*
X107056881Y-62051007D01*
X106943842Y-62116270D01*
X106942636Y-62116770D01*
X106816557Y-62150552D01*
X106815263Y-62150722D01*
X106754701Y-62150722D01*
X106753536Y-62153536D01*
X106750000Y-62155000D01*
X106738066Y-62155000D01*
X106261934Y-62155000D01*
X106250000Y-62155000D01*
X106246464Y-62153536D01*
X106245299Y-62150722D01*
X106188673Y-62150722D01*
X106184737Y-62150722D01*
X106183443Y-62150552D01*
X106057364Y-62116770D01*
X106056158Y-62116270D01*
X105943119Y-62051007D01*
X105942083Y-62050213D01*
X105849787Y-61957917D01*
X105848993Y-61956881D01*
X105783730Y-61843842D01*
X105783230Y-61842636D01*
X105749448Y-61716557D01*
X105749278Y-61715263D01*
X105749278Y-61654701D01*
X105746464Y-61653536D01*
X105745000Y-61650000D01*
X105745000Y-61150000D01*
X105746464Y-61146464D01*
X105749748Y-61145104D01*
X105750000Y-61143838D01*
X105750000Y-60856160D01*
X105749748Y-60854895D01*
X105746464Y-60853536D01*
X105745000Y-60850000D01*
X105745000Y-60350000D01*
X105746464Y-60346464D01*
X105749278Y-60345298D01*
X105749278Y-60284737D01*
X105749448Y-60283443D01*
X105783230Y-60157364D01*
X105783730Y-60156158D01*
X105785692Y-60152758D01*
X105785695Y-60152753D01*
X105847025Y-60046526D01*
X105847028Y-60046520D01*
X105848993Y-60043119D01*
X105849787Y-60042083D01*
X105942083Y-59949787D01*
X105943119Y-59948993D01*
X105946520Y-59947028D01*
X105946526Y-59947025D01*
X106052753Y-59885695D01*
X106052758Y-59885692D01*
X106056158Y-59883730D01*
X106057364Y-59883230D01*
X106183443Y-59849448D01*
X106184737Y-59849278D01*
X106245299Y-59849278D01*
X106246464Y-59846464D01*
X106250000Y-59845000D01*
X106750000Y-59845000D01*
X106753536Y-59846464D01*
G37*
G36*
X113310000Y-61750000D02*
G01*
X111610000Y-61750000D01*
X111610000Y-60050000D01*
X113310000Y-60050000D01*
X113310000Y-61750000D01*
G37*
G36*
X115246742Y-60086601D02*
G01*
X115400687Y-60150367D01*
X115539234Y-60242941D01*
X115657059Y-60360766D01*
X115749633Y-60499313D01*
X115813399Y-60653258D01*
X115845907Y-60816685D01*
X115845907Y-60983315D01*
X115813399Y-61146742D01*
X115749633Y-61300687D01*
X115657059Y-61439234D01*
X115539234Y-61557059D01*
X115400687Y-61649633D01*
X115246742Y-61713399D01*
X115083315Y-61745907D01*
X114916685Y-61745907D01*
X114753258Y-61713399D01*
X114599313Y-61649633D01*
X114460766Y-61557059D01*
X114342941Y-61439234D01*
X114250367Y-61300687D01*
X114186601Y-61146742D01*
X114154093Y-60983315D01*
X114154093Y-60816685D01*
X114186601Y-60653258D01*
X114250367Y-60499313D01*
X114342941Y-60360766D01*
X114460766Y-60242941D01*
X114599313Y-60150367D01*
X114753258Y-60086601D01*
X114916685Y-60054093D01*
X115083315Y-60054093D01*
X115246742Y-60086601D01*
G37*
G36*
X117786742Y-60086601D02*
G01*
X117940687Y-60150367D01*
X118079234Y-60242941D01*
X118197059Y-60360766D01*
X118289633Y-60499313D01*
X118353399Y-60653258D01*
X118385907Y-60816685D01*
X118385907Y-60983315D01*
X118353399Y-61146742D01*
X118289633Y-61300687D01*
X118197059Y-61439234D01*
X118079234Y-61557059D01*
X117940687Y-61649633D01*
X117786742Y-61713399D01*
X117623315Y-61745907D01*
X117456685Y-61745907D01*
X117293258Y-61713399D01*
X117139313Y-61649633D01*
X117000766Y-61557059D01*
X116882941Y-61439234D01*
X116790367Y-61300687D01*
X116726601Y-61146742D01*
X116694093Y-60983315D01*
X116694093Y-60816685D01*
X116726601Y-60653258D01*
X116790367Y-60499313D01*
X116882941Y-60360766D01*
X117000766Y-60242941D01*
X117139313Y-60150367D01*
X117293258Y-60086601D01*
X117456685Y-60054093D01*
X117623315Y-60054093D01*
X117786742Y-60086601D01*
G37*
G36*
X125246742Y-56066601D02*
G01*
X125400687Y-56130367D01*
X125539234Y-56222941D01*
X125657059Y-56340766D01*
X125749633Y-56479313D01*
X125813399Y-56633258D01*
X125845907Y-56796685D01*
X125845907Y-56963315D01*
X125813399Y-57126742D01*
X125749633Y-57280687D01*
X125657059Y-57419234D01*
X125539234Y-57537059D01*
X125400687Y-57629633D01*
X125246742Y-57693399D01*
X125083315Y-57725907D01*
X124916685Y-57725907D01*
X124753258Y-57693399D01*
X124599313Y-57629633D01*
X124460766Y-57537059D01*
X124342941Y-57419234D01*
X124250367Y-57280687D01*
X124186601Y-57126742D01*
X124154093Y-56963315D01*
X124154093Y-56796685D01*
X124186601Y-56633258D01*
X124250367Y-56479313D01*
X124342941Y-56340766D01*
X124460766Y-56222941D01*
X124599313Y-56130367D01*
X124753258Y-56066601D01*
X124916685Y-56034093D01*
X125083315Y-56034093D01*
X125246742Y-56066601D01*
G37*
G36*
X108833315Y-54654093D02*
G01*
X108996742Y-54686601D01*
X109150687Y-54750367D01*
X109289234Y-54842941D01*
X109407059Y-54960766D01*
X109499633Y-55099313D01*
X109563399Y-55253258D01*
X109595907Y-55416685D01*
X109595907Y-55583315D01*
X109563399Y-55746742D01*
X109499633Y-55900687D01*
X109407059Y-56039234D01*
X109289234Y-56157059D01*
X109150687Y-56249633D01*
X108996742Y-56313399D01*
X108833315Y-56345907D01*
X108750000Y-56350000D01*
X108748522Y-56350000D01*
X108451478Y-56350000D01*
X108450000Y-56350000D01*
X108366685Y-56345907D01*
X108203258Y-56313399D01*
X108049313Y-56249633D01*
X107910766Y-56157059D01*
X107792941Y-56039234D01*
X107700367Y-55900687D01*
X107636601Y-55746742D01*
X107604093Y-55583315D01*
X107604093Y-55416685D01*
X107636601Y-55253258D01*
X107700367Y-55099313D01*
X107792941Y-54960766D01*
X107910766Y-54842941D01*
X108049313Y-54750367D01*
X108203258Y-54686601D01*
X108366685Y-54654093D01*
X108450000Y-54650000D01*
X108750000Y-54650000D01*
X108833315Y-54654093D01*
G37*
G36*
X118833315Y-54654093D02*
G01*
X118996742Y-54686601D01*
X119150687Y-54750367D01*
X119289234Y-54842941D01*
X119407059Y-54960766D01*
X119499633Y-55099313D01*
X119563399Y-55253258D01*
X119595907Y-55416685D01*
X119595907Y-55583315D01*
X119563399Y-55746742D01*
X119499633Y-55900687D01*
X119407059Y-56039234D01*
X119289234Y-56157059D01*
X119150687Y-56249633D01*
X118996742Y-56313399D01*
X118833315Y-56345907D01*
X118750000Y-56350000D01*
X118748522Y-56350000D01*
X118451478Y-56350000D01*
X118450000Y-56350000D01*
X118366685Y-56345907D01*
X118203258Y-56313399D01*
X118049313Y-56249633D01*
X117910766Y-56157059D01*
X117792941Y-56039234D01*
X117700367Y-55900687D01*
X117636601Y-55746742D01*
X117604093Y-55583315D01*
X117604093Y-55416685D01*
X117636601Y-55253258D01*
X117700367Y-55099313D01*
X117792941Y-54960766D01*
X117910766Y-54842941D01*
X118049313Y-54750367D01*
X118203258Y-54686601D01*
X118366685Y-54654093D01*
X118450000Y-54650000D01*
X118750000Y-54650000D01*
X118833315Y-54654093D01*
G37*
G36*
X125246742Y-53526601D02*
G01*
X125400687Y-53590367D01*
X125539234Y-53682941D01*
X125657059Y-53800766D01*
X125749633Y-53939313D01*
X125813399Y-54093258D01*
X125845907Y-54256685D01*
X125845907Y-54423315D01*
X125813399Y-54586742D01*
X125749633Y-54740687D01*
X125657059Y-54879234D01*
X125539234Y-54997059D01*
X125400687Y-55089633D01*
X125246742Y-55153399D01*
X125083315Y-55185907D01*
X124916685Y-55185907D01*
X124753258Y-55153399D01*
X124599313Y-55089633D01*
X124460766Y-54997059D01*
X124342941Y-54879234D01*
X124250367Y-54740687D01*
X124186601Y-54586742D01*
X124154093Y-54423315D01*
X124154093Y-54256685D01*
X124186601Y-54093258D01*
X124250367Y-53939313D01*
X124342941Y-53800766D01*
X124460766Y-53682941D01*
X124599313Y-53590367D01*
X124753258Y-53526601D01*
X124916685Y-53494093D01*
X125083315Y-53494093D01*
X125246742Y-53526601D01*
G37*
G36*
X109354850Y-52150964D02*
G01*
X109405040Y-52156787D01*
X109422189Y-52164359D01*
X109445671Y-52169030D01*
X109470810Y-52185827D01*
X109490696Y-52194608D01*
X109504277Y-52208189D01*
X109526777Y-52223223D01*
X109541810Y-52245722D01*
X109555391Y-52259303D01*
X109564170Y-52279186D01*
X109580970Y-52304329D01*
X109585641Y-52327812D01*
X109593212Y-52344959D01*
X109599033Y-52395139D01*
X109600000Y-52400000D01*
X109600000Y-53600000D01*
X109599032Y-53604863D01*
X109593212Y-53655040D01*
X109585641Y-53672185D01*
X109580970Y-53695671D01*
X109564169Y-53720815D01*
X109555391Y-53740696D01*
X109541812Y-53754274D01*
X109526777Y-53776777D01*
X109504274Y-53791812D01*
X109490696Y-53805391D01*
X109470815Y-53814169D01*
X109445671Y-53830970D01*
X109422185Y-53835641D01*
X109405040Y-53843212D01*
X109354861Y-53849032D01*
X109350000Y-53850000D01*
X107850000Y-53850000D01*
X107845138Y-53849032D01*
X107794959Y-53843212D01*
X107777812Y-53835641D01*
X107754329Y-53830970D01*
X107729186Y-53814170D01*
X107709303Y-53805391D01*
X107695722Y-53791810D01*
X107673223Y-53776777D01*
X107658189Y-53754277D01*
X107644608Y-53740696D01*
X107635827Y-53720810D01*
X107619030Y-53695671D01*
X107614359Y-53672189D01*
X107606787Y-53655040D01*
X107600964Y-53604849D01*
X107600000Y-53600000D01*
X107600000Y-52400000D01*
X107600964Y-52395150D01*
X107606787Y-52344959D01*
X107614359Y-52327808D01*
X107619030Y-52304329D01*
X107635826Y-52279191D01*
X107644608Y-52259303D01*
X107658191Y-52245719D01*
X107673223Y-52223223D01*
X107695719Y-52208191D01*
X107709303Y-52194608D01*
X107729191Y-52185826D01*
X107754329Y-52169030D01*
X107777808Y-52164359D01*
X107794959Y-52156787D01*
X107845151Y-52150964D01*
X107850000Y-52150000D01*
X109350000Y-52150000D01*
X109354850Y-52150964D01*
G37*
G36*
X119354850Y-52150964D02*
G01*
X119405040Y-52156787D01*
X119422189Y-52164359D01*
X119445671Y-52169030D01*
X119470810Y-52185827D01*
X119490696Y-52194608D01*
X119504277Y-52208189D01*
X119526777Y-52223223D01*
X119541810Y-52245722D01*
X119555391Y-52259303D01*
X119564170Y-52279186D01*
X119580970Y-52304329D01*
X119585641Y-52327812D01*
X119593212Y-52344959D01*
X119599033Y-52395139D01*
X119600000Y-52400000D01*
X119600000Y-53600000D01*
X119599032Y-53604863D01*
X119593212Y-53655040D01*
X119585641Y-53672185D01*
X119580970Y-53695671D01*
X119564169Y-53720815D01*
X119555391Y-53740696D01*
X119541812Y-53754274D01*
X119526777Y-53776777D01*
X119504274Y-53791812D01*
X119490696Y-53805391D01*
X119470815Y-53814169D01*
X119445671Y-53830970D01*
X119422185Y-53835641D01*
X119405040Y-53843212D01*
X119354861Y-53849032D01*
X119350000Y-53850000D01*
X117850000Y-53850000D01*
X117845138Y-53849032D01*
X117794959Y-53843212D01*
X117777812Y-53835641D01*
X117754329Y-53830970D01*
X117729186Y-53814170D01*
X117709303Y-53805391D01*
X117695722Y-53791810D01*
X117673223Y-53776777D01*
X117658189Y-53754277D01*
X117644608Y-53740696D01*
X117635827Y-53720810D01*
X117619030Y-53695671D01*
X117614359Y-53672189D01*
X117606787Y-53655040D01*
X117600964Y-53604849D01*
X117600000Y-53600000D01*
X117600000Y-52400000D01*
X117600964Y-52395150D01*
X117606787Y-52344959D01*
X117614359Y-52327808D01*
X117619030Y-52304329D01*
X117635826Y-52279191D01*
X117644608Y-52259303D01*
X117658191Y-52245719D01*
X117673223Y-52223223D01*
X117695719Y-52208191D01*
X117709303Y-52194608D01*
X117729191Y-52185826D01*
X117754329Y-52169030D01*
X117777808Y-52164359D01*
X117794959Y-52156787D01*
X117845151Y-52150964D01*
X117850000Y-52150000D01*
X119350000Y-52150000D01*
X119354850Y-52150964D01*
G37*
G36*
X125850000Y-52650000D02*
G01*
X124150000Y-52650000D01*
X124150000Y-50950000D01*
X125850000Y-50950000D01*
X125850000Y-52650000D01*
G37*
G36*
X106286921Y-45489601D02*
G01*
X106336363Y-45522637D01*
X106369399Y-45572079D01*
X106369647Y-45573327D01*
X106374549Y-45578229D01*
X106483408Y-45650966D01*
X106589034Y-45756592D01*
X106672024Y-45880796D01*
X106729189Y-46018803D01*
X106758331Y-46165311D01*
X106758331Y-46314689D01*
X106729189Y-46461197D01*
X106672024Y-46599204D01*
X106589034Y-46723408D01*
X106483408Y-46829034D01*
X106374546Y-46901772D01*
X106369647Y-46906671D01*
X106369399Y-46907921D01*
X106336363Y-46957363D01*
X106286921Y-46990399D01*
X106228600Y-47002000D01*
X104101400Y-47002000D01*
X104043079Y-46990399D01*
X103993637Y-46957363D01*
X103960601Y-46907921D01*
X103949000Y-46849600D01*
X103949000Y-45630400D01*
X103960601Y-45572079D01*
X103993637Y-45522637D01*
X104043079Y-45489601D01*
X104101400Y-45478000D01*
X106228600Y-45478000D01*
X106286921Y-45489601D01*
G37*
G36*
X123196921Y-45489601D02*
G01*
X123246363Y-45522637D01*
X123279399Y-45572079D01*
X123291000Y-45630400D01*
X123291000Y-46849600D01*
X123279399Y-46907921D01*
X123246363Y-46957363D01*
X123196921Y-46990399D01*
X123138600Y-47002000D01*
X121011400Y-47002000D01*
X120953079Y-46990399D01*
X120903637Y-46957363D01*
X120870601Y-46907921D01*
X120870352Y-46906672D01*
X120865450Y-46901770D01*
X120756592Y-46829034D01*
X120650966Y-46723408D01*
X120567976Y-46599204D01*
X120510811Y-46461197D01*
X120481669Y-46314689D01*
X120481669Y-46165311D01*
X120510811Y-46018803D01*
X120567976Y-45880796D01*
X120650966Y-45756592D01*
X120756592Y-45650966D01*
X120865447Y-45578231D01*
X120870352Y-45573326D01*
X120870601Y-45572079D01*
X120903637Y-45522637D01*
X120953079Y-45489601D01*
X121011400Y-45478000D01*
X123138600Y-45478000D01*
X123196921Y-45489601D01*
G37*
G36*
X106286921Y-42949601D02*
G01*
X106336363Y-42982637D01*
X106369399Y-43032079D01*
X106369647Y-43033327D01*
X106374549Y-43038229D01*
X106483408Y-43110966D01*
X106589034Y-43216592D01*
X106672024Y-43340796D01*
X106729189Y-43478803D01*
X106758331Y-43625311D01*
X106758331Y-43774689D01*
X106729189Y-43921197D01*
X106672024Y-44059204D01*
X106589034Y-44183408D01*
X106483408Y-44289034D01*
X106374546Y-44361772D01*
X106369647Y-44366671D01*
X106369399Y-44367921D01*
X106336363Y-44417363D01*
X106286921Y-44450399D01*
X106228600Y-44462000D01*
X104101400Y-44462000D01*
X104043079Y-44450399D01*
X103993637Y-44417363D01*
X103960601Y-44367921D01*
X103949000Y-44309600D01*
X103949000Y-43090400D01*
X103960601Y-43032079D01*
X103993637Y-42982637D01*
X104043079Y-42949601D01*
X104101400Y-42938000D01*
X106228600Y-42938000D01*
X106286921Y-42949601D01*
G37*
G36*
X123196921Y-42949601D02*
G01*
X123246363Y-42982637D01*
X123279399Y-43032079D01*
X123291000Y-43090400D01*
X123291000Y-44309600D01*
X123279399Y-44367921D01*
X123246363Y-44417363D01*
X123196921Y-44450399D01*
X123138600Y-44462000D01*
X121011400Y-44462000D01*
X120953079Y-44450399D01*
X120903637Y-44417363D01*
X120870601Y-44367921D01*
X120870352Y-44366672D01*
X120865450Y-44361770D01*
X120756592Y-44289034D01*
X120650966Y-44183408D01*
X120567976Y-44059204D01*
X120510811Y-43921197D01*
X120481669Y-43774689D01*
X120481669Y-43625311D01*
X120510811Y-43478803D01*
X120567976Y-43340796D01*
X120650966Y-43216592D01*
X120756592Y-43110966D01*
X120865447Y-43038231D01*
X120870352Y-43033326D01*
X120870601Y-43032079D01*
X120903637Y-42982637D01*
X120953079Y-42949601D01*
X121011400Y-42938000D01*
X123138600Y-42938000D01*
X123196921Y-42949601D01*
G37*
G36*
X106286921Y-40409601D02*
G01*
X106336363Y-40442637D01*
X106369399Y-40492079D01*
X106369647Y-40493327D01*
X106374549Y-40498229D01*
X106483408Y-40570966D01*
X106589034Y-40676592D01*
X106672024Y-40800796D01*
X106729189Y-40938803D01*
X106758331Y-41085311D01*
X106758331Y-41234689D01*
X106729189Y-41381197D01*
X106672024Y-41519204D01*
X106589034Y-41643408D01*
X106483408Y-41749034D01*
X106374546Y-41821772D01*
X106369647Y-41826671D01*
X106369399Y-41827921D01*
X106336363Y-41877363D01*
X106286921Y-41910399D01*
X106228600Y-41922000D01*
X104101400Y-41922000D01*
X104043079Y-41910399D01*
X103993637Y-41877363D01*
X103960601Y-41827921D01*
X103949000Y-41769600D01*
X103949000Y-40550400D01*
X103960601Y-40492079D01*
X103993637Y-40442637D01*
X104043079Y-40409601D01*
X104101400Y-40398000D01*
X106228600Y-40398000D01*
X106286921Y-40409601D01*
G37*
G36*
X123196921Y-40409601D02*
G01*
X123246363Y-40442637D01*
X123279399Y-40492079D01*
X123291000Y-40550400D01*
X123291000Y-41769600D01*
X123279399Y-41827921D01*
X123246363Y-41877363D01*
X123196921Y-41910399D01*
X123138600Y-41922000D01*
X121011400Y-41922000D01*
X120953079Y-41910399D01*
X120903637Y-41877363D01*
X120870601Y-41827921D01*
X120870352Y-41826672D01*
X120865450Y-41821770D01*
X120756592Y-41749034D01*
X120650966Y-41643408D01*
X120567976Y-41519204D01*
X120510811Y-41381197D01*
X120481669Y-41234689D01*
X120481669Y-41085311D01*
X120510811Y-40938803D01*
X120567976Y-40800796D01*
X120650966Y-40676592D01*
X120756592Y-40570966D01*
X120865447Y-40498231D01*
X120870352Y-40493326D01*
X120870601Y-40492079D01*
X120903637Y-40442637D01*
X120953079Y-40409601D01*
X121011400Y-40398000D01*
X123138600Y-40398000D01*
X123196921Y-40409601D01*
G37*
G36*
X106286921Y-37869601D02*
G01*
X106336363Y-37902637D01*
X106369399Y-37952079D01*
X106369647Y-37953327D01*
X106374549Y-37958229D01*
X106483408Y-38030966D01*
X106589034Y-38136592D01*
X106672024Y-38260796D01*
X106729189Y-38398803D01*
X106758331Y-38545311D01*
X106758331Y-38694689D01*
X106729189Y-38841197D01*
X106672024Y-38979204D01*
X106589034Y-39103408D01*
X106483408Y-39209034D01*
X106374546Y-39281772D01*
X106369647Y-39286671D01*
X106369399Y-39287921D01*
X106336363Y-39337363D01*
X106286921Y-39370399D01*
X106228600Y-39382000D01*
X104101400Y-39382000D01*
X104043079Y-39370399D01*
X103993637Y-39337363D01*
X103960601Y-39287921D01*
X103949000Y-39229600D01*
X103949000Y-38010400D01*
X103960601Y-37952079D01*
X103993637Y-37902637D01*
X104043079Y-37869601D01*
X104101400Y-37858000D01*
X106228600Y-37858000D01*
X106286921Y-37869601D01*
G37*
G36*
X123196921Y-37869601D02*
G01*
X123246363Y-37902637D01*
X123279399Y-37952079D01*
X123291000Y-38010400D01*
X123291000Y-39229600D01*
X123279399Y-39287921D01*
X123246363Y-39337363D01*
X123196921Y-39370399D01*
X123138600Y-39382000D01*
X121011400Y-39382000D01*
X120953079Y-39370399D01*
X120903637Y-39337363D01*
X120870601Y-39287921D01*
X120870352Y-39286672D01*
X120865450Y-39281770D01*
X120756592Y-39209034D01*
X120650966Y-39103408D01*
X120567976Y-38979204D01*
X120510811Y-38841197D01*
X120481669Y-38694689D01*
X120481669Y-38545311D01*
X120510811Y-38398803D01*
X120567976Y-38260796D01*
X120650966Y-38136592D01*
X120756592Y-38030966D01*
X120865447Y-37958231D01*
X120870352Y-37953326D01*
X120870601Y-37952079D01*
X120903637Y-37902637D01*
X120953079Y-37869601D01*
X121011400Y-37858000D01*
X123138600Y-37858000D01*
X123196921Y-37869601D01*
G37*
G36*
X106286921Y-35329601D02*
G01*
X106336363Y-35362637D01*
X106369399Y-35412079D01*
X106369647Y-35413327D01*
X106374549Y-35418229D01*
X106483408Y-35490966D01*
X106589034Y-35596592D01*
X106672024Y-35720796D01*
X106729189Y-35858803D01*
X106758331Y-36005311D01*
X106758331Y-36154689D01*
X106729189Y-36301197D01*
X106672024Y-36439204D01*
X106589034Y-36563408D01*
X106483408Y-36669034D01*
X106374546Y-36741772D01*
X106369647Y-36746671D01*
X106369399Y-36747921D01*
X106336363Y-36797363D01*
X106286921Y-36830399D01*
X106228600Y-36842000D01*
X104101400Y-36842000D01*
X104043079Y-36830399D01*
X103993637Y-36797363D01*
X103960601Y-36747921D01*
X103949000Y-36689600D01*
X103949000Y-35470400D01*
X103960601Y-35412079D01*
X103993637Y-35362637D01*
X104043079Y-35329601D01*
X104101400Y-35318000D01*
X106228600Y-35318000D01*
X106286921Y-35329601D01*
G37*
G36*
X123196921Y-35329601D02*
G01*
X123246363Y-35362637D01*
X123279399Y-35412079D01*
X123291000Y-35470400D01*
X123291000Y-36689600D01*
X123279399Y-36747921D01*
X123246363Y-36797363D01*
X123196921Y-36830399D01*
X123138600Y-36842000D01*
X121011400Y-36842000D01*
X120953079Y-36830399D01*
X120903637Y-36797363D01*
X120870601Y-36747921D01*
X120870352Y-36746672D01*
X120865450Y-36741770D01*
X120756592Y-36669034D01*
X120650966Y-36563408D01*
X120567976Y-36439204D01*
X120510811Y-36301197D01*
X120481669Y-36154689D01*
X120481669Y-36005311D01*
X120510811Y-35858803D01*
X120567976Y-35720796D01*
X120650966Y-35596592D01*
X120756592Y-35490966D01*
X120865447Y-35418231D01*
X120870352Y-35413326D01*
X120870601Y-35412079D01*
X120903637Y-35362637D01*
X120953079Y-35329601D01*
X121011400Y-35318000D01*
X123138600Y-35318000D01*
X123196921Y-35329601D01*
G37*
G36*
X106286921Y-32789601D02*
G01*
X106336363Y-32822637D01*
X106369399Y-32872079D01*
X106369647Y-32873327D01*
X106374549Y-32878229D01*
X106483408Y-32950966D01*
X106589034Y-33056592D01*
X106672024Y-33180796D01*
X106729189Y-33318803D01*
X106758331Y-33465311D01*
X106758331Y-33614689D01*
X106729189Y-33761197D01*
X106672024Y-33899204D01*
X106589034Y-34023408D01*
X106483408Y-34129034D01*
X106374546Y-34201772D01*
X106369647Y-34206671D01*
X106369399Y-34207921D01*
X106336363Y-34257363D01*
X106286921Y-34290399D01*
X106228600Y-34302000D01*
X104101400Y-34302000D01*
X104043079Y-34290399D01*
X103993637Y-34257363D01*
X103960601Y-34207921D01*
X103949000Y-34149600D01*
X103949000Y-32930400D01*
X103960601Y-32872079D01*
X103993637Y-32822637D01*
X104043079Y-32789601D01*
X104101400Y-32778000D01*
X106228600Y-32778000D01*
X106286921Y-32789601D01*
G37*
G36*
X123196921Y-32789601D02*
G01*
X123246363Y-32822637D01*
X123279399Y-32872079D01*
X123291000Y-32930400D01*
X123291000Y-34149600D01*
X123279399Y-34207921D01*
X123246363Y-34257363D01*
X123196921Y-34290399D01*
X123138600Y-34302000D01*
X121011400Y-34302000D01*
X120953079Y-34290399D01*
X120903637Y-34257363D01*
X120870601Y-34207921D01*
X120870352Y-34206672D01*
X120865450Y-34201770D01*
X120756592Y-34129034D01*
X120650966Y-34023408D01*
X120567976Y-33899204D01*
X120510811Y-33761197D01*
X120481669Y-33614689D01*
X120481669Y-33465311D01*
X120510811Y-33318803D01*
X120567976Y-33180796D01*
X120650966Y-33056592D01*
X120756592Y-32950966D01*
X120865447Y-32878231D01*
X120870352Y-32873326D01*
X120870601Y-32872079D01*
X120903637Y-32822637D01*
X120953079Y-32789601D01*
X121011400Y-32778000D01*
X123138600Y-32778000D01*
X123196921Y-32789601D01*
G37*
G36*
X106286921Y-30249601D02*
G01*
X106336363Y-30282637D01*
X106369399Y-30332079D01*
X106369647Y-30333327D01*
X106374549Y-30338229D01*
X106483408Y-30410966D01*
X106589034Y-30516592D01*
X106672024Y-30640796D01*
X106729189Y-30778803D01*
X106758331Y-30925311D01*
X106758331Y-31074689D01*
X106729189Y-31221197D01*
X106672024Y-31359204D01*
X106589034Y-31483408D01*
X106483408Y-31589034D01*
X106374546Y-31661772D01*
X106369647Y-31666671D01*
X106369399Y-31667921D01*
X106336363Y-31717363D01*
X106286921Y-31750399D01*
X106228600Y-31762000D01*
X104101400Y-31762000D01*
X104043079Y-31750399D01*
X103993637Y-31717363D01*
X103960601Y-31667921D01*
X103949000Y-31609600D01*
X103949000Y-30390400D01*
X103960601Y-30332079D01*
X103993637Y-30282637D01*
X104043079Y-30249601D01*
X104101400Y-30238000D01*
X106228600Y-30238000D01*
X106286921Y-30249601D01*
G37*
G36*
X123196921Y-30249601D02*
G01*
X123246363Y-30282637D01*
X123279399Y-30332079D01*
X123291000Y-30390400D01*
X123291000Y-31609600D01*
X123279399Y-31667921D01*
X123246363Y-31717363D01*
X123196921Y-31750399D01*
X123138600Y-31762000D01*
X121011400Y-31762000D01*
X120953079Y-31750399D01*
X120903637Y-31717363D01*
X120870601Y-31667921D01*
X120870352Y-31666672D01*
X120865450Y-31661770D01*
X120756592Y-31589034D01*
X120650966Y-31483408D01*
X120567976Y-31359204D01*
X120510811Y-31221197D01*
X120481669Y-31074689D01*
X120481669Y-30925311D01*
X120510811Y-30778803D01*
X120567976Y-30640796D01*
X120650966Y-30516592D01*
X120756592Y-30410966D01*
X120865447Y-30338231D01*
X120870352Y-30333326D01*
X120870601Y-30332079D01*
X120903637Y-30282637D01*
X120953079Y-30249601D01*
X121011400Y-30238000D01*
X123138600Y-30238000D01*
X123196921Y-30249601D01*
G37*
%LPD*%
M02*
