%TF.GenerationSoftware,KiCad,Pcbnew,10.0.0*%
%TF.CreationDate,2026-05-12T19:48:04+02:00*%
%TF.ProjectId,esp32-c6-motion-light,65737033-322d-4633-962d-6d6f74696f6e,rev?*%
%TF.SameCoordinates,Original*%
%TF.FileFunction,Legend,Bot*%
%TF.FilePolarity,Positive*%
%FSLAX46Y46*%
G04 Gerber Fmt 4.6, Leading zero omitted, Abs format (unit mm)*
G04 Created by KiCad (PCBNEW 10.0.0) date 2026-05-12 19:48:04*
%MOMM*%
%LPD*%
G01*
G04 APERTURE LIST*
G04 APERTURE END LIST*
%LPC*%
G36*
X113010000Y-79750000D02*
G01*
X111310000Y-79750000D01*
X111310000Y-78050000D01*
X113010000Y-78050000D01*
X113010000Y-79750000D01*
G37*
G36*
X114946742Y-78086601D02*
G01*
X115100687Y-78150367D01*
X115239234Y-78242941D01*
X115357059Y-78360766D01*
X115449633Y-78499313D01*
X115513399Y-78653258D01*
X115545907Y-78816685D01*
X115545907Y-78983315D01*
X115513399Y-79146742D01*
X115449633Y-79300687D01*
X115357059Y-79439234D01*
X115239234Y-79557059D01*
X115100687Y-79649633D01*
X114946742Y-79713399D01*
X114783315Y-79745907D01*
X114616685Y-79745907D01*
X114453258Y-79713399D01*
X114299313Y-79649633D01*
X114160766Y-79557059D01*
X114042941Y-79439234D01*
X113950367Y-79300687D01*
X113886601Y-79146742D01*
X113854093Y-78983315D01*
X113854093Y-78816685D01*
X113886601Y-78653258D01*
X113950367Y-78499313D01*
X114042941Y-78360766D01*
X114160766Y-78242941D01*
X114299313Y-78150367D01*
X114453258Y-78086601D01*
X114616685Y-78054093D01*
X114783315Y-78054093D01*
X114946742Y-78086601D01*
G37*
G36*
X117486742Y-78086601D02*
G01*
X117640687Y-78150367D01*
X117779234Y-78242941D01*
X117897059Y-78360766D01*
X117989633Y-78499313D01*
X118053399Y-78653258D01*
X118085907Y-78816685D01*
X118085907Y-78983315D01*
X118053399Y-79146742D01*
X117989633Y-79300687D01*
X117897059Y-79439234D01*
X117779234Y-79557059D01*
X117640687Y-79649633D01*
X117486742Y-79713399D01*
X117323315Y-79745907D01*
X117156685Y-79745907D01*
X116993258Y-79713399D01*
X116839313Y-79649633D01*
X116700766Y-79557059D01*
X116582941Y-79439234D01*
X116490367Y-79300687D01*
X116426601Y-79146742D01*
X116394093Y-78983315D01*
X116394093Y-78816685D01*
X116426601Y-78653258D01*
X116490367Y-78499313D01*
X116582941Y-78360766D01*
X116700766Y-78242941D01*
X116839313Y-78150367D01*
X116993258Y-78086601D01*
X117156685Y-78054093D01*
X117323315Y-78054093D01*
X117486742Y-78086601D01*
G37*
G36*
X111600000Y-75300000D02*
G01*
X109600000Y-75300000D01*
X109600000Y-73300000D01*
X111600000Y-73300000D01*
X111600000Y-75300000D01*
G37*
G36*
X115500000Y-75300000D02*
G01*
X113500000Y-75300000D01*
X113500000Y-73300000D01*
X115500000Y-73300000D01*
X115500000Y-75300000D01*
G37*
G36*
X119500000Y-75300000D02*
G01*
X117500000Y-75300000D01*
X117500000Y-73300000D01*
X119500000Y-73300000D01*
X119500000Y-75300000D01*
G37*
G36*
X123500000Y-75300000D02*
G01*
X121500000Y-75300000D01*
X121500000Y-73300000D01*
X123500000Y-73300000D01*
X123500000Y-75300000D01*
G37*
G36*
X113310000Y-61750000D02*
G01*
X111610000Y-61750000D01*
X111610000Y-60050000D01*
X113310000Y-60050000D01*
X113310000Y-61750000D01*
G37*
G36*
X115246742Y-60086601D02*
G01*
X115400687Y-60150367D01*
X115539234Y-60242941D01*
X115657059Y-60360766D01*
X115749633Y-60499313D01*
X115813399Y-60653258D01*
X115845907Y-60816685D01*
X115845907Y-60983315D01*
X115813399Y-61146742D01*
X115749633Y-61300687D01*
X115657059Y-61439234D01*
X115539234Y-61557059D01*
X115400687Y-61649633D01*
X115246742Y-61713399D01*
X115083315Y-61745907D01*
X114916685Y-61745907D01*
X114753258Y-61713399D01*
X114599313Y-61649633D01*
X114460766Y-61557059D01*
X114342941Y-61439234D01*
X114250367Y-61300687D01*
X114186601Y-61146742D01*
X114154093Y-60983315D01*
X114154093Y-60816685D01*
X114186601Y-60653258D01*
X114250367Y-60499313D01*
X114342941Y-60360766D01*
X114460766Y-60242941D01*
X114599313Y-60150367D01*
X114753258Y-60086601D01*
X114916685Y-60054093D01*
X115083315Y-60054093D01*
X115246742Y-60086601D01*
G37*
G36*
X117786742Y-60086601D02*
G01*
X117940687Y-60150367D01*
X118079234Y-60242941D01*
X118197059Y-60360766D01*
X118289633Y-60499313D01*
X118353399Y-60653258D01*
X118385907Y-60816685D01*
X118385907Y-60983315D01*
X118353399Y-61146742D01*
X118289633Y-61300687D01*
X118197059Y-61439234D01*
X118079234Y-61557059D01*
X117940687Y-61649633D01*
X117786742Y-61713399D01*
X117623315Y-61745907D01*
X117456685Y-61745907D01*
X117293258Y-61713399D01*
X117139313Y-61649633D01*
X117000766Y-61557059D01*
X116882941Y-61439234D01*
X116790367Y-61300687D01*
X116726601Y-61146742D01*
X116694093Y-60983315D01*
X116694093Y-60816685D01*
X116726601Y-60653258D01*
X116790367Y-60499313D01*
X116882941Y-60360766D01*
X117000766Y-60242941D01*
X117139313Y-60150367D01*
X117293258Y-60086601D01*
X117456685Y-60054093D01*
X117623315Y-60054093D01*
X117786742Y-60086601D01*
G37*
G36*
X125246742Y-56066601D02*
G01*
X125400687Y-56130367D01*
X125539234Y-56222941D01*
X125657059Y-56340766D01*
X125749633Y-56479313D01*
X125813399Y-56633258D01*
X125845907Y-56796685D01*
X125845907Y-56963315D01*
X125813399Y-57126742D01*
X125749633Y-57280687D01*
X125657059Y-57419234D01*
X125539234Y-57537059D01*
X125400687Y-57629633D01*
X125246742Y-57693399D01*
X125083315Y-57725907D01*
X124916685Y-57725907D01*
X124753258Y-57693399D01*
X124599313Y-57629633D01*
X124460766Y-57537059D01*
X124342941Y-57419234D01*
X124250367Y-57280687D01*
X124186601Y-57126742D01*
X124154093Y-56963315D01*
X124154093Y-56796685D01*
X124186601Y-56633258D01*
X124250367Y-56479313D01*
X124342941Y-56340766D01*
X124460766Y-56222941D01*
X124599313Y-56130367D01*
X124753258Y-56066601D01*
X124916685Y-56034093D01*
X125083315Y-56034093D01*
X125246742Y-56066601D01*
G37*
G36*
X108833315Y-54654093D02*
G01*
X108996742Y-54686601D01*
X109150687Y-54750367D01*
X109289234Y-54842941D01*
X109407059Y-54960766D01*
X109499633Y-55099313D01*
X109563399Y-55253258D01*
X109595907Y-55416685D01*
X109595907Y-55583315D01*
X109563399Y-55746742D01*
X109499633Y-55900687D01*
X109407059Y-56039234D01*
X109289234Y-56157059D01*
X109150687Y-56249633D01*
X108996742Y-56313399D01*
X108833315Y-56345907D01*
X108750000Y-56350000D01*
X108748522Y-56350000D01*
X108451478Y-56350000D01*
X108450000Y-56350000D01*
X108366685Y-56345907D01*
X108203258Y-56313399D01*
X108049313Y-56249633D01*
X107910766Y-56157059D01*
X107792941Y-56039234D01*
X107700367Y-55900687D01*
X107636601Y-55746742D01*
X107604093Y-55583315D01*
X107604093Y-55416685D01*
X107636601Y-55253258D01*
X107700367Y-55099313D01*
X107792941Y-54960766D01*
X107910766Y-54842941D01*
X108049313Y-54750367D01*
X108203258Y-54686601D01*
X108366685Y-54654093D01*
X108450000Y-54650000D01*
X108750000Y-54650000D01*
X108833315Y-54654093D01*
G37*
G36*
X118833315Y-54654093D02*
G01*
X118996742Y-54686601D01*
X119150687Y-54750367D01*
X119289234Y-54842941D01*
X119407059Y-54960766D01*
X119499633Y-55099313D01*
X119563399Y-55253258D01*
X119595907Y-55416685D01*
X119595907Y-55583315D01*
X119563399Y-55746742D01*
X119499633Y-55900687D01*
X119407059Y-56039234D01*
X119289234Y-56157059D01*
X119150687Y-56249633D01*
X118996742Y-56313399D01*
X118833315Y-56345907D01*
X118750000Y-56350000D01*
X118748522Y-56350000D01*
X118451478Y-56350000D01*
X118450000Y-56350000D01*
X118366685Y-56345907D01*
X118203258Y-56313399D01*
X118049313Y-56249633D01*
X117910766Y-56157059D01*
X117792941Y-56039234D01*
X117700367Y-55900687D01*
X117636601Y-55746742D01*
X117604093Y-55583315D01*
X117604093Y-55416685D01*
X117636601Y-55253258D01*
X117700367Y-55099313D01*
X117792941Y-54960766D01*
X117910766Y-54842941D01*
X118049313Y-54750367D01*
X118203258Y-54686601D01*
X118366685Y-54654093D01*
X118450000Y-54650000D01*
X118750000Y-54650000D01*
X118833315Y-54654093D01*
G37*
G36*
X125246742Y-53526601D02*
G01*
X125400687Y-53590367D01*
X125539234Y-53682941D01*
X125657059Y-53800766D01*
X125749633Y-53939313D01*
X125813399Y-54093258D01*
X125845907Y-54256685D01*
X125845907Y-54423315D01*
X125813399Y-54586742D01*
X125749633Y-54740687D01*
X125657059Y-54879234D01*
X125539234Y-54997059D01*
X125400687Y-55089633D01*
X125246742Y-55153399D01*
X125083315Y-55185907D01*
X124916685Y-55185907D01*
X124753258Y-55153399D01*
X124599313Y-55089633D01*
X124460766Y-54997059D01*
X124342941Y-54879234D01*
X124250367Y-54740687D01*
X124186601Y-54586742D01*
X124154093Y-54423315D01*
X124154093Y-54256685D01*
X124186601Y-54093258D01*
X124250367Y-53939313D01*
X124342941Y-53800766D01*
X124460766Y-53682941D01*
X124599313Y-53590367D01*
X124753258Y-53526601D01*
X124916685Y-53494093D01*
X125083315Y-53494093D01*
X125246742Y-53526601D01*
G37*
G36*
X109354850Y-52150964D02*
G01*
X109405040Y-52156787D01*
X109422189Y-52164359D01*
X109445671Y-52169030D01*
X109470810Y-52185827D01*
X109490696Y-52194608D01*
X109504277Y-52208189D01*
X109526777Y-52223223D01*
X109541810Y-52245722D01*
X109555391Y-52259303D01*
X109564170Y-52279186D01*
X109580970Y-52304329D01*
X109585641Y-52327812D01*
X109593212Y-52344959D01*
X109599033Y-52395139D01*
X109600000Y-52400000D01*
X109600000Y-53600000D01*
X109599032Y-53604863D01*
X109593212Y-53655040D01*
X109585641Y-53672185D01*
X109580970Y-53695671D01*
X109564169Y-53720815D01*
X109555391Y-53740696D01*
X109541812Y-53754274D01*
X109526777Y-53776777D01*
X109504274Y-53791812D01*
X109490696Y-53805391D01*
X109470815Y-53814169D01*
X109445671Y-53830970D01*
X109422185Y-53835641D01*
X109405040Y-53843212D01*
X109354861Y-53849032D01*
X109350000Y-53850000D01*
X107850000Y-53850000D01*
X107845138Y-53849032D01*
X107794959Y-53843212D01*
X107777812Y-53835641D01*
X107754329Y-53830970D01*
X107729186Y-53814170D01*
X107709303Y-53805391D01*
X107695722Y-53791810D01*
X107673223Y-53776777D01*
X107658189Y-53754277D01*
X107644608Y-53740696D01*
X107635827Y-53720810D01*
X107619030Y-53695671D01*
X107614359Y-53672189D01*
X107606787Y-53655040D01*
X107600964Y-53604849D01*
X107600000Y-53600000D01*
X107600000Y-52400000D01*
X107600964Y-52395150D01*
X107606787Y-52344959D01*
X107614359Y-52327808D01*
X107619030Y-52304329D01*
X107635826Y-52279191D01*
X107644608Y-52259303D01*
X107658191Y-52245719D01*
X107673223Y-52223223D01*
X107695719Y-52208191D01*
X107709303Y-52194608D01*
X107729191Y-52185826D01*
X107754329Y-52169030D01*
X107777808Y-52164359D01*
X107794959Y-52156787D01*
X107845151Y-52150964D01*
X107850000Y-52150000D01*
X109350000Y-52150000D01*
X109354850Y-52150964D01*
G37*
G36*
X119354850Y-52150964D02*
G01*
X119405040Y-52156787D01*
X119422189Y-52164359D01*
X119445671Y-52169030D01*
X119470810Y-52185827D01*
X119490696Y-52194608D01*
X119504277Y-52208189D01*
X119526777Y-52223223D01*
X119541810Y-52245722D01*
X119555391Y-52259303D01*
X119564170Y-52279186D01*
X119580970Y-52304329D01*
X119585641Y-52327812D01*
X119593212Y-52344959D01*
X119599033Y-52395139D01*
X119600000Y-52400000D01*
X119600000Y-53600000D01*
X119599032Y-53604863D01*
X119593212Y-53655040D01*
X119585641Y-53672185D01*
X119580970Y-53695671D01*
X119564169Y-53720815D01*
X119555391Y-53740696D01*
X119541812Y-53754274D01*
X119526777Y-53776777D01*
X119504274Y-53791812D01*
X119490696Y-53805391D01*
X119470815Y-53814169D01*
X119445671Y-53830970D01*
X119422185Y-53835641D01*
X119405040Y-53843212D01*
X119354861Y-53849032D01*
X119350000Y-53850000D01*
X117850000Y-53850000D01*
X117845138Y-53849032D01*
X117794959Y-53843212D01*
X117777812Y-53835641D01*
X117754329Y-53830970D01*
X117729186Y-53814170D01*
X117709303Y-53805391D01*
X117695722Y-53791810D01*
X117673223Y-53776777D01*
X117658189Y-53754277D01*
X117644608Y-53740696D01*
X117635827Y-53720810D01*
X117619030Y-53695671D01*
X117614359Y-53672189D01*
X117606787Y-53655040D01*
X117600964Y-53604849D01*
X117600000Y-53600000D01*
X117600000Y-52400000D01*
X117600964Y-52395150D01*
X117606787Y-52344959D01*
X117614359Y-52327808D01*
X117619030Y-52304329D01*
X117635826Y-52279191D01*
X117644608Y-52259303D01*
X117658191Y-52245719D01*
X117673223Y-52223223D01*
X117695719Y-52208191D01*
X117709303Y-52194608D01*
X117729191Y-52185826D01*
X117754329Y-52169030D01*
X117777808Y-52164359D01*
X117794959Y-52156787D01*
X117845151Y-52150964D01*
X117850000Y-52150000D01*
X119350000Y-52150000D01*
X119354850Y-52150964D01*
G37*
G36*
X125850000Y-52650000D02*
G01*
X124150000Y-52650000D01*
X124150000Y-50950000D01*
X125850000Y-50950000D01*
X125850000Y-52650000D01*
G37*
G36*
X106221197Y-45510811D02*
G01*
X106359204Y-45567976D01*
X106483408Y-45650966D01*
X106589034Y-45756592D01*
X106672024Y-45880796D01*
X106729189Y-46018803D01*
X106758331Y-46165311D01*
X106758331Y-46314689D01*
X106729189Y-46461197D01*
X106672024Y-46599204D01*
X106589034Y-46723408D01*
X106483408Y-46829034D01*
X106359204Y-46912024D01*
X106221197Y-46969189D01*
X106074689Y-46998331D01*
X105925311Y-46998331D01*
X105778803Y-46969189D01*
X105640796Y-46912024D01*
X105516592Y-46829034D01*
X105410966Y-46723408D01*
X105327976Y-46599204D01*
X105270811Y-46461197D01*
X105241669Y-46314689D01*
X105241669Y-46165311D01*
X105270811Y-46018803D01*
X105327976Y-45880796D01*
X105410966Y-45756592D01*
X105516592Y-45650966D01*
X105640796Y-45567976D01*
X105778803Y-45510811D01*
X105925311Y-45481669D01*
X106074689Y-45481669D01*
X106221197Y-45510811D01*
G37*
G36*
X121461197Y-45510811D02*
G01*
X121599204Y-45567976D01*
X121723408Y-45650966D01*
X121829034Y-45756592D01*
X121912024Y-45880796D01*
X121969189Y-46018803D01*
X121998331Y-46165311D01*
X121998331Y-46314689D01*
X121969189Y-46461197D01*
X121912024Y-46599204D01*
X121829034Y-46723408D01*
X121723408Y-46829034D01*
X121599204Y-46912024D01*
X121461197Y-46969189D01*
X121314689Y-46998331D01*
X121165311Y-46998331D01*
X121018803Y-46969189D01*
X120880796Y-46912024D01*
X120756592Y-46829034D01*
X120650966Y-46723408D01*
X120567976Y-46599204D01*
X120510811Y-46461197D01*
X120481669Y-46314689D01*
X120481669Y-46165311D01*
X120510811Y-46018803D01*
X120567976Y-45880796D01*
X120650966Y-45756592D01*
X120756592Y-45650966D01*
X120880796Y-45567976D01*
X121018803Y-45510811D01*
X121165311Y-45481669D01*
X121314689Y-45481669D01*
X121461197Y-45510811D01*
G37*
G36*
X106221197Y-42970811D02*
G01*
X106359204Y-43027976D01*
X106483408Y-43110966D01*
X106589034Y-43216592D01*
X106672024Y-43340796D01*
X106729189Y-43478803D01*
X106758331Y-43625311D01*
X106758331Y-43774689D01*
X106729189Y-43921197D01*
X106672024Y-44059204D01*
X106589034Y-44183408D01*
X106483408Y-44289034D01*
X106359204Y-44372024D01*
X106221197Y-44429189D01*
X106074689Y-44458331D01*
X105925311Y-44458331D01*
X105778803Y-44429189D01*
X105640796Y-44372024D01*
X105516592Y-44289034D01*
X105410966Y-44183408D01*
X105327976Y-44059204D01*
X105270811Y-43921197D01*
X105241669Y-43774689D01*
X105241669Y-43625311D01*
X105270811Y-43478803D01*
X105327976Y-43340796D01*
X105410966Y-43216592D01*
X105516592Y-43110966D01*
X105640796Y-43027976D01*
X105778803Y-42970811D01*
X105925311Y-42941669D01*
X106074689Y-42941669D01*
X106221197Y-42970811D01*
G37*
G36*
X121461197Y-42970811D02*
G01*
X121599204Y-43027976D01*
X121723408Y-43110966D01*
X121829034Y-43216592D01*
X121912024Y-43340796D01*
X121969189Y-43478803D01*
X121998331Y-43625311D01*
X121998331Y-43774689D01*
X121969189Y-43921197D01*
X121912024Y-44059204D01*
X121829034Y-44183408D01*
X121723408Y-44289034D01*
X121599204Y-44372024D01*
X121461197Y-44429189D01*
X121314689Y-44458331D01*
X121165311Y-44458331D01*
X121018803Y-44429189D01*
X120880796Y-44372024D01*
X120756592Y-44289034D01*
X120650966Y-44183408D01*
X120567976Y-44059204D01*
X120510811Y-43921197D01*
X120481669Y-43774689D01*
X120481669Y-43625311D01*
X120510811Y-43478803D01*
X120567976Y-43340796D01*
X120650966Y-43216592D01*
X120756592Y-43110966D01*
X120880796Y-43027976D01*
X121018803Y-42970811D01*
X121165311Y-42941669D01*
X121314689Y-42941669D01*
X121461197Y-42970811D01*
G37*
G36*
X106221197Y-40430811D02*
G01*
X106359204Y-40487976D01*
X106483408Y-40570966D01*
X106589034Y-40676592D01*
X106672024Y-40800796D01*
X106729189Y-40938803D01*
X106758331Y-41085311D01*
X106758331Y-41234689D01*
X106729189Y-41381197D01*
X106672024Y-41519204D01*
X106589034Y-41643408D01*
X106483408Y-41749034D01*
X106359204Y-41832024D01*
X106221197Y-41889189D01*
X106074689Y-41918331D01*
X105925311Y-41918331D01*
X105778803Y-41889189D01*
X105640796Y-41832024D01*
X105516592Y-41749034D01*
X105410966Y-41643408D01*
X105327976Y-41519204D01*
X105270811Y-41381197D01*
X105241669Y-41234689D01*
X105241669Y-41085311D01*
X105270811Y-40938803D01*
X105327976Y-40800796D01*
X105410966Y-40676592D01*
X105516592Y-40570966D01*
X105640796Y-40487976D01*
X105778803Y-40430811D01*
X105925311Y-40401669D01*
X106074689Y-40401669D01*
X106221197Y-40430811D01*
G37*
G36*
X121461197Y-40430811D02*
G01*
X121599204Y-40487976D01*
X121723408Y-40570966D01*
X121829034Y-40676592D01*
X121912024Y-40800796D01*
X121969189Y-40938803D01*
X121998331Y-41085311D01*
X121998331Y-41234689D01*
X121969189Y-41381197D01*
X121912024Y-41519204D01*
X121829034Y-41643408D01*
X121723408Y-41749034D01*
X121599204Y-41832024D01*
X121461197Y-41889189D01*
X121314689Y-41918331D01*
X121165311Y-41918331D01*
X121018803Y-41889189D01*
X120880796Y-41832024D01*
X120756592Y-41749034D01*
X120650966Y-41643408D01*
X120567976Y-41519204D01*
X120510811Y-41381197D01*
X120481669Y-41234689D01*
X120481669Y-41085311D01*
X120510811Y-40938803D01*
X120567976Y-40800796D01*
X120650966Y-40676592D01*
X120756592Y-40570966D01*
X120880796Y-40487976D01*
X121018803Y-40430811D01*
X121165311Y-40401669D01*
X121314689Y-40401669D01*
X121461197Y-40430811D01*
G37*
G36*
X106221197Y-37890811D02*
G01*
X106359204Y-37947976D01*
X106483408Y-38030966D01*
X106589034Y-38136592D01*
X106672024Y-38260796D01*
X106729189Y-38398803D01*
X106758331Y-38545311D01*
X106758331Y-38694689D01*
X106729189Y-38841197D01*
X106672024Y-38979204D01*
X106589034Y-39103408D01*
X106483408Y-39209034D01*
X106359204Y-39292024D01*
X106221197Y-39349189D01*
X106074689Y-39378331D01*
X105925311Y-39378331D01*
X105778803Y-39349189D01*
X105640796Y-39292024D01*
X105516592Y-39209034D01*
X105410966Y-39103408D01*
X105327976Y-38979204D01*
X105270811Y-38841197D01*
X105241669Y-38694689D01*
X105241669Y-38545311D01*
X105270811Y-38398803D01*
X105327976Y-38260796D01*
X105410966Y-38136592D01*
X105516592Y-38030966D01*
X105640796Y-37947976D01*
X105778803Y-37890811D01*
X105925311Y-37861669D01*
X106074689Y-37861669D01*
X106221197Y-37890811D01*
G37*
G36*
X121461197Y-37890811D02*
G01*
X121599204Y-37947976D01*
X121723408Y-38030966D01*
X121829034Y-38136592D01*
X121912024Y-38260796D01*
X121969189Y-38398803D01*
X121998331Y-38545311D01*
X121998331Y-38694689D01*
X121969189Y-38841197D01*
X121912024Y-38979204D01*
X121829034Y-39103408D01*
X121723408Y-39209034D01*
X121599204Y-39292024D01*
X121461197Y-39349189D01*
X121314689Y-39378331D01*
X121165311Y-39378331D01*
X121018803Y-39349189D01*
X120880796Y-39292024D01*
X120756592Y-39209034D01*
X120650966Y-39103408D01*
X120567976Y-38979204D01*
X120510811Y-38841197D01*
X120481669Y-38694689D01*
X120481669Y-38545311D01*
X120510811Y-38398803D01*
X120567976Y-38260796D01*
X120650966Y-38136592D01*
X120756592Y-38030966D01*
X120880796Y-37947976D01*
X121018803Y-37890811D01*
X121165311Y-37861669D01*
X121314689Y-37861669D01*
X121461197Y-37890811D01*
G37*
G36*
X106221197Y-35350811D02*
G01*
X106359204Y-35407976D01*
X106483408Y-35490966D01*
X106589034Y-35596592D01*
X106672024Y-35720796D01*
X106729189Y-35858803D01*
X106758331Y-36005311D01*
X106758331Y-36154689D01*
X106729189Y-36301197D01*
X106672024Y-36439204D01*
X106589034Y-36563408D01*
X106483408Y-36669034D01*
X106359204Y-36752024D01*
X106221197Y-36809189D01*
X106074689Y-36838331D01*
X105925311Y-36838331D01*
X105778803Y-36809189D01*
X105640796Y-36752024D01*
X105516592Y-36669034D01*
X105410966Y-36563408D01*
X105327976Y-36439204D01*
X105270811Y-36301197D01*
X105241669Y-36154689D01*
X105241669Y-36005311D01*
X105270811Y-35858803D01*
X105327976Y-35720796D01*
X105410966Y-35596592D01*
X105516592Y-35490966D01*
X105640796Y-35407976D01*
X105778803Y-35350811D01*
X105925311Y-35321669D01*
X106074689Y-35321669D01*
X106221197Y-35350811D01*
G37*
G36*
X121461197Y-35350811D02*
G01*
X121599204Y-35407976D01*
X121723408Y-35490966D01*
X121829034Y-35596592D01*
X121912024Y-35720796D01*
X121969189Y-35858803D01*
X121998331Y-36005311D01*
X121998331Y-36154689D01*
X121969189Y-36301197D01*
X121912024Y-36439204D01*
X121829034Y-36563408D01*
X121723408Y-36669034D01*
X121599204Y-36752024D01*
X121461197Y-36809189D01*
X121314689Y-36838331D01*
X121165311Y-36838331D01*
X121018803Y-36809189D01*
X120880796Y-36752024D01*
X120756592Y-36669034D01*
X120650966Y-36563408D01*
X120567976Y-36439204D01*
X120510811Y-36301197D01*
X120481669Y-36154689D01*
X120481669Y-36005311D01*
X120510811Y-35858803D01*
X120567976Y-35720796D01*
X120650966Y-35596592D01*
X120756592Y-35490966D01*
X120880796Y-35407976D01*
X121018803Y-35350811D01*
X121165311Y-35321669D01*
X121314689Y-35321669D01*
X121461197Y-35350811D01*
G37*
G36*
X106221197Y-32810811D02*
G01*
X106359204Y-32867976D01*
X106483408Y-32950966D01*
X106589034Y-33056592D01*
X106672024Y-33180796D01*
X106729189Y-33318803D01*
X106758331Y-33465311D01*
X106758331Y-33614689D01*
X106729189Y-33761197D01*
X106672024Y-33899204D01*
X106589034Y-34023408D01*
X106483408Y-34129034D01*
X106359204Y-34212024D01*
X106221197Y-34269189D01*
X106074689Y-34298331D01*
X105925311Y-34298331D01*
X105778803Y-34269189D01*
X105640796Y-34212024D01*
X105516592Y-34129034D01*
X105410966Y-34023408D01*
X105327976Y-33899204D01*
X105270811Y-33761197D01*
X105241669Y-33614689D01*
X105241669Y-33465311D01*
X105270811Y-33318803D01*
X105327976Y-33180796D01*
X105410966Y-33056592D01*
X105516592Y-32950966D01*
X105640796Y-32867976D01*
X105778803Y-32810811D01*
X105925311Y-32781669D01*
X106074689Y-32781669D01*
X106221197Y-32810811D01*
G37*
G36*
X121461197Y-32810811D02*
G01*
X121599204Y-32867976D01*
X121723408Y-32950966D01*
X121829034Y-33056592D01*
X121912024Y-33180796D01*
X121969189Y-33318803D01*
X121998331Y-33465311D01*
X121998331Y-33614689D01*
X121969189Y-33761197D01*
X121912024Y-33899204D01*
X121829034Y-34023408D01*
X121723408Y-34129034D01*
X121599204Y-34212024D01*
X121461197Y-34269189D01*
X121314689Y-34298331D01*
X121165311Y-34298331D01*
X121018803Y-34269189D01*
X120880796Y-34212024D01*
X120756592Y-34129034D01*
X120650966Y-34023408D01*
X120567976Y-33899204D01*
X120510811Y-33761197D01*
X120481669Y-33614689D01*
X120481669Y-33465311D01*
X120510811Y-33318803D01*
X120567976Y-33180796D01*
X120650966Y-33056592D01*
X120756592Y-32950966D01*
X120880796Y-32867976D01*
X121018803Y-32810811D01*
X121165311Y-32781669D01*
X121314689Y-32781669D01*
X121461197Y-32810811D01*
G37*
G36*
X106221197Y-30270811D02*
G01*
X106359204Y-30327976D01*
X106483408Y-30410966D01*
X106589034Y-30516592D01*
X106672024Y-30640796D01*
X106729189Y-30778803D01*
X106758331Y-30925311D01*
X106758331Y-31074689D01*
X106729189Y-31221197D01*
X106672024Y-31359204D01*
X106589034Y-31483408D01*
X106483408Y-31589034D01*
X106359204Y-31672024D01*
X106221197Y-31729189D01*
X106074689Y-31758331D01*
X105925311Y-31758331D01*
X105778803Y-31729189D01*
X105640796Y-31672024D01*
X105516592Y-31589034D01*
X105410966Y-31483408D01*
X105327976Y-31359204D01*
X105270811Y-31221197D01*
X105241669Y-31074689D01*
X105241669Y-30925311D01*
X105270811Y-30778803D01*
X105327976Y-30640796D01*
X105410966Y-30516592D01*
X105516592Y-30410966D01*
X105640796Y-30327976D01*
X105778803Y-30270811D01*
X105925311Y-30241669D01*
X106074689Y-30241669D01*
X106221197Y-30270811D01*
G37*
G36*
X121461197Y-30270811D02*
G01*
X121599204Y-30327976D01*
X121723408Y-30410966D01*
X121829034Y-30516592D01*
X121912024Y-30640796D01*
X121969189Y-30778803D01*
X121998331Y-30925311D01*
X121998331Y-31074689D01*
X121969189Y-31221197D01*
X121912024Y-31359204D01*
X121829034Y-31483408D01*
X121723408Y-31589034D01*
X121599204Y-31672024D01*
X121461197Y-31729189D01*
X121314689Y-31758331D01*
X121165311Y-31758331D01*
X121018803Y-31729189D01*
X120880796Y-31672024D01*
X120756592Y-31589034D01*
X120650966Y-31483408D01*
X120567976Y-31359204D01*
X120510811Y-31221197D01*
X120481669Y-31074689D01*
X120481669Y-30925311D01*
X120510811Y-30778803D01*
X120567976Y-30640796D01*
X120650966Y-30516592D01*
X120756592Y-30410966D01*
X120880796Y-30327976D01*
X121018803Y-30270811D01*
X121165311Y-30241669D01*
X121314689Y-30241669D01*
X121461197Y-30270811D01*
G37*
%LPD*%
M02*
