%TF.GenerationSoftware,KiCad,Pcbnew,10.0.0*%
%TF.CreationDate,2026-05-12T19:48:04+02:00*%
%TF.ProjectId,esp32-c6-motion-light,65737033-322d-4633-962d-6d6f74696f6e,rev?*%
%TF.SameCoordinates,Original*%
%TF.FileFunction,Copper,L1,Top*%
%TF.FilePolarity,Positive*%
%FSLAX46Y46*%
G04 Gerber Fmt 4.6, Leading zero omitted, Abs format (unit mm)*
G04 Created by KiCad (PCBNEW 10.0.0) date 2026-05-12 19:48:04*
%MOMM*%
%LPD*%
G01*
G04 APERTURE LIST*
G04 Aperture macros list*
%AMRoundRect*
0 Rectangle with rounded corners*
0 $1 Rounding radius*
0 $2 $3 $4 $5 $6 $7 $8 $9 X,Y pos of 4 corners*
0 Add a 4 corners polygon primitive as box body*
4,1,4,$2,$3,$4,$5,$6,$7,$8,$9,$2,$3,0*
0 Add four circle primitives for the rounded corners*
1,1,$1+$1,$2,$3*
1,1,$1+$1,$4,$5*
1,1,$1+$1,$6,$7*
1,1,$1+$1,$8,$9*
0 Add four rect primitives between the rounded corners*
20,1,$1+$1,$2,$3,$4,$5,0*
20,1,$1+$1,$4,$5,$6,$7,0*
20,1,$1+$1,$6,$7,$8,$9,0*
20,1,$1+$1,$8,$9,$2,$3,0*%
%AMFreePoly0*
4,1,23,0.500000,-0.750000,0.000000,-0.750000,0.000000,-0.745722,-0.065263,-0.745722,-0.191342,-0.711940,-0.304381,-0.646677,-0.396677,-0.554381,-0.461940,-0.441342,-0.495722,-0.315263,-0.495722,-0.250000,-0.500000,-0.250000,-0.500000,0.250000,-0.495722,0.250000,-0.495722,0.315263,-0.461940,0.441342,-0.396677,0.554381,-0.304381,0.646677,-0.191342,0.711940,-0.065263,0.745722,0.000000,0.745722,
0.000000,0.750000,0.500000,0.750000,0.500000,-0.750000,0.500000,-0.750000,$1*%
%AMFreePoly1*
4,1,23,0.000000,0.745722,0.065263,0.745722,0.191342,0.711940,0.304381,0.646677,0.396677,0.554381,0.461940,0.441342,0.495722,0.315263,0.495722,0.250000,0.500000,0.250000,0.500000,-0.250000,0.495722,-0.250000,0.495722,-0.315263,0.461940,-0.441342,0.396677,-0.554381,0.304381,-0.646677,0.191342,-0.711940,0.065263,-0.745722,0.000000,-0.745722,0.000000,-0.750000,-0.500000,-0.750000,
-0.500000,0.750000,0.000000,0.750000,0.000000,0.745722,0.000000,0.745722,$1*%
G04 Aperture macros list end*
%TA.AperFunction,SMDPad,CuDef*%
%ADD10RoundRect,0.152400X1.063600X0.609600X-1.063600X0.609600X-1.063600X-0.609600X1.063600X-0.609600X0*%
%TD*%
%TA.AperFunction,ComponentPad*%
%ADD11C,1.524000*%
%TD*%
%TA.AperFunction,SMDPad,CuDef*%
%ADD12RoundRect,0.152400X-1.063600X-0.609600X1.063600X-0.609600X1.063600X0.609600X-1.063600X0.609600X0*%
%TD*%
%TA.AperFunction,ComponentPad*%
%ADD13R,1.700000X1.700000*%
%TD*%
%TA.AperFunction,ComponentPad*%
%ADD14C,1.700000*%
%TD*%
%TA.AperFunction,SMDPad,CuDef*%
%ADD15R,0.806000X0.864000*%
%TD*%
%TA.AperFunction,SMDPad,CuDef*%
%ADD16R,1.377000X1.133000*%
%TD*%
%TA.AperFunction,ComponentPad*%
%ADD17R,2.000000X2.000000*%
%TD*%
%TA.AperFunction,SMDPad,CuDef*%
%ADD18R,1.133000X1.377000*%
%TD*%
%TA.AperFunction,SMDPad,CuDef*%
%ADD19R,1.250000X0.700000*%
%TD*%
%TA.AperFunction,SMDPad,CuDef*%
%ADD20FreePoly0,90.000000*%
%TD*%
%TA.AperFunction,SMDPad,CuDef*%
%ADD21FreePoly1,90.000000*%
%TD*%
%TA.AperFunction,ComponentPad*%
%ADD22RoundRect,0.250000X-0.750000X0.600000X-0.750000X-0.600000X0.750000X-0.600000X0.750000X0.600000X0*%
%TD*%
%TA.AperFunction,ComponentPad*%
%ADD23O,2.000000X1.700000*%
%TD*%
%TA.AperFunction,SMDPad,CuDef*%
%ADD24R,0.532000X1.037000*%
%TD*%
%TA.AperFunction,ViaPad*%
%ADD25C,0.600000*%
%TD*%
%TA.AperFunction,Conductor*%
%ADD26C,0.600000*%
%TD*%
%TA.AperFunction,Conductor*%
%ADD27C,0.200000*%
%TD*%
%TA.AperFunction,Conductor*%
%ADD28C,0.400000*%
%TD*%
G04 APERTURE END LIST*
D10*
%TO.P,ESP32C6,1,GPIO0/A0/D0_1*%
%TO.N,/BATTERY_MONITORING*%
X105165000Y-31000000D03*
D11*
X106000000Y-31000000D03*
D10*
%TO.P,ESP32C6,2,GPIO1/A1/D1_2*%
%TO.N,/BATTERY_MONITORING_ENABLER*%
X105165000Y-33540000D03*
D11*
X106000000Y-33540000D03*
D10*
%TO.P,ESP32C6,3,GPIO2/A2/D2_3*%
%TO.N,/PIR_SENSOR*%
X105165000Y-36080000D03*
D11*
X106000000Y-36080000D03*
D10*
%TO.P,ESP32C6,4,GPIO21/D3_4*%
%TO.N,/LED_CONTROL*%
X105165000Y-38620000D03*
D11*
X106000000Y-38620000D03*
D10*
%TO.P,ESP32C6,5,GPIO22/D4/SDA_5*%
%TO.N,unconnected-(U1-GPIO22{slash}D4{slash}SDA-Pad5)_1*%
X105165000Y-41160000D03*
D11*
%TO.N,unconnected-(U1-GPIO22{slash}D4{slash}SDA-Pad5)*%
X106000000Y-41160000D03*
D10*
%TO.P,ESP32C6,6,GPIO23/D5/SCL_6*%
%TO.N,unconnected-(U1-GPIO23{slash}D5{slash}SCL-Pad6)_1*%
X105165000Y-43700000D03*
D11*
%TO.N,unconnected-(U1-GPIO23{slash}D5{slash}SCL-Pad6)*%
X106000000Y-43700000D03*
D10*
%TO.P,ESP32C6,7,GPIO16/D6/TX_7*%
%TO.N,unconnected-(U1-GPIO16{slash}D6{slash}TX-Pad7)_1*%
X105165000Y-46240000D03*
D11*
%TO.N,unconnected-(U1-GPIO16{slash}D6{slash}TX-Pad7)*%
X106000000Y-46240000D03*
%TO.P,ESP32C6,8,GPIO17/D7/RX_8*%
%TO.N,unconnected-(U1-GPIO17{slash}D7{slash}RX-Pad8)_1*%
X121240000Y-46240000D03*
D12*
%TO.N,unconnected-(U1-GPIO17{slash}D7{slash}RX-Pad8)*%
X122075000Y-46240000D03*
D11*
%TO.P,ESP32C6,9,GPIO19/D8/SCK_9*%
%TO.N,unconnected-(U1-GPIO19{slash}D8{slash}SCK-Pad9)*%
X121240000Y-43700000D03*
D12*
%TO.N,unconnected-(U1-GPIO19{slash}D8{slash}SCK-Pad9)_1*%
X122075000Y-43700000D03*
D11*
%TO.P,ESP32C6,10,GPIO20/D9/MISO_10*%
%TO.N,unconnected-(U1-GPIO20{slash}D9{slash}MISO-Pad10)*%
X121240000Y-41160000D03*
D12*
%TO.N,unconnected-(U1-GPIO20{slash}D9{slash}MISO-Pad10)_1*%
X122075000Y-41160000D03*
D11*
%TO.P,ESP32C6,11,GPIO18/D10/MOSI_11*%
%TO.N,unconnected-(U1-GPIO18{slash}D10{slash}MOSI-Pad11)*%
X121240000Y-38620000D03*
D12*
%TO.N,unconnected-(U1-GPIO18{slash}D10{slash}MOSI-Pad11)_1*%
X122075000Y-38620000D03*
D11*
%TO.P,ESP32C6,12,3V3_12*%
%TO.N,+3.3V*%
X121240000Y-36080000D03*
D12*
X122075000Y-36080000D03*
D11*
%TO.P,ESP32C6,13,GND_13*%
%TO.N,GND*%
X121240000Y-33540000D03*
D12*
X122075000Y-33540000D03*
D11*
%TO.P,ESP32C6,14,VBUS_14*%
%TO.N,unconnected-(U1-VBUS-Pad14)*%
X121240000Y-31000000D03*
D12*
%TO.N,unconnected-(U1-VBUS-Pad14)_1*%
X122075000Y-31000000D03*
%TD*%
D13*
%TO.P,SW1,1,A_1*%
%TO.N,Net-(J1-Pin_2)*%
X125000000Y-51800000D03*
D14*
%TO.P,SW1,2,B_2*%
%TO.N,+BATT*%
X125000000Y-54340000D03*
%TO.P,SW1,3*%
%TO.N,N/C*%
X125000000Y-56880000D03*
%TD*%
D13*
%TO.P,PIR2,1,GND_1*%
%TO.N,GND*%
X112460000Y-60900000D03*
D14*
%TO.P,PIR2,2,OUT_2*%
%TO.N,/PIR_SENSOR*%
X115000000Y-60900000D03*
%TO.P,PIR2,3,VCC_3*%
%TO.N,+3.3V*%
X117540000Y-60900000D03*
%TD*%
D15*
%TO.P,R4,2*%
%TO.N,/BATTERY_MONITORING*%
X106900000Y-66600000D03*
%TO.P,R4,1*%
%TO.N,Net-(Q1B1-D)*%
X108400000Y-66600000D03*
%TD*%
D16*
%TO.P,R2,2*%
%TO.N,/BATTERY_MONITORING_ENABLER*%
X118200000Y-68200000D03*
%TO.P,R2,1*%
%TO.N,GND*%
X118200000Y-66200000D03*
%TD*%
D17*
%TO.P,TP3,1,1_1*%
%TO.N,-BATT*%
X110600000Y-74300000D03*
%TD*%
D18*
%TO.P,R3,2*%
%TO.N,Net-(Q1A1-D)*%
X112300000Y-64900000D03*
%TO.P,R3,1*%
%TO.N,Net-(JP1-A)*%
X110300000Y-64900000D03*
%TD*%
D19*
%TO.P,Q1A1,1,G_1*%
%TO.N,/BATTERY_MONITORING_ENABLER*%
X116000000Y-68200000D03*
%TO.P,Q1A1,2,S_2*%
%TO.N,GND*%
X116000000Y-66300000D03*
%TO.P,Q1A1,3,D_3*%
%TO.N,Net-(Q1A1-D)*%
X114000000Y-67250000D03*
%TD*%
D17*
%TO.P,TP2,1,1_1*%
%TO.N,+BATT*%
X114500000Y-74300000D03*
%TD*%
D20*
%TO.P,JP1,1,A_1*%
%TO.N,Net-(JP1-A)*%
X106500000Y-61650000D03*
D21*
%TO.P,JP1,2,B_2*%
%TO.N,+BATT*%
X106500000Y-60350000D03*
%TD*%
D13*
%TO.P,LED1,1,GND_1*%
%TO.N,GND*%
X112160000Y-78900000D03*
D14*
%TO.P,LED1,2,DATA_2*%
%TO.N,/LED_CONTROL*%
X114700000Y-78900000D03*
%TO.P,LED1,3,VCC_3*%
%TO.N,+3.3V*%
X117240000Y-78900000D03*
%TD*%
D22*
%TO.P,J1,1,Pin_1_1*%
%TO.N,-BATT*%
X118600000Y-53000000D03*
D23*
%TO.P,J1,2,Pin_2_2*%
%TO.N,Net-(J1-Pin_2)*%
X118600000Y-55500000D03*
%TD*%
D22*
%TO.P,J2,1,Pin_1_1*%
%TO.N,-BATT*%
X108600000Y-53000000D03*
D23*
%TO.P,J2,2,Pin_2_2*%
%TO.N,+BATT*%
X108600000Y-55500000D03*
%TD*%
D17*
%TO.P,TP1,1,1_1*%
%TO.N,GND*%
X122500000Y-74300000D03*
%TD*%
D16*
%TO.P,R5,2*%
%TO.N,GND*%
X102800000Y-68500000D03*
%TO.P,R5,1*%
%TO.N,/BATTERY_MONITORING*%
X102800000Y-66500000D03*
%TD*%
D24*
%TO.P,Q1B1,1,G_1*%
%TO.N,Net-(Q1A1-D)*%
X112300000Y-67300000D03*
%TO.P,Q1B1,2,S_2*%
%TO.N,Net-(JP1-A)*%
X110400000Y-67300000D03*
%TO.P,Q1B1,3,D_3*%
%TO.N,Net-(Q1B1-D)*%
X111350000Y-69500000D03*
%TD*%
D17*
%TO.P,TP4,1,1_1*%
%TO.N,+3.3V*%
X118500000Y-74300000D03*
%TD*%
D25*
%TO.N,+3.3V*%
X125200000Y-62600000D03*
%TO.N,/BATTERY_MONITORING*%
X102700000Y-41400000D03*
%TO.N,/BATTERY_MONITORING_ENABLER*%
X120300000Y-64900000D03*
%TD*%
%TO.N,+3.3V*%
D26*
X117000000Y-60900000D02*
X117540000Y-60900000D01*
X124700000Y-63100000D02*
X125200000Y-62600000D01*
X117540000Y-60900000D02*
X119740000Y-63100000D01*
X119740000Y-63100000D02*
X124700000Y-63100000D01*
%TO.N,/BATTERY_MONITORING*%
D27*
X102800000Y-66500000D02*
X102700000Y-66400000D01*
X102700000Y-66400000D02*
X102700000Y-41400000D01*
%TO.N,Net-(J1-Pin_2)*%
D26*
X121300000Y-55500000D02*
X125000000Y-51800000D01*
X118600000Y-55500000D02*
X121300000Y-55500000D01*
%TO.N,+BATT*%
X121340000Y-58000000D02*
X110600000Y-58000000D01*
X110600000Y-58000000D02*
X108600000Y-56000000D01*
X125000000Y-54340000D02*
X121340000Y-58000000D01*
X106500000Y-60350000D02*
X106200000Y-60650000D01*
X107000000Y-55500000D02*
X106500000Y-56000000D01*
X106500000Y-56000000D02*
X106500000Y-60350000D01*
X108600000Y-56000000D02*
X108600000Y-55500000D01*
X108600000Y-55500000D02*
X107000000Y-55500000D01*
%TO.N,+3.3V*%
X122155000Y-36000000D02*
X122075000Y-36080000D01*
%TO.N,Net-(Q1B1-D)*%
D27*
X108400000Y-66600000D02*
X108400000Y-68300000D01*
X108400000Y-68300000D02*
X109600000Y-69500000D01*
X109600000Y-69500000D02*
X111350000Y-69500000D01*
%TO.N,/BATTERY_MONITORING*%
D28*
X102900000Y-66600000D02*
X102800000Y-66500000D01*
X106900000Y-66600000D02*
X102900000Y-66600000D01*
%TO.N,/BATTERY_MONITORING_ENABLER*%
D27*
X118200000Y-68200000D02*
X115750000Y-68200000D01*
X106040000Y-33500000D02*
X106000000Y-33540000D01*
X118200000Y-68200000D02*
X120300000Y-68200000D01*
X120300000Y-68200000D02*
X120300000Y-64900000D01*
X115750000Y-68200000D02*
X115700000Y-68250000D01*
X105800000Y-33500000D02*
X105760000Y-33540000D01*
%TO.N,-BATT*%
D26*
X108600000Y-53000000D02*
X118600000Y-53000000D01*
%TO.N,Net-(JP1-A)*%
X106500000Y-61650000D02*
X106500000Y-64000000D01*
X107400000Y-64900000D02*
X110300000Y-64900000D01*
D28*
X110300000Y-67200000D02*
X110400000Y-67300000D01*
X110300000Y-64900000D02*
X110300000Y-67200000D01*
D26*
X106500000Y-64000000D02*
X107400000Y-64900000D01*
%TO.N,Net-(Q1A1-D)*%
D28*
X112300000Y-64900000D02*
X112300000Y-67300000D01*
X112300000Y-67300000D02*
X113950000Y-67300000D01*
X113950000Y-67300000D02*
X114000000Y-67250000D01*
%TO.N,/LED_CONTROL*%
D27*
X101400000Y-75300000D02*
X101400000Y-40600000D01*
X101400000Y-40600000D02*
X103380000Y-38620000D01*
X103380000Y-38620000D02*
X105165000Y-38620000D01*
X102900000Y-76800000D02*
X101400000Y-75300000D01*
X112600000Y-76800000D02*
X102900000Y-76800000D01*
X114700000Y-78900000D02*
X112600000Y-76800000D01*
%TD*%
%TA.AperFunction,Conductor*%
%TO.N,GND*%
G36*
X125003736Y-28500726D02*
G01*
X125293796Y-28518271D01*
X125308659Y-28520076D01*
X125590797Y-28571780D01*
X125605334Y-28575363D01*
X125879182Y-28660698D01*
X125893163Y-28666000D01*
X126154734Y-28783724D01*
X126167987Y-28790680D01*
X126413458Y-28939071D01*
X126425776Y-28947573D01*
X126651573Y-29124474D01*
X126662781Y-29134404D01*
X126865595Y-29337218D01*
X126875525Y-29348426D01*
X127052422Y-29574217D01*
X127060928Y-29586541D01*
X127209319Y-29832012D01*
X127216277Y-29845269D01*
X127327385Y-30092140D01*
X127333994Y-30106823D01*
X127339304Y-30120825D01*
X127424635Y-30394664D01*
X127428219Y-30409202D01*
X127479923Y-30691340D01*
X127481728Y-30706205D01*
X127499274Y-30996263D01*
X127499500Y-31003750D01*
X127499500Y-82996249D01*
X127499274Y-83003736D01*
X127481728Y-83293794D01*
X127479923Y-83308659D01*
X127428219Y-83590797D01*
X127424635Y-83605335D01*
X127339304Y-83879174D01*
X127333994Y-83893176D01*
X127216277Y-84154730D01*
X127209319Y-84167987D01*
X127060928Y-84413458D01*
X127052422Y-84425782D01*
X126875525Y-84651573D01*
X126865595Y-84662781D01*
X126662781Y-84865595D01*
X126651573Y-84875525D01*
X126425782Y-85052422D01*
X126413458Y-85060928D01*
X126167987Y-85209319D01*
X126154730Y-85216277D01*
X125893176Y-85333994D01*
X125879174Y-85339304D01*
X125605335Y-85424635D01*
X125590797Y-85428219D01*
X125308659Y-85479923D01*
X125293794Y-85481728D01*
X125003736Y-85499274D01*
X124996249Y-85499500D01*
X102003751Y-85499500D01*
X101996264Y-85499274D01*
X101706205Y-85481728D01*
X101691340Y-85479923D01*
X101409202Y-85428219D01*
X101394664Y-85424635D01*
X101120825Y-85339304D01*
X101106827Y-85333995D01*
X100954096Y-85265256D01*
X100845269Y-85216277D01*
X100832012Y-85209319D01*
X100586541Y-85060928D01*
X100574217Y-85052422D01*
X100348426Y-84875525D01*
X100337218Y-84865595D01*
X100134404Y-84662781D01*
X100124474Y-84651573D01*
X100094208Y-84612941D01*
X99947573Y-84425776D01*
X99939071Y-84413458D01*
X99790680Y-84167987D01*
X99783722Y-84154730D01*
X99666000Y-83893163D01*
X99660698Y-83879182D01*
X99575363Y-83605334D01*
X99571780Y-83590797D01*
X99555968Y-83504513D01*
X99520075Y-83308657D01*
X99518271Y-83293794D01*
X99500726Y-83003736D01*
X99500500Y-82996249D01*
X99500500Y-82869854D01*
X100346340Y-82869854D01*
X100346340Y-83130145D01*
X100372259Y-83293794D01*
X100387059Y-83387233D01*
X100467494Y-83634785D01*
X100577955Y-83851578D01*
X100585666Y-83866710D01*
X100604895Y-83893176D01*
X100738659Y-84077287D01*
X100922713Y-84261341D01*
X101133293Y-84414336D01*
X101365215Y-84532506D01*
X101612767Y-84612941D01*
X101869854Y-84653660D01*
X101869855Y-84653660D01*
X102130145Y-84653660D01*
X102130146Y-84653660D01*
X102387233Y-84612941D01*
X102634785Y-84532506D01*
X102866707Y-84414336D01*
X103077287Y-84261341D01*
X103261341Y-84077287D01*
X103414336Y-83866707D01*
X103532506Y-83634785D01*
X103612941Y-83387233D01*
X103653660Y-83130146D01*
X103653660Y-82869854D01*
X123346340Y-82869854D01*
X123346340Y-83130145D01*
X123372259Y-83293794D01*
X123387059Y-83387233D01*
X123467494Y-83634785D01*
X123577955Y-83851578D01*
X123585666Y-83866710D01*
X123604895Y-83893176D01*
X123738659Y-84077287D01*
X123922713Y-84261341D01*
X124133293Y-84414336D01*
X124365215Y-84532506D01*
X124612767Y-84612941D01*
X124869854Y-84653660D01*
X124869855Y-84653660D01*
X125130145Y-84653660D01*
X125130146Y-84653660D01*
X125387233Y-84612941D01*
X125634785Y-84532506D01*
X125866707Y-84414336D01*
X126077287Y-84261341D01*
X126261341Y-84077287D01*
X126414336Y-83866707D01*
X126532506Y-83634785D01*
X126612941Y-83387233D01*
X126653660Y-83130146D01*
X126653660Y-82869854D01*
X126612941Y-82612767D01*
X126532506Y-82365215D01*
X126414336Y-82133293D01*
X126261341Y-81922713D01*
X126077287Y-81738659D01*
X125866707Y-81585664D01*
X125634785Y-81467494D01*
X125387233Y-81387059D01*
X125387231Y-81387058D01*
X125387229Y-81387058D01*
X125207727Y-81358627D01*
X125130146Y-81346340D01*
X124869854Y-81346340D01*
X124810257Y-81355779D01*
X124612770Y-81387058D01*
X124365212Y-81467495D01*
X124133289Y-81585666D01*
X123922716Y-81738656D01*
X123922710Y-81738661D01*
X123738661Y-81922710D01*
X123738656Y-81922716D01*
X123585666Y-82133289D01*
X123467495Y-82365212D01*
X123387058Y-82612770D01*
X123346340Y-82869854D01*
X103653660Y-82869854D01*
X103612941Y-82612767D01*
X103532506Y-82365215D01*
X103414336Y-82133293D01*
X103261341Y-81922713D01*
X103077287Y-81738659D01*
X102866707Y-81585664D01*
X102634785Y-81467494D01*
X102387233Y-81387059D01*
X102387231Y-81387058D01*
X102387229Y-81387058D01*
X102207727Y-81358627D01*
X102130146Y-81346340D01*
X101869854Y-81346340D01*
X101810257Y-81355779D01*
X101612770Y-81387058D01*
X101365212Y-81467495D01*
X101133289Y-81585666D01*
X100922716Y-81738656D01*
X100922710Y-81738661D01*
X100738661Y-81922710D01*
X100738656Y-81922716D01*
X100585666Y-82133289D01*
X100467495Y-82365212D01*
X100387058Y-82612770D01*
X100346340Y-82869854D01*
X99500500Y-82869854D01*
X99500500Y-31003750D01*
X99500726Y-30996263D01*
X99508372Y-30869854D01*
X100346340Y-30869854D01*
X100346340Y-30936028D01*
X100346340Y-31130146D01*
X100387059Y-31387233D01*
X100467494Y-31634785D01*
X100533527Y-31764383D01*
X100585666Y-31866710D01*
X100727812Y-32062358D01*
X100738659Y-32077287D01*
X100922713Y-32261341D01*
X101133293Y-32414336D01*
X101365215Y-32532506D01*
X101612767Y-32612941D01*
X101869854Y-32653660D01*
X101869855Y-32653660D01*
X102130145Y-32653660D01*
X102130146Y-32653660D01*
X102387233Y-32612941D01*
X102634785Y-32532506D01*
X102866707Y-32414336D01*
X103077287Y-32261341D01*
X103261341Y-32077287D01*
X103347803Y-31958281D01*
X103403133Y-31915616D01*
X103472746Y-31909637D01*
X103534541Y-31942243D01*
X103554852Y-31968044D01*
X103581408Y-32012947D01*
X103581410Y-32012949D01*
X103581412Y-32012952D01*
X103698047Y-32129587D01*
X103698050Y-32129589D01*
X103698053Y-32129592D01*
X103754996Y-32163268D01*
X103802679Y-32214338D01*
X103815182Y-32283079D01*
X103788536Y-32347669D01*
X103754996Y-32376731D01*
X103698056Y-32410406D01*
X103698053Y-32410408D01*
X103698047Y-32410412D01*
X103581412Y-32527047D01*
X103581405Y-32527056D01*
X103497435Y-32669042D01*
X103497434Y-32669045D01*
X103451413Y-32827447D01*
X103451412Y-32827453D01*
X103448500Y-32864458D01*
X103448500Y-34215541D01*
X103451412Y-34252546D01*
X103451413Y-34252552D01*
X103497434Y-34410954D01*
X103497435Y-34410957D01*
X103581405Y-34552943D01*
X103581412Y-34552952D01*
X103698047Y-34669587D01*
X103698050Y-34669589D01*
X103698053Y-34669592D01*
X103754502Y-34702976D01*
X103754996Y-34703268D01*
X103802679Y-34754338D01*
X103815182Y-34823079D01*
X103788536Y-34887669D01*
X103754996Y-34916732D01*
X103698053Y-34950408D01*
X103698047Y-34950412D01*
X103581412Y-35067047D01*
X103581405Y-35067056D01*
X103497435Y-35209042D01*
X103497434Y-35209045D01*
X103451413Y-35367447D01*
X103451412Y-35367453D01*
X103448500Y-35404458D01*
X103448500Y-36755541D01*
X103451412Y-36792546D01*
X103451413Y-36792552D01*
X103497434Y-36950954D01*
X103497435Y-36950957D01*
X103581405Y-37092943D01*
X103581412Y-37092952D01*
X103698047Y-37209587D01*
X103698050Y-37209589D01*
X103698053Y-37209592D01*
X103754996Y-37243268D01*
X103802679Y-37294338D01*
X103815182Y-37363079D01*
X103788536Y-37427669D01*
X103754996Y-37456732D01*
X103698053Y-37490408D01*
X103698047Y-37490412D01*
X103581412Y-37607047D01*
X103581405Y-37607056D01*
X103497435Y-37749042D01*
X103497434Y-37749045D01*
X103451413Y-37907447D01*
X103450274Y-37913688D01*
X103448487Y-37913361D01*
X103426705Y-37970515D01*
X103370474Y-38011987D01*
X103327970Y-38019499D01*
X103300943Y-38019499D01*
X103193587Y-38048265D01*
X103148210Y-38060424D01*
X103148209Y-38060425D01*
X103098096Y-38089359D01*
X103098095Y-38089360D01*
X103054689Y-38114420D01*
X103011285Y-38139479D01*
X103011282Y-38139481D01*
X100919481Y-40231282D01*
X100919479Y-40231285D01*
X100869361Y-40318094D01*
X100869359Y-40318096D01*
X100840425Y-40368209D01*
X100840424Y-40368210D01*
X100840423Y-40368215D01*
X100799499Y-40520943D01*
X100799499Y-40520945D01*
X100799499Y-40689046D01*
X100799500Y-40689059D01*
X100799500Y-75213330D01*
X100799499Y-75213348D01*
X100799499Y-75379054D01*
X100799498Y-75379054D01*
X100799499Y-75379057D01*
X100840423Y-75531785D01*
X100840424Y-75531787D01*
X100840423Y-75531787D01*
X100846512Y-75542332D01*
X100846513Y-75542333D01*
X100919477Y-75668712D01*
X100919481Y-75668717D01*
X101038349Y-75787585D01*
X101038355Y-75787590D01*
X102415139Y-77164374D01*
X102415149Y-77164385D01*
X102419479Y-77168715D01*
X102419480Y-77168716D01*
X102531284Y-77280520D01*
X102531286Y-77280521D01*
X102531290Y-77280524D01*
X102668209Y-77359573D01*
X102668216Y-77359577D01*
X102780019Y-77389534D01*
X102820942Y-77400500D01*
X102820943Y-77400500D01*
X110970731Y-77400500D01*
X111037770Y-77420185D01*
X111083525Y-77472989D01*
X111093469Y-77542147D01*
X111064444Y-77605703D01*
X111045042Y-77623766D01*
X110952812Y-77692809D01*
X110952809Y-77692812D01*
X110866649Y-77807906D01*
X110866645Y-77807913D01*
X110816403Y-77942620D01*
X110816401Y-77942627D01*
X110810000Y-78002155D01*
X110810000Y-78650000D01*
X111726988Y-78650000D01*
X111694075Y-78707007D01*
X111660000Y-78834174D01*
X111660000Y-78965826D01*
X111694075Y-79092993D01*
X111726988Y-79150000D01*
X110810000Y-79150000D01*
X110810000Y-79797844D01*
X110816401Y-79857372D01*
X110816403Y-79857379D01*
X110866645Y-79992086D01*
X110866649Y-79992093D01*
X110952809Y-80107187D01*
X110952812Y-80107190D01*
X111067906Y-80193350D01*
X111067913Y-80193354D01*
X111202620Y-80243596D01*
X111202627Y-80243598D01*
X111262155Y-80249999D01*
X111262172Y-80250000D01*
X111910000Y-80250000D01*
X111910000Y-79333012D01*
X111967007Y-79365925D01*
X112094174Y-79400000D01*
X112225826Y-79400000D01*
X112352993Y-79365925D01*
X112410000Y-79333012D01*
X112410000Y-80250000D01*
X113057828Y-80250000D01*
X113057844Y-80249999D01*
X113117372Y-80243598D01*
X113117379Y-80243596D01*
X113252086Y-80193354D01*
X113252093Y-80193350D01*
X113367187Y-80107190D01*
X113367190Y-80107187D01*
X113453350Y-79992093D01*
X113453354Y-79992086D01*
X113502422Y-79860529D01*
X113544293Y-79804595D01*
X113609757Y-79780178D01*
X113678030Y-79795030D01*
X113706285Y-79816181D01*
X113820213Y-79930109D01*
X113992179Y-80055048D01*
X113992181Y-80055049D01*
X113992184Y-80055051D01*
X114181588Y-80151557D01*
X114383757Y-80217246D01*
X114593713Y-80250500D01*
X114593714Y-80250500D01*
X114806286Y-80250500D01*
X114806287Y-80250500D01*
X115016243Y-80217246D01*
X115218412Y-80151557D01*
X115407816Y-80055051D01*
X115494471Y-79992093D01*
X115579786Y-79930109D01*
X115579788Y-79930106D01*
X115579792Y-79930104D01*
X115730104Y-79779792D01*
X115730106Y-79779788D01*
X115730109Y-79779786D01*
X115855048Y-79607820D01*
X115855047Y-79607820D01*
X115855051Y-79607816D01*
X115859514Y-79599054D01*
X115907488Y-79548259D01*
X115975308Y-79531463D01*
X116041444Y-79553999D01*
X116080486Y-79599056D01*
X116084951Y-79607820D01*
X116209890Y-79779786D01*
X116360213Y-79930109D01*
X116532179Y-80055048D01*
X116532181Y-80055049D01*
X116532184Y-80055051D01*
X116721588Y-80151557D01*
X116923757Y-80217246D01*
X117133713Y-80250500D01*
X117133714Y-80250500D01*
X117346286Y-80250500D01*
X117346287Y-80250500D01*
X117556243Y-80217246D01*
X117758412Y-80151557D01*
X117947816Y-80055051D01*
X118034471Y-79992093D01*
X118119786Y-79930109D01*
X118119788Y-79930106D01*
X118119792Y-79930104D01*
X118270104Y-79779792D01*
X118270106Y-79779788D01*
X118270109Y-79779786D01*
X118395048Y-79607820D01*
X118395047Y-79607820D01*
X118395051Y-79607816D01*
X118491557Y-79418412D01*
X118557246Y-79216243D01*
X118590500Y-79006287D01*
X118590500Y-78793713D01*
X118557246Y-78583757D01*
X118491557Y-78381588D01*
X118395051Y-78192184D01*
X118395049Y-78192181D01*
X118395048Y-78192179D01*
X118270109Y-78020213D01*
X118119786Y-77869890D01*
X117947820Y-77744951D01*
X117758414Y-77648444D01*
X117758413Y-77648443D01*
X117758412Y-77648443D01*
X117556243Y-77582754D01*
X117556241Y-77582753D01*
X117556240Y-77582753D01*
X117394957Y-77557208D01*
X117346287Y-77549500D01*
X117133713Y-77549500D01*
X117085042Y-77557208D01*
X116923760Y-77582753D01*
X116721585Y-77648444D01*
X116532179Y-77744951D01*
X116360213Y-77869890D01*
X116209890Y-78020213D01*
X116084949Y-78192182D01*
X116080484Y-78200946D01*
X116032509Y-78251742D01*
X115964688Y-78268536D01*
X115898553Y-78245998D01*
X115859516Y-78200946D01*
X115855050Y-78192182D01*
X115730109Y-78020213D01*
X115579786Y-77869890D01*
X115407820Y-77744951D01*
X115218414Y-77648444D01*
X115218413Y-77648443D01*
X115218412Y-77648443D01*
X115016243Y-77582754D01*
X115016241Y-77582753D01*
X115016240Y-77582753D01*
X114854957Y-77557208D01*
X114806287Y-77549500D01*
X114593713Y-77549500D01*
X114565006Y-77554046D01*
X114383757Y-77582753D01*
X114341473Y-77596492D01*
X114271632Y-77598486D01*
X114215476Y-77566241D01*
X113087590Y-76438355D01*
X113087588Y-76438352D01*
X112968717Y-76319481D01*
X112968716Y-76319480D01*
X112881904Y-76269360D01*
X112881904Y-76269359D01*
X112881900Y-76269358D01*
X112831785Y-76240423D01*
X112679057Y-76199499D01*
X112520943Y-76199499D01*
X112513347Y-76199499D01*
X112513331Y-76199500D01*
X103200097Y-76199500D01*
X103133058Y-76179815D01*
X103112416Y-76163181D01*
X102036819Y-75087584D01*
X102003334Y-75026261D01*
X102000500Y-74999903D01*
X102000500Y-73252135D01*
X109099500Y-73252135D01*
X109099500Y-75347870D01*
X109099501Y-75347876D01*
X109105908Y-75407483D01*
X109156202Y-75542328D01*
X109156205Y-75542333D01*
X109242452Y-75657544D01*
X109242455Y-75657547D01*
X109357664Y-75743793D01*
X109357671Y-75743797D01*
X109492517Y-75794091D01*
X109492516Y-75794091D01*
X109499444Y-75794835D01*
X109552127Y-75800500D01*
X111647872Y-75800499D01*
X111707483Y-75794091D01*
X111842331Y-75743796D01*
X111957546Y-75657546D01*
X112043796Y-75542331D01*
X112094091Y-75407483D01*
X112100500Y-75347873D01*
X112100499Y-73252135D01*
X112999500Y-73252135D01*
X112999500Y-75347870D01*
X112999501Y-75347876D01*
X113005908Y-75407483D01*
X113056202Y-75542328D01*
X113056205Y-75542333D01*
X113142452Y-75657544D01*
X113142455Y-75657547D01*
X113257664Y-75743793D01*
X113257671Y-75743797D01*
X113392517Y-75794091D01*
X113392516Y-75794091D01*
X113399444Y-75794835D01*
X113452127Y-75800500D01*
X115547872Y-75800499D01*
X115607483Y-75794091D01*
X115742331Y-75743796D01*
X115857546Y-75657546D01*
X115943796Y-75542331D01*
X115994091Y-75407483D01*
X116000500Y-75347873D01*
X116000499Y-73252135D01*
X116999500Y-73252135D01*
X116999500Y-75347870D01*
X116999501Y-75347876D01*
X117005908Y-75407483D01*
X117056202Y-75542328D01*
X117056205Y-75542333D01*
X117142452Y-75657544D01*
X117142455Y-75657547D01*
X117257664Y-75743793D01*
X117257671Y-75743797D01*
X117392517Y-75794091D01*
X117392516Y-75794091D01*
X117399444Y-75794835D01*
X117452127Y-75800500D01*
X119547872Y-75800499D01*
X119607483Y-75794091D01*
X119742331Y-75743796D01*
X119857546Y-75657546D01*
X119943796Y-75542331D01*
X119994091Y-75407483D01*
X120000500Y-75347873D01*
X120000499Y-74234174D01*
X120000499Y-73252155D01*
X121000000Y-73252155D01*
X121000000Y-74050000D01*
X122066988Y-74050000D01*
X122034075Y-74107007D01*
X122000000Y-74234174D01*
X122000000Y-74365826D01*
X122034075Y-74492993D01*
X122066988Y-74550000D01*
X121000000Y-74550000D01*
X121000000Y-75347844D01*
X121006401Y-75407372D01*
X121006403Y-75407379D01*
X121056645Y-75542086D01*
X121056649Y-75542093D01*
X121142809Y-75657187D01*
X121142812Y-75657190D01*
X121257906Y-75743350D01*
X121257913Y-75743354D01*
X121392620Y-75793596D01*
X121392627Y-75793598D01*
X121452155Y-75799999D01*
X121452172Y-75800000D01*
X122250000Y-75800000D01*
X122250000Y-74733012D01*
X122307007Y-74765925D01*
X122434174Y-74800000D01*
X122565826Y-74800000D01*
X122692993Y-74765925D01*
X122750000Y-74733012D01*
X122750000Y-75800000D01*
X123547828Y-75800000D01*
X123547844Y-75799999D01*
X123607372Y-75793598D01*
X123607379Y-75793596D01*
X123742086Y-75743354D01*
X123742093Y-75743350D01*
X123857187Y-75657190D01*
X123857190Y-75657187D01*
X123943350Y-75542093D01*
X123943354Y-75542086D01*
X123993596Y-75407379D01*
X123993598Y-75407372D01*
X123999999Y-75347844D01*
X124000000Y-75347827D01*
X124000000Y-74550000D01*
X122933012Y-74550000D01*
X122965925Y-74492993D01*
X123000000Y-74365826D01*
X123000000Y-74234174D01*
X122965925Y-74107007D01*
X122933012Y-74050000D01*
X124000000Y-74050000D01*
X124000000Y-73252172D01*
X123999999Y-73252155D01*
X123993598Y-73192627D01*
X123993596Y-73192620D01*
X123943354Y-73057913D01*
X123943350Y-73057906D01*
X123857190Y-72942812D01*
X123857187Y-72942809D01*
X123742093Y-72856649D01*
X123742086Y-72856645D01*
X123607379Y-72806403D01*
X123607372Y-72806401D01*
X123547844Y-72800000D01*
X122750000Y-72800000D01*
X122750000Y-73866988D01*
X122692993Y-73834075D01*
X122565826Y-73800000D01*
X122434174Y-73800000D01*
X122307007Y-73834075D01*
X122250000Y-73866988D01*
X122250000Y-72800000D01*
X121452155Y-72800000D01*
X121392627Y-72806401D01*
X121392620Y-72806403D01*
X121257913Y-72856645D01*
X121257906Y-72856649D01*
X121142812Y-72942809D01*
X121142809Y-72942812D01*
X121056649Y-73057906D01*
X121056645Y-73057913D01*
X121006403Y-73192620D01*
X121006401Y-73192627D01*
X121000000Y-73252155D01*
X120000499Y-73252155D01*
X120000499Y-73252129D01*
X120000498Y-73252123D01*
X120000497Y-73252116D01*
X119994091Y-73192517D01*
X119943884Y-73057906D01*
X119943797Y-73057671D01*
X119943793Y-73057664D01*
X119857547Y-72942455D01*
X119857544Y-72942452D01*
X119742335Y-72856206D01*
X119742328Y-72856202D01*
X119607482Y-72805908D01*
X119607483Y-72805908D01*
X119547883Y-72799501D01*
X119547881Y-72799500D01*
X119547873Y-72799500D01*
X119547864Y-72799500D01*
X117452129Y-72799500D01*
X117452123Y-72799501D01*
X117392516Y-72805908D01*
X117257671Y-72856202D01*
X117257664Y-72856206D01*
X117142455Y-72942452D01*
X117142452Y-72942455D01*
X117056206Y-73057664D01*
X117056202Y-73057671D01*
X117005908Y-73192517D01*
X116999501Y-73252116D01*
X116999501Y-73252123D01*
X116999500Y-73252135D01*
X116000499Y-73252135D01*
X116000499Y-73252128D01*
X115994091Y-73192517D01*
X115943884Y-73057906D01*
X115943797Y-73057671D01*
X115943793Y-73057664D01*
X115857547Y-72942455D01*
X115857544Y-72942452D01*
X115742335Y-72856206D01*
X115742328Y-72856202D01*
X115607482Y-72805908D01*
X115607483Y-72805908D01*
X115547883Y-72799501D01*
X115547881Y-72799500D01*
X115547873Y-72799500D01*
X115547864Y-72799500D01*
X113452129Y-72799500D01*
X113452123Y-72799501D01*
X113392516Y-72805908D01*
X113257671Y-72856202D01*
X113257664Y-72856206D01*
X113142455Y-72942452D01*
X113142452Y-72942455D01*
X113056206Y-73057664D01*
X113056202Y-73057671D01*
X113005908Y-73192517D01*
X112999501Y-73252116D01*
X112999501Y-73252123D01*
X112999500Y-73252135D01*
X112100499Y-73252135D01*
X112100499Y-73252128D01*
X112094091Y-73192517D01*
X112043884Y-73057906D01*
X112043797Y-73057671D01*
X112043793Y-73057664D01*
X111957547Y-72942455D01*
X111957544Y-72942452D01*
X111842335Y-72856206D01*
X111842328Y-72856202D01*
X111707482Y-72805908D01*
X111707483Y-72805908D01*
X111647883Y-72799501D01*
X111647881Y-72799500D01*
X111647873Y-72799500D01*
X111647864Y-72799500D01*
X109552129Y-72799500D01*
X109552123Y-72799501D01*
X109492516Y-72805908D01*
X109357671Y-72856202D01*
X109357664Y-72856206D01*
X109242455Y-72942452D01*
X109242452Y-72942455D01*
X109156206Y-73057664D01*
X109156202Y-73057671D01*
X109105908Y-73192517D01*
X109099501Y-73252116D01*
X109099501Y-73252123D01*
X109099500Y-73252135D01*
X102000500Y-73252135D01*
X102000500Y-69690500D01*
X102020185Y-69623461D01*
X102072989Y-69577706D01*
X102124500Y-69566500D01*
X102550000Y-69566500D01*
X103050000Y-69566500D01*
X103536328Y-69566500D01*
X103536344Y-69566499D01*
X103595872Y-69560098D01*
X103595879Y-69560096D01*
X103730586Y-69509854D01*
X103730593Y-69509850D01*
X103845687Y-69423690D01*
X103845690Y-69423687D01*
X103931850Y-69308593D01*
X103931854Y-69308586D01*
X103982096Y-69173879D01*
X103982098Y-69173872D01*
X103988499Y-69114344D01*
X103988500Y-69114327D01*
X103988500Y-68750000D01*
X103050000Y-68750000D01*
X103050000Y-69566500D01*
X102550000Y-69566500D01*
X102550000Y-68624000D01*
X102569685Y-68556961D01*
X102622489Y-68511206D01*
X102674000Y-68500000D01*
X102800000Y-68500000D01*
X102800000Y-68374000D01*
X102819685Y-68306961D01*
X102872489Y-68261206D01*
X102924000Y-68250000D01*
X103988500Y-68250000D01*
X103988500Y-67885672D01*
X103988499Y-67885655D01*
X103982098Y-67826127D01*
X103982096Y-67826120D01*
X103931854Y-67691413D01*
X103931853Y-67691411D01*
X103844503Y-67574727D01*
X103820086Y-67509263D01*
X103834937Y-67440990D01*
X103844504Y-67426104D01*
X103846042Y-67424048D01*
X103846046Y-67424046D01*
X103901336Y-67350187D01*
X103957270Y-67308318D01*
X104000602Y-67300500D01*
X106010725Y-67300500D01*
X106077764Y-67320185D01*
X106109989Y-67350186D01*
X106139454Y-67389546D01*
X106168874Y-67411570D01*
X106254664Y-67475793D01*
X106254671Y-67475797D01*
X106389517Y-67526091D01*
X106389516Y-67526091D01*
X106396444Y-67526835D01*
X106449127Y-67532500D01*
X107350872Y-67532499D01*
X107410483Y-67526091D01*
X107545331Y-67475796D01*
X107575690Y-67453068D01*
X107641151Y-67428652D01*
X107709424Y-67443503D01*
X107724310Y-67453069D01*
X107749811Y-67472159D01*
X107791682Y-67528093D01*
X107799500Y-67571426D01*
X107799500Y-68213330D01*
X107799499Y-68213348D01*
X107799499Y-68379054D01*
X107799498Y-68379054D01*
X107799499Y-68379057D01*
X107840423Y-68531785D01*
X107861746Y-68568717D01*
X107869358Y-68581900D01*
X107869359Y-68581904D01*
X107869360Y-68581904D01*
X107919479Y-68668714D01*
X107919481Y-68668717D01*
X108038349Y-68787585D01*
X108038355Y-68787590D01*
X109115139Y-69864374D01*
X109115149Y-69864385D01*
X109119479Y-69868715D01*
X109119480Y-69868716D01*
X109231284Y-69980520D01*
X109318095Y-70030639D01*
X109318097Y-70030641D01*
X109368213Y-70059576D01*
X109368215Y-70059577D01*
X109520942Y-70100500D01*
X109520943Y-70100500D01*
X110494309Y-70100500D01*
X110561348Y-70120185D01*
X110607103Y-70172989D01*
X110610491Y-70181167D01*
X110640202Y-70260828D01*
X110640206Y-70260835D01*
X110726452Y-70376044D01*
X110726455Y-70376047D01*
X110841664Y-70462293D01*
X110841671Y-70462297D01*
X110886618Y-70479061D01*
X110976517Y-70512591D01*
X111036127Y-70519000D01*
X111663872Y-70518999D01*
X111723483Y-70512591D01*
X111858331Y-70462296D01*
X111973546Y-70376046D01*
X112059796Y-70260831D01*
X112110091Y-70125983D01*
X112116500Y-70066373D01*
X112116499Y-68933628D01*
X112110091Y-68874017D01*
X112110078Y-68873983D01*
X112059797Y-68739171D01*
X112059793Y-68739164D01*
X111973547Y-68623955D01*
X111973544Y-68623952D01*
X111874640Y-68549912D01*
X111874637Y-68549911D01*
X111858331Y-68537704D01*
X111723483Y-68487409D01*
X111663873Y-68481000D01*
X111653789Y-68481000D01*
X111036129Y-68481000D01*
X111036123Y-68481001D01*
X111017288Y-68483025D01*
X111017284Y-68483026D01*
X110976517Y-68487409D01*
X110841669Y-68537704D01*
X110726454Y-68623954D01*
X110721653Y-68630366D01*
X110721652Y-68630367D01*
X110640206Y-68739164D01*
X110640202Y-68739171D01*
X110610491Y-68818833D01*
X110568620Y-68874767D01*
X110503156Y-68899184D01*
X110494309Y-68899500D01*
X109900097Y-68899500D01*
X109833058Y-68879815D01*
X109812416Y-68863181D01*
X109036819Y-68087584D01*
X109003334Y-68026261D01*
X109000500Y-67999903D01*
X109000500Y-67571426D01*
X109020185Y-67504387D01*
X109050189Y-67472160D01*
X109131126Y-67411570D01*
X109160546Y-67389546D01*
X109246796Y-67274331D01*
X109297091Y-67139483D01*
X109303500Y-67079873D01*
X109303499Y-66138810D01*
X109323183Y-66071772D01*
X109375987Y-66026017D01*
X109445146Y-66016073D01*
X109486927Y-66029980D01*
X109491167Y-66032294D01*
X109491169Y-66032296D01*
X109518831Y-66042613D01*
X109574765Y-66084482D01*
X109599184Y-66149945D01*
X109584334Y-66218219D01*
X109556155Y-66246399D01*
X109599244Y-67266397D01*
X109599499Y-67268996D01*
X109626419Y-67404325D01*
X109628161Y-67410067D01*
X109633500Y-67446061D01*
X109633500Y-67866370D01*
X109633501Y-67866376D01*
X109639908Y-67925983D01*
X109690202Y-68060828D01*
X109690206Y-68060835D01*
X109776452Y-68176044D01*
X109776455Y-68176047D01*
X109891664Y-68262293D01*
X109891671Y-68262297D01*
X109936602Y-68279055D01*
X110026517Y-68312591D01*
X110086127Y-68319000D01*
X110713872Y-68318999D01*
X110713874Y-68318998D01*
X110713887Y-68318998D01*
X110727508Y-68317533D01*
X110773483Y-68312591D01*
X110908331Y-68262296D01*
X111023546Y-68176046D01*
X111109796Y-68060831D01*
X111160091Y-67925983D01*
X111166500Y-67866373D01*
X111166499Y-66733628D01*
X111160091Y-66674017D01*
X111113160Y-66548189D01*
X111109797Y-66539171D01*
X111109796Y-66539169D01*
X111043044Y-66450000D01*
X111025232Y-66426207D01*
X111000816Y-66360744D01*
X111000500Y-66351897D01*
X111000500Y-66158795D01*
X111020185Y-66091756D01*
X111072989Y-66046001D01*
X111081153Y-66042618D01*
X111108831Y-66032296D01*
X111224046Y-65946046D01*
X111224046Y-65946045D01*
X111225689Y-65944816D01*
X111291153Y-65920399D01*
X111359426Y-65935250D01*
X111374311Y-65944816D01*
X111375953Y-65946045D01*
X111375954Y-65946046D01*
X111491169Y-66032296D01*
X111518829Y-66042612D01*
X111476788Y-66155340D01*
X111590950Y-66446624D01*
X111597085Y-66516224D01*
X111591682Y-66535205D01*
X111539908Y-66674017D01*
X111533501Y-66733616D01*
X111533501Y-66733623D01*
X111533500Y-66733635D01*
X111533500Y-67866370D01*
X111533501Y-67866376D01*
X111539908Y-67925983D01*
X111590202Y-68060828D01*
X111590206Y-68060835D01*
X111659358Y-68153209D01*
X111676454Y-68176046D01*
X111791669Y-68262296D01*
X111926517Y-68312591D01*
X111986127Y-68319000D01*
X112613872Y-68318999D01*
X112673483Y-68312591D01*
X112808331Y-68262296D01*
X112923546Y-68176046D01*
X112990957Y-68085996D01*
X113046889Y-68044127D01*
X113116581Y-68039143D01*
X113133555Y-68044127D01*
X113267517Y-68094091D01*
X113267516Y-68094091D01*
X113274444Y-68094835D01*
X113327127Y-68100500D01*
X114672872Y-68100499D01*
X114732483Y-68094091D01*
X114732487Y-68094089D01*
X114737245Y-68093578D01*
X114806004Y-68105984D01*
X114857142Y-68153594D01*
X114874500Y-68216868D01*
X114874500Y-68597869D01*
X114874501Y-68597876D01*
X114880908Y-68657483D01*
X114931202Y-68792328D01*
X114931206Y-68792335D01*
X115017452Y-68907544D01*
X115017455Y-68907547D01*
X115132664Y-68993793D01*
X115132671Y-68993797D01*
X115267517Y-69044091D01*
X115267516Y-69044091D01*
X115274444Y-69044835D01*
X115327127Y-69050500D01*
X116672872Y-69050499D01*
X116732483Y-69044091D01*
X116867331Y-68993796D01*
X116889261Y-68977378D01*
X116954725Y-68952961D01*
X117022998Y-68967812D01*
X117062839Y-69002333D01*
X117098897Y-69050500D01*
X117146678Y-69114327D01*
X117153955Y-69124047D01*
X117269164Y-69210293D01*
X117269171Y-69210297D01*
X117404017Y-69260591D01*
X117404016Y-69260591D01*
X117410944Y-69261335D01*
X117463627Y-69267000D01*
X118936372Y-69266999D01*
X118995983Y-69260591D01*
X119130831Y-69210296D01*
X119246046Y-69124046D01*
X119332296Y-69008831D01*
X119360347Y-68933623D01*
X119379912Y-68881167D01*
X119421783Y-68825233D01*
X119487247Y-68800816D01*
X119496094Y-68800500D01*
X120379055Y-68800500D01*
X120379057Y-68800500D01*
X120531784Y-68759577D01*
X120668716Y-68680520D01*
X120780520Y-68568716D01*
X120859577Y-68431784D01*
X120900500Y-68279057D01*
X120900500Y-65479765D01*
X120920185Y-65412726D01*
X120921398Y-65410874D01*
X120934400Y-65391416D01*
X121009394Y-65279179D01*
X121067084Y-65139903D01*
X121069736Y-65133500D01*
X121069737Y-65133497D01*
X121100500Y-64978842D01*
X121100500Y-64821158D01*
X121100500Y-64821155D01*
X121100499Y-64821153D01*
X121069738Y-64666510D01*
X121069737Y-64666503D01*
X121069735Y-64666498D01*
X121009397Y-64520827D01*
X121009390Y-64520814D01*
X120921789Y-64389711D01*
X120921786Y-64389707D01*
X120810292Y-64278213D01*
X120810288Y-64278210D01*
X120679185Y-64190609D01*
X120679172Y-64190602D01*
X120554738Y-64139061D01*
X120500334Y-64095221D01*
X120478269Y-64028926D01*
X120495548Y-63961227D01*
X120546685Y-63913616D01*
X120602190Y-63900500D01*
X124778844Y-63900500D01*
X124778845Y-63900499D01*
X124933497Y-63869737D01*
X125079179Y-63809394D01*
X125210289Y-63721789D01*
X125821789Y-63110289D01*
X125909394Y-62979179D01*
X125969738Y-62833497D01*
X126000500Y-62678842D01*
X126000500Y-62521157D01*
X125969738Y-62366503D01*
X125909394Y-62220821D01*
X125909392Y-62220818D01*
X125909390Y-62220814D01*
X125821789Y-62089711D01*
X125821786Y-62089707D01*
X125710292Y-61978213D01*
X125710288Y-61978210D01*
X125579185Y-61890609D01*
X125579175Y-61890604D01*
X125433497Y-61830262D01*
X125433489Y-61830260D01*
X125278847Y-61799500D01*
X125278843Y-61799500D01*
X125121158Y-61799500D01*
X125121153Y-61799500D01*
X124966510Y-61830260D01*
X124966502Y-61830262D01*
X124820824Y-61890604D01*
X124820814Y-61890609D01*
X124689711Y-61978210D01*
X124689707Y-61978213D01*
X124404741Y-62263181D01*
X124343418Y-62296666D01*
X124317060Y-62299500D01*
X120122940Y-62299500D01*
X120055901Y-62279815D01*
X120035259Y-62263181D01*
X118919843Y-61147765D01*
X118886358Y-61086442D01*
X118885051Y-61040687D01*
X118890500Y-61006287D01*
X118890500Y-60793713D01*
X118857246Y-60583757D01*
X118791557Y-60381588D01*
X118695051Y-60192184D01*
X118695049Y-60192181D01*
X118695048Y-60192179D01*
X118570109Y-60020213D01*
X118419786Y-59869890D01*
X118247820Y-59744951D01*
X118058414Y-59648444D01*
X118058413Y-59648443D01*
X118058412Y-59648443D01*
X117856243Y-59582754D01*
X117856241Y-59582753D01*
X117856240Y-59582753D01*
X117694957Y-59557208D01*
X117646287Y-59549500D01*
X117433713Y-59549500D01*
X117385042Y-59557208D01*
X117223760Y-59582753D01*
X117021585Y-59648444D01*
X116832179Y-59744951D01*
X116660213Y-59869890D01*
X116509890Y-60020213D01*
X116384949Y-60192182D01*
X116380484Y-60200946D01*
X116332509Y-60251742D01*
X116264688Y-60268536D01*
X116198553Y-60245998D01*
X116159516Y-60200946D01*
X116155050Y-60192182D01*
X116030109Y-60020213D01*
X115879786Y-59869890D01*
X115707820Y-59744951D01*
X115518414Y-59648444D01*
X115518413Y-59648443D01*
X115518412Y-59648443D01*
X115316243Y-59582754D01*
X115316241Y-59582753D01*
X115316240Y-59582753D01*
X115154957Y-59557208D01*
X115106287Y-59549500D01*
X114893713Y-59549500D01*
X114845042Y-59557208D01*
X114683760Y-59582753D01*
X114481585Y-59648444D01*
X114292179Y-59744951D01*
X114120215Y-59869889D01*
X114006285Y-59983819D01*
X113944962Y-60017303D01*
X113875270Y-60012319D01*
X113819337Y-59970447D01*
X113802422Y-59939470D01*
X113753354Y-59807913D01*
X113753350Y-59807906D01*
X113667190Y-59692812D01*
X113667187Y-59692809D01*
X113552093Y-59606649D01*
X113552086Y-59606645D01*
X113417379Y-59556403D01*
X113417372Y-59556401D01*
X113357844Y-59550000D01*
X112710000Y-59550000D01*
X112710000Y-60466988D01*
X112652993Y-60434075D01*
X112525826Y-60400000D01*
X112394174Y-60400000D01*
X112267007Y-60434075D01*
X112210000Y-60466988D01*
X112210000Y-59550000D01*
X111562155Y-59550000D01*
X111502627Y-59556401D01*
X111502620Y-59556403D01*
X111367913Y-59606645D01*
X111367906Y-59606649D01*
X111252812Y-59692809D01*
X111252809Y-59692812D01*
X111166649Y-59807906D01*
X111166645Y-59807913D01*
X111116403Y-59942620D01*
X111116401Y-59942627D01*
X111110000Y-60002155D01*
X111110000Y-60650000D01*
X112026988Y-60650000D01*
X111994075Y-60707007D01*
X111960000Y-60834174D01*
X111960000Y-60965826D01*
X111994075Y-61092993D01*
X112026988Y-61150000D01*
X111110000Y-61150000D01*
X111110000Y-61797844D01*
X111116401Y-61857372D01*
X111116403Y-61857379D01*
X111166645Y-61992086D01*
X111166649Y-61992093D01*
X111252809Y-62107187D01*
X111252812Y-62107190D01*
X111367906Y-62193350D01*
X111367913Y-62193354D01*
X111502620Y-62243596D01*
X111502627Y-62243598D01*
X111562155Y-62249999D01*
X111562172Y-62250000D01*
X112210000Y-62250000D01*
X112210000Y-61333012D01*
X112267007Y-61365925D01*
X112394174Y-61400000D01*
X112525826Y-61400000D01*
X112652993Y-61365925D01*
X112710000Y-61333012D01*
X112710000Y-62250000D01*
X113357828Y-62250000D01*
X113357844Y-62249999D01*
X113417372Y-62243598D01*
X113417379Y-62243596D01*
X113552086Y-62193354D01*
X113552093Y-62193350D01*
X113667187Y-62107190D01*
X113667190Y-62107187D01*
X113753350Y-61992093D01*
X113753354Y-61992086D01*
X113802422Y-61860529D01*
X113844293Y-61804595D01*
X113909757Y-61780178D01*
X113978030Y-61795030D01*
X114006285Y-61816181D01*
X114120213Y-61930109D01*
X114292179Y-62055048D01*
X114292181Y-62055049D01*
X114292184Y-62055051D01*
X114481588Y-62151557D01*
X114683757Y-62217246D01*
X114893713Y-62250500D01*
X114893714Y-62250500D01*
X115106286Y-62250500D01*
X115106287Y-62250500D01*
X115316243Y-62217246D01*
X115518412Y-62151557D01*
X115707816Y-62055051D01*
X115794471Y-61992093D01*
X115879786Y-61930109D01*
X115879788Y-61930106D01*
X115879792Y-61930104D01*
X116030104Y-61779792D01*
X116030106Y-61779788D01*
X116030109Y-61779786D01*
X116155048Y-61607820D01*
X116155047Y-61607820D01*
X116155051Y-61607816D01*
X116159514Y-61599054D01*
X116207488Y-61548259D01*
X116275308Y-61531463D01*
X116341444Y-61553999D01*
X116380486Y-61599056D01*
X116384951Y-61607820D01*
X116509890Y-61779786D01*
X116660213Y-61930109D01*
X116832179Y-62055048D01*
X116832181Y-62055049D01*
X116832184Y-62055051D01*
X117021588Y-62151557D01*
X117223757Y-62217246D01*
X117433713Y-62250500D01*
X117433714Y-62250500D01*
X117646285Y-62250500D01*
X117646287Y-62250500D01*
X117680686Y-62245051D01*
X117749977Y-62254005D01*
X117787765Y-62279843D01*
X119118211Y-63610289D01*
X119176344Y-63668422D01*
X119229712Y-63721790D01*
X119360814Y-63809390D01*
X119360827Y-63809397D01*
X119494463Y-63864750D01*
X119506503Y-63869737D01*
X119661153Y-63900499D01*
X119661156Y-63900500D01*
X119997810Y-63900500D01*
X120064849Y-63920185D01*
X120110604Y-63972989D01*
X120120548Y-64042147D01*
X120091523Y-64105703D01*
X120045262Y-64139061D01*
X119920827Y-64190602D01*
X119920814Y-64190609D01*
X119789711Y-64278210D01*
X119789707Y-64278213D01*
X119678213Y-64389707D01*
X119678210Y-64389711D01*
X119590609Y-64520814D01*
X119590602Y-64520827D01*
X119530264Y-64666498D01*
X119530261Y-64666510D01*
X119499500Y-64821153D01*
X119499500Y-64978846D01*
X119530261Y-65133489D01*
X119530264Y-65133500D01*
X119590602Y-65279172D01*
X119590609Y-65279185D01*
X119678602Y-65410874D01*
X119699480Y-65477551D01*
X119699500Y-65479765D01*
X119699500Y-67475500D01*
X119679815Y-67542539D01*
X119627011Y-67588294D01*
X119575500Y-67599500D01*
X119496094Y-67599500D01*
X119429055Y-67579815D01*
X119383300Y-67527011D01*
X119379912Y-67518833D01*
X119332297Y-67391171D01*
X119332293Y-67391164D01*
X119244504Y-67273894D01*
X119220086Y-67208430D01*
X119234937Y-67140157D01*
X119244504Y-67125271D01*
X119331852Y-67008589D01*
X119331854Y-67008586D01*
X119382096Y-66873879D01*
X119382098Y-66873872D01*
X119388499Y-66814344D01*
X119388500Y-66814327D01*
X119388500Y-66450000D01*
X117255000Y-66450000D01*
X117245023Y-66459976D01*
X117235315Y-66493039D01*
X117182511Y-66538794D01*
X117131000Y-66550000D01*
X115033897Y-66550000D01*
X114966858Y-66530315D01*
X114959596Y-66525273D01*
X114867331Y-66456204D01*
X114867328Y-66456202D01*
X114732482Y-66405908D01*
X114732483Y-66405908D01*
X114672883Y-66399501D01*
X114672881Y-66399500D01*
X114672873Y-66399500D01*
X114672864Y-66399500D01*
X113327129Y-66399500D01*
X113327123Y-66399501D01*
X113267516Y-66405908D01*
X113167833Y-66443088D01*
X113098141Y-66448072D01*
X113036818Y-66414586D01*
X113003334Y-66353263D01*
X113000500Y-66326906D01*
X113000500Y-66158795D01*
X113020185Y-66091756D01*
X113072989Y-66046001D01*
X113081153Y-66042618D01*
X113108831Y-66032296D01*
X113108831Y-66032295D01*
X113108833Y-66032295D01*
X113108833Y-66032294D01*
X113224046Y-65946046D01*
X113256903Y-65902155D01*
X114875000Y-65902155D01*
X114875000Y-66050000D01*
X115750000Y-66050000D01*
X115750000Y-65450000D01*
X116250000Y-65450000D01*
X116250000Y-66050000D01*
X116881500Y-66050000D01*
X116891476Y-66040023D01*
X116901185Y-66006961D01*
X116953989Y-65961206D01*
X117005500Y-65950000D01*
X117950000Y-65950000D01*
X118450000Y-65950000D01*
X119388500Y-65950000D01*
X119388500Y-65585672D01*
X119388499Y-65585655D01*
X119382098Y-65526127D01*
X119382096Y-65526120D01*
X119331854Y-65391413D01*
X119331850Y-65391406D01*
X119245690Y-65276312D01*
X119245687Y-65276309D01*
X119130593Y-65190149D01*
X119130586Y-65190145D01*
X118995879Y-65139903D01*
X118995872Y-65139901D01*
X118936344Y-65133500D01*
X118450000Y-65133500D01*
X118450000Y-65950000D01*
X117950000Y-65950000D01*
X117950000Y-65133500D01*
X117463655Y-65133500D01*
X117404127Y-65139901D01*
X117404120Y-65139903D01*
X117269413Y-65190145D01*
X117269406Y-65190149D01*
X117154312Y-65276309D01*
X117154309Y-65276312D01*
X117068149Y-65391406D01*
X117068144Y-65391416D01*
X117048427Y-65444278D01*
X117006555Y-65500211D01*
X116941090Y-65524627D01*
X116872820Y-65509776D01*
X116867088Y-65506646D01*
X116732379Y-65456403D01*
X116732372Y-65456401D01*
X116672844Y-65450000D01*
X116250000Y-65450000D01*
X115750000Y-65450000D01*
X115327155Y-65450000D01*
X115267627Y-65456401D01*
X115267620Y-65456403D01*
X115132913Y-65506645D01*
X115132906Y-65506649D01*
X115017812Y-65592809D01*
X115017809Y-65592812D01*
X114931649Y-65707906D01*
X114931645Y-65707913D01*
X114881403Y-65842620D01*
X114881401Y-65842627D01*
X114875000Y-65902155D01*
X113256903Y-65902155D01*
X113310296Y-65830831D01*
X113360591Y-65695983D01*
X113367000Y-65636373D01*
X113366999Y-64163628D01*
X113360591Y-64104017D01*
X113358906Y-64099500D01*
X113310297Y-63969171D01*
X113310293Y-63969164D01*
X113224047Y-63853955D01*
X113224044Y-63853952D01*
X113108835Y-63767706D01*
X113108828Y-63767702D01*
X112973982Y-63717408D01*
X112973983Y-63717408D01*
X112914383Y-63711001D01*
X112914381Y-63711000D01*
X112914373Y-63711000D01*
X112914364Y-63711000D01*
X111685629Y-63711000D01*
X111685623Y-63711001D01*
X111626016Y-63717408D01*
X111491171Y-63767702D01*
X111491169Y-63767704D01*
X111374311Y-63855184D01*
X111308847Y-63879601D01*
X111240574Y-63864750D01*
X111225689Y-63855184D01*
X111224043Y-63853952D01*
X111108831Y-63767704D01*
X111108829Y-63767703D01*
X111108828Y-63767702D01*
X110973982Y-63717408D01*
X110973983Y-63717408D01*
X110914383Y-63711001D01*
X110914381Y-63711000D01*
X110914373Y-63711000D01*
X110914364Y-63711000D01*
X109685629Y-63711000D01*
X109685623Y-63711001D01*
X109626016Y-63717408D01*
X109491171Y-63767702D01*
X109491164Y-63767706D01*
X109375955Y-63853952D01*
X109375952Y-63853955D01*
X109289706Y-63969164D01*
X109289702Y-63969171D01*
X109271180Y-64018833D01*
X109229309Y-64074767D01*
X109163844Y-64099184D01*
X109154998Y-64099500D01*
X107782940Y-64099500D01*
X107715901Y-64079815D01*
X107695259Y-64063181D01*
X107336819Y-63704741D01*
X107303334Y-63643418D01*
X107300500Y-63617060D01*
X107300500Y-62556127D01*
X107320185Y-62489088D01*
X107349008Y-62457755D01*
X107414449Y-62407541D01*
X107507541Y-62314449D01*
X107587875Y-62209757D01*
X107653701Y-62095743D01*
X107704200Y-61973829D01*
X107738275Y-61846662D01*
X107755500Y-61715826D01*
X107755500Y-61150000D01*
X107750355Y-61078060D01*
X107737711Y-61034998D01*
X107736585Y-61029116D01*
X107737723Y-61017348D01*
X107735636Y-60988158D01*
X107738847Y-60965826D01*
X107755500Y-60850000D01*
X107755500Y-60284174D01*
X107738275Y-60153338D01*
X107704200Y-60026171D01*
X107653701Y-59904257D01*
X107653698Y-59904252D01*
X107653697Y-59904249D01*
X107653696Y-59904248D01*
X107587879Y-59790250D01*
X107587875Y-59790243D01*
X107507541Y-59685551D01*
X107414449Y-59592459D01*
X107349011Y-59542246D01*
X107307810Y-59485818D01*
X107300500Y-59443872D01*
X107300500Y-56559758D01*
X107320185Y-56492719D01*
X107372989Y-56446964D01*
X107442147Y-56437020D01*
X107505703Y-56466045D01*
X107512181Y-56472077D01*
X107570213Y-56530109D01*
X107742179Y-56655048D01*
X107742181Y-56655049D01*
X107742184Y-56655051D01*
X107827861Y-56698705D01*
X107931583Y-56751555D01*
X107931585Y-56751555D01*
X107931588Y-56751557D01*
X107999777Y-56773713D01*
X108133756Y-56817246D01*
X108167422Y-56822578D01*
X108273867Y-56839437D01*
X108337002Y-56869366D01*
X108342151Y-56874229D01*
X109978211Y-58510289D01*
X110089708Y-58621786D01*
X110089712Y-58621790D01*
X110220814Y-58709390D01*
X110220827Y-58709397D01*
X110366498Y-58769735D01*
X110366503Y-58769737D01*
X110521153Y-58800499D01*
X110521156Y-58800500D01*
X110521158Y-58800500D01*
X121418844Y-58800500D01*
X121418845Y-58800499D01*
X121573497Y-58769737D01*
X121719179Y-58709394D01*
X121850289Y-58621789D01*
X123455034Y-57017043D01*
X123516355Y-56983560D01*
X123586046Y-56988544D01*
X123641980Y-57030416D01*
X123665186Y-57085327D01*
X123682753Y-57196240D01*
X123748444Y-57398414D01*
X123844951Y-57587820D01*
X123969890Y-57759786D01*
X124120213Y-57910109D01*
X124292179Y-58035048D01*
X124292181Y-58035049D01*
X124292184Y-58035051D01*
X124481588Y-58131557D01*
X124683757Y-58197246D01*
X124893713Y-58230500D01*
X124893714Y-58230500D01*
X125106286Y-58230500D01*
X125106287Y-58230500D01*
X125316243Y-58197246D01*
X125518412Y-58131557D01*
X125707816Y-58035051D01*
X125729789Y-58019086D01*
X125879786Y-57910109D01*
X125879788Y-57910106D01*
X125879792Y-57910104D01*
X126030104Y-57759792D01*
X126030106Y-57759788D01*
X126030109Y-57759786D01*
X126155048Y-57587820D01*
X126155047Y-57587820D01*
X126155051Y-57587816D01*
X126251557Y-57398412D01*
X126317246Y-57196243D01*
X126350500Y-56986287D01*
X126350500Y-56773713D01*
X126317246Y-56563757D01*
X126251557Y-56361588D01*
X126155051Y-56172184D01*
X126155049Y-56172181D01*
X126155048Y-56172179D01*
X126030109Y-56000213D01*
X125879786Y-55849890D01*
X125707820Y-55724951D01*
X125707115Y-55724591D01*
X125699054Y-55720485D01*
X125648259Y-55672512D01*
X125631463Y-55604692D01*
X125653999Y-55538556D01*
X125699054Y-55499515D01*
X125707816Y-55495051D01*
X125847297Y-55393713D01*
X125879786Y-55370109D01*
X125879788Y-55370106D01*
X125879792Y-55370104D01*
X126030104Y-55219792D01*
X126030106Y-55219788D01*
X126030109Y-55219786D01*
X126155048Y-55047820D01*
X126155047Y-55047820D01*
X126155051Y-55047816D01*
X126251557Y-54858412D01*
X126317246Y-54656243D01*
X126350500Y-54446287D01*
X126350500Y-54233713D01*
X126317246Y-54023757D01*
X126251557Y-53821588D01*
X126155051Y-53632184D01*
X126155049Y-53632181D01*
X126155048Y-53632179D01*
X126030109Y-53460213D01*
X125916569Y-53346673D01*
X125883084Y-53285350D01*
X125888068Y-53215658D01*
X125929940Y-53159725D01*
X125960915Y-53142810D01*
X126092331Y-53093796D01*
X126207546Y-53007546D01*
X126293796Y-52892331D01*
X126344091Y-52757483D01*
X126350500Y-52697873D01*
X126350499Y-50902128D01*
X126344091Y-50842517D01*
X126293796Y-50707669D01*
X126293795Y-50707668D01*
X126293793Y-50707664D01*
X126207547Y-50592455D01*
X126207544Y-50592452D01*
X126092335Y-50506206D01*
X126092328Y-50506202D01*
X125957482Y-50455908D01*
X125957483Y-50455908D01*
X125897883Y-50449501D01*
X125897881Y-50449500D01*
X125897873Y-50449500D01*
X125897864Y-50449500D01*
X124102129Y-50449500D01*
X124102123Y-50449501D01*
X124042516Y-50455908D01*
X123907671Y-50506202D01*
X123907664Y-50506206D01*
X123792455Y-50592452D01*
X123792452Y-50592455D01*
X123706206Y-50707664D01*
X123706202Y-50707671D01*
X123655908Y-50842517D01*
X123649501Y-50902116D01*
X123649501Y-50902123D01*
X123649500Y-50902135D01*
X123649500Y-51967059D01*
X123629815Y-52034098D01*
X123613181Y-52054740D01*
X121004741Y-54663181D01*
X120943418Y-54696666D01*
X120917060Y-54699500D01*
X119900894Y-54699500D01*
X119833855Y-54679815D01*
X119800577Y-54648387D01*
X119780104Y-54620208D01*
X119641294Y-54481398D01*
X119607809Y-54420075D01*
X119612793Y-54350383D01*
X119654665Y-54294450D01*
X119663879Y-54288178D01*
X119669331Y-54284814D01*
X119669334Y-54284814D01*
X119818656Y-54192712D01*
X119942712Y-54068656D01*
X120034814Y-53919334D01*
X120089999Y-53752797D01*
X120100500Y-53650009D01*
X120100499Y-52349992D01*
X120089999Y-52247203D01*
X120034814Y-52080666D01*
X119942712Y-51931344D01*
X119818656Y-51807288D01*
X119669334Y-51715186D01*
X119502797Y-51660001D01*
X119502795Y-51660000D01*
X119400010Y-51649500D01*
X117799998Y-51649500D01*
X117799981Y-51649501D01*
X117697203Y-51660000D01*
X117697200Y-51660001D01*
X117530668Y-51715185D01*
X117530663Y-51715187D01*
X117381342Y-51807289D01*
X117257289Y-51931342D01*
X117165187Y-52080663D01*
X117165184Y-52080671D01*
X117153972Y-52114506D01*
X117114199Y-52171950D01*
X117049683Y-52198772D01*
X117036267Y-52199500D01*
X110163733Y-52199500D01*
X110096694Y-52179815D01*
X110050939Y-52127011D01*
X110046028Y-52114506D01*
X110041495Y-52100829D01*
X110034814Y-52080666D01*
X109942712Y-51931344D01*
X109818656Y-51807288D01*
X109669334Y-51715186D01*
X109502797Y-51660001D01*
X109502795Y-51660000D01*
X109400010Y-51649500D01*
X107799998Y-51649500D01*
X107799981Y-51649501D01*
X107697203Y-51660000D01*
X107697200Y-51660001D01*
X107530668Y-51715185D01*
X107530663Y-51715187D01*
X107381342Y-51807289D01*
X107257289Y-51931342D01*
X107165187Y-52080663D01*
X107165185Y-52080668D01*
X107149829Y-52127011D01*
X107110001Y-52247203D01*
X107110001Y-52247204D01*
X107110000Y-52247204D01*
X107099500Y-52349983D01*
X107099500Y-53650001D01*
X107099501Y-53650018D01*
X107110000Y-53752796D01*
X107110001Y-53752799D01*
X107165185Y-53919331D01*
X107165187Y-53919336D01*
X107257289Y-54068657D01*
X107381344Y-54192712D01*
X107536120Y-54288178D01*
X107582845Y-54340126D01*
X107594068Y-54409088D01*
X107566224Y-54473171D01*
X107558706Y-54481398D01*
X107419896Y-54620208D01*
X107399422Y-54648386D01*
X107344094Y-54691051D01*
X107299106Y-54699500D01*
X106921153Y-54699500D01*
X106766510Y-54730260D01*
X106766502Y-54730262D01*
X106620824Y-54790604D01*
X106620814Y-54790609D01*
X106489711Y-54878210D01*
X106489707Y-54878213D01*
X105997818Y-55370104D01*
X105989711Y-55378211D01*
X105933960Y-55433962D01*
X105878209Y-55489712D01*
X105790609Y-55620814D01*
X105790602Y-55620827D01*
X105730264Y-55766498D01*
X105730261Y-55766510D01*
X105699500Y-55921153D01*
X105699500Y-59443872D01*
X105679815Y-59510911D01*
X105650988Y-59542247D01*
X105585548Y-59592461D01*
X105492464Y-59685545D01*
X105492455Y-59685555D01*
X105412132Y-59790232D01*
X105412120Y-59790250D01*
X105346303Y-59904248D01*
X105346302Y-59904249D01*
X105295800Y-60026170D01*
X105261724Y-60153341D01*
X105244500Y-60284166D01*
X105244500Y-60850002D01*
X105249644Y-60921939D01*
X105260603Y-60959262D01*
X105264363Y-61011841D01*
X105244500Y-61149998D01*
X105244500Y-61715833D01*
X105261724Y-61846658D01*
X105261725Y-61846662D01*
X105295800Y-61973829D01*
X105343800Y-62089711D01*
X105346302Y-62095750D01*
X105346303Y-62095751D01*
X105412120Y-62209749D01*
X105412132Y-62209767D01*
X105478813Y-62296666D01*
X105492459Y-62314449D01*
X105585551Y-62407541D01*
X105650989Y-62457754D01*
X105692189Y-62514179D01*
X105699500Y-62556127D01*
X105699500Y-64078846D01*
X105730261Y-64233489D01*
X105730264Y-64233501D01*
X105790602Y-64379172D01*
X105790609Y-64379185D01*
X105878210Y-64510288D01*
X105878213Y-64510292D01*
X106778211Y-65410289D01*
X106823741Y-65455819D01*
X106857226Y-65517142D01*
X106852242Y-65586834D01*
X106810370Y-65642767D01*
X106744906Y-65667184D01*
X106736060Y-65667500D01*
X106449130Y-65667500D01*
X106449123Y-65667501D01*
X106389516Y-65673908D01*
X106254671Y-65724202D01*
X106254664Y-65724206D01*
X106139456Y-65810452D01*
X106139455Y-65810453D01*
X106139454Y-65810454D01*
X106109990Y-65849812D01*
X106054058Y-65891682D01*
X106010725Y-65899500D01*
X104096094Y-65899500D01*
X104029055Y-65879815D01*
X103983300Y-65827011D01*
X103979912Y-65818833D01*
X103932297Y-65691171D01*
X103932293Y-65691164D01*
X103846047Y-65575955D01*
X103846044Y-65575952D01*
X103730835Y-65489706D01*
X103730828Y-65489702D01*
X103595982Y-65439408D01*
X103595983Y-65439408D01*
X103536383Y-65433001D01*
X103536381Y-65433000D01*
X103536373Y-65433000D01*
X103536365Y-65433000D01*
X103424500Y-65433000D01*
X103357461Y-65413315D01*
X103311706Y-65360511D01*
X103300500Y-65309000D01*
X103300500Y-47231225D01*
X103320185Y-47164186D01*
X103372989Y-47118431D01*
X103442147Y-47108487D01*
X103505703Y-47137512D01*
X103531232Y-47168104D01*
X103581405Y-47252943D01*
X103581412Y-47252952D01*
X103698047Y-47369587D01*
X103698051Y-47369590D01*
X103698053Y-47369592D01*
X103840041Y-47453564D01*
X103876086Y-47464036D01*
X103998447Y-47499586D01*
X103998450Y-47499586D01*
X103998452Y-47499587D01*
X104035466Y-47502500D01*
X104035474Y-47502500D01*
X106294526Y-47502500D01*
X106294534Y-47502500D01*
X106331548Y-47499587D01*
X106331550Y-47499586D01*
X106331552Y-47499586D01*
X106373323Y-47487449D01*
X106489959Y-47453564D01*
X106631947Y-47369592D01*
X106728148Y-47273389D01*
X106742939Y-47260758D01*
X106822464Y-47202981D01*
X106962981Y-47062464D01*
X107079787Y-46901694D01*
X107170005Y-46724632D01*
X107231413Y-46535636D01*
X107262500Y-46339361D01*
X107262500Y-46140639D01*
X107231413Y-45944364D01*
X107200709Y-45849866D01*
X107170006Y-45755370D01*
X107170005Y-45755367D01*
X107124035Y-45665149D01*
X107079787Y-45578306D01*
X106962981Y-45417536D01*
X106822464Y-45277019D01*
X106742937Y-45219239D01*
X106736175Y-45213960D01*
X106732000Y-45210461D01*
X106631947Y-45110408D01*
X106566259Y-45071560D01*
X106558477Y-45065038D01*
X106544510Y-45044073D01*
X106527321Y-45025663D01*
X106525471Y-45015492D01*
X106519740Y-45006890D01*
X106519324Y-44981702D01*
X106514817Y-44956921D01*
X106518758Y-44947366D01*
X106518588Y-44937030D01*
X106531856Y-44915616D01*
X106541462Y-44892332D01*
X106551874Y-44883309D01*
X106555389Y-44877638D01*
X106562127Y-44874425D01*
X106575004Y-44863268D01*
X106631947Y-44829592D01*
X106728148Y-44733389D01*
X106742939Y-44720758D01*
X106822464Y-44662981D01*
X106962981Y-44522464D01*
X107079787Y-44361694D01*
X107170005Y-44184632D01*
X107231413Y-43995636D01*
X107262500Y-43799361D01*
X107262500Y-43600639D01*
X107231413Y-43404364D01*
X107170005Y-43215368D01*
X107170005Y-43215367D01*
X107079786Y-43038305D01*
X106962981Y-42877536D01*
X106822464Y-42737019D01*
X106742937Y-42679239D01*
X106736175Y-42673960D01*
X106732000Y-42670461D01*
X106631947Y-42570408D01*
X106566259Y-42531560D01*
X106558477Y-42525038D01*
X106544510Y-42504073D01*
X106527321Y-42485663D01*
X106525471Y-42475492D01*
X106519740Y-42466890D01*
X106519324Y-42441702D01*
X106514817Y-42416921D01*
X106518758Y-42407366D01*
X106518588Y-42397030D01*
X106531856Y-42375616D01*
X106541462Y-42352332D01*
X106551874Y-42343309D01*
X106555389Y-42337638D01*
X106562127Y-42334425D01*
X106575004Y-42323268D01*
X106631947Y-42289592D01*
X106728148Y-42193389D01*
X106742939Y-42180758D01*
X106822464Y-42122981D01*
X106962981Y-41982464D01*
X107079787Y-41821694D01*
X107170005Y-41644632D01*
X107231413Y-41455636D01*
X107262500Y-41259361D01*
X107262500Y-41060639D01*
X107231413Y-40864364D01*
X107174955Y-40690602D01*
X107170006Y-40675370D01*
X107170005Y-40675367D01*
X107079786Y-40498305D01*
X107078836Y-40496997D01*
X106962981Y-40337536D01*
X106822464Y-40197019D01*
X106742937Y-40139239D01*
X106736175Y-40133960D01*
X106732000Y-40130461D01*
X106631947Y-40030408D01*
X106566259Y-39991560D01*
X106558477Y-39985038D01*
X106544510Y-39964073D01*
X106527321Y-39945663D01*
X106525471Y-39935492D01*
X106519740Y-39926890D01*
X106519324Y-39901702D01*
X106514817Y-39876921D01*
X106518758Y-39867366D01*
X106518588Y-39857030D01*
X106531856Y-39835616D01*
X106541462Y-39812332D01*
X106551874Y-39803309D01*
X106555389Y-39797638D01*
X106562127Y-39794425D01*
X106575004Y-39783268D01*
X106631947Y-39749592D01*
X106728148Y-39653389D01*
X106742939Y-39640758D01*
X106822464Y-39582981D01*
X106962981Y-39442464D01*
X107079787Y-39281694D01*
X107170005Y-39104632D01*
X107231413Y-38915636D01*
X107262500Y-38719361D01*
X107262500Y-38520639D01*
X107231413Y-38324364D01*
X107200709Y-38229866D01*
X107170006Y-38135370D01*
X107170005Y-38135367D01*
X107124035Y-38045149D01*
X107079787Y-37958306D01*
X106962981Y-37797536D01*
X106822464Y-37657019D01*
X106742937Y-37599239D01*
X106736175Y-37593960D01*
X106732000Y-37590461D01*
X106631947Y-37490408D01*
X106566259Y-37451560D01*
X106558477Y-37445038D01*
X106544510Y-37424073D01*
X106527321Y-37405663D01*
X106525471Y-37395492D01*
X106519740Y-37386890D01*
X106519324Y-37361702D01*
X106514817Y-37336921D01*
X106518758Y-37327366D01*
X106518588Y-37317030D01*
X106531856Y-37295616D01*
X106541462Y-37272332D01*
X106551874Y-37263309D01*
X106555389Y-37257638D01*
X106562127Y-37254425D01*
X106575004Y-37243268D01*
X106631947Y-37209592D01*
X106728148Y-37113389D01*
X106742939Y-37100758D01*
X106822464Y-37042981D01*
X106962981Y-36902464D01*
X107079787Y-36741694D01*
X107170005Y-36564632D01*
X107231413Y-36375636D01*
X107262500Y-36179361D01*
X107262500Y-35980639D01*
X107231413Y-35784364D01*
X107170005Y-35595368D01*
X107170005Y-35595367D01*
X107079786Y-35418305D01*
X106962981Y-35257536D01*
X106822464Y-35117019D01*
X106742937Y-35059239D01*
X106736175Y-35053960D01*
X106732000Y-35050461D01*
X106631947Y-34950408D01*
X106566259Y-34911560D01*
X106558477Y-34905038D01*
X106544510Y-34884073D01*
X106527321Y-34865663D01*
X106525471Y-34855492D01*
X106519740Y-34846890D01*
X106519324Y-34821702D01*
X106514817Y-34796921D01*
X106518758Y-34787366D01*
X106518588Y-34777030D01*
X106531856Y-34755616D01*
X106541462Y-34732332D01*
X106551874Y-34723309D01*
X106555389Y-34717638D01*
X106562127Y-34714425D01*
X106575004Y-34703268D01*
X106575498Y-34702976D01*
X106631947Y-34669592D01*
X106728148Y-34573389D01*
X106742939Y-34560758D01*
X106822464Y-34502981D01*
X106962981Y-34362464D01*
X107079787Y-34201694D01*
X107170005Y-34024632D01*
X107231413Y-33835636D01*
X107262500Y-33639361D01*
X107262500Y-33440639D01*
X107231413Y-33244364D01*
X107170005Y-33055368D01*
X107170005Y-33055367D01*
X107079786Y-32878305D01*
X107069762Y-32864508D01*
X106962981Y-32717536D01*
X106822464Y-32577019D01*
X106742938Y-32519240D01*
X106728147Y-32506608D01*
X106654221Y-32432682D01*
X106654219Y-32432679D01*
X106631952Y-32410412D01*
X106631944Y-32410406D01*
X106602389Y-32392927D01*
X106575003Y-32376731D01*
X106548875Y-32348748D01*
X108999500Y-32348748D01*
X108999500Y-32434108D01*
X108999500Y-44934108D01*
X108999500Y-45000000D01*
X108999500Y-45151252D01*
X109035963Y-45451551D01*
X109078200Y-45622915D01*
X109108358Y-45745271D01*
X109133169Y-45810691D01*
X109215627Y-46028113D01*
X109356207Y-46295968D01*
X109528050Y-46544924D01*
X109528052Y-46544926D01*
X109528054Y-46544929D01*
X109728646Y-46771351D01*
X109728648Y-46771353D01*
X109933180Y-46952552D01*
X109955076Y-46971950D01*
X110204032Y-47143793D01*
X110471887Y-47284373D01*
X110667783Y-47358666D01*
X110754728Y-47391641D01*
X110754730Y-47391641D01*
X110754734Y-47391643D01*
X111048449Y-47464037D01*
X111299661Y-47494539D01*
X111348746Y-47500500D01*
X111348748Y-47500500D01*
X115651254Y-47500500D01*
X115696630Y-47494990D01*
X115951551Y-47464037D01*
X116245266Y-47391643D01*
X116528113Y-47284373D01*
X116795968Y-47143793D01*
X117044924Y-46971950D01*
X117271352Y-46771352D01*
X117471950Y-46544924D01*
X117643793Y-46295968D01*
X117784373Y-46028113D01*
X117891643Y-45745266D01*
X117964037Y-45451551D01*
X118000500Y-45151252D01*
X118000500Y-45000000D01*
X118000500Y-44934108D01*
X118000500Y-32434108D01*
X118000500Y-32348748D01*
X117964037Y-32048449D01*
X117891643Y-31754734D01*
X117784373Y-31471887D01*
X117643793Y-31204032D01*
X117471950Y-30955076D01*
X117423723Y-30900639D01*
X119977500Y-30900639D01*
X119977500Y-31099360D01*
X120008587Y-31295637D01*
X120069993Y-31484629D01*
X120069994Y-31484632D01*
X120146502Y-31634785D01*
X120160213Y-31661694D01*
X120277019Y-31822464D01*
X120277021Y-31822466D01*
X120417539Y-31962984D01*
X120497060Y-32020758D01*
X120503786Y-32026007D01*
X120507979Y-32029518D01*
X120608053Y-32129592D01*
X120674208Y-32168716D01*
X120681975Y-32175220D01*
X120695962Y-32196197D01*
X120713170Y-32214627D01*
X120715015Y-32224773D01*
X120720736Y-32233353D01*
X120721161Y-32258564D01*
X120725673Y-32283369D01*
X120721740Y-32292900D01*
X120721915Y-32303212D01*
X120708643Y-32324649D01*
X120699028Y-32347958D01*
X120688643Y-32356956D01*
X120685137Y-32362620D01*
X120678391Y-32365838D01*
X120665487Y-32377021D01*
X120608370Y-32410800D01*
X120608357Y-32410810D01*
X120536360Y-32482806D01*
X120536360Y-32482807D01*
X121155905Y-33102352D01*
X121068429Y-33125792D01*
X120967070Y-33184311D01*
X120884311Y-33267070D01*
X120825792Y-33368429D01*
X120802352Y-33455905D01*
X120187730Y-32841282D01*
X120187729Y-32841283D01*
X120160643Y-32878564D01*
X120070457Y-33055562D01*
X120009075Y-33244476D01*
X120009075Y-33244479D01*
X119978000Y-33440678D01*
X119978000Y-33639321D01*
X120009075Y-33835520D01*
X120009075Y-33835523D01*
X120070457Y-34024437D01*
X120160641Y-34201432D01*
X120187730Y-34238715D01*
X120187731Y-34238716D01*
X120802352Y-33624094D01*
X120825792Y-33711571D01*
X120884311Y-33812930D01*
X120967070Y-33895689D01*
X121068429Y-33954208D01*
X121155904Y-33977647D01*
X120536360Y-34597191D01*
X120608360Y-34669192D01*
X120608364Y-34669195D01*
X120665486Y-34702977D01*
X120713169Y-34754046D01*
X120725673Y-34822788D01*
X120699028Y-34887377D01*
X120681975Y-34904779D01*
X120674204Y-34911285D01*
X120608053Y-34950408D01*
X120507990Y-35050469D01*
X120503784Y-35053992D01*
X120502598Y-35054509D01*
X120497061Y-35059239D01*
X120417536Y-35117018D01*
X120277021Y-35257533D01*
X120160213Y-35418305D01*
X120069994Y-35595367D01*
X120069993Y-35595370D01*
X120008587Y-35784362D01*
X119977500Y-35980639D01*
X119977500Y-36179360D01*
X120008587Y-36375637D01*
X120069993Y-36564629D01*
X120069994Y-36564632D01*
X120160213Y-36741694D01*
X120277019Y-36902464D01*
X120277021Y-36902466D01*
X120417539Y-37042984D01*
X120497060Y-37100758D01*
X120503824Y-37106039D01*
X120507998Y-37109537D01*
X120608053Y-37209592D01*
X120673737Y-37248437D01*
X120681522Y-37254962D01*
X120695488Y-37275926D01*
X120712679Y-37294338D01*
X120714528Y-37304506D01*
X120720260Y-37313110D01*
X120720674Y-37338297D01*
X120725182Y-37363079D01*
X120721239Y-37372634D01*
X120721410Y-37382970D01*
X120708143Y-37404381D01*
X120698536Y-37427669D01*
X120688122Y-37436692D01*
X120684609Y-37442363D01*
X120677871Y-37445575D01*
X120664996Y-37456732D01*
X120608053Y-37490408D01*
X120608046Y-37490413D01*
X120511854Y-37586604D01*
X120497061Y-37599239D01*
X120417536Y-37657018D01*
X120277021Y-37797533D01*
X120160213Y-37958305D01*
X120069994Y-38135367D01*
X120069993Y-38135370D01*
X120008587Y-38324362D01*
X119977500Y-38520639D01*
X119977500Y-38719360D01*
X120008587Y-38915637D01*
X120069993Y-39104629D01*
X120069994Y-39104632D01*
X120160213Y-39281694D01*
X120277019Y-39442464D01*
X120277021Y-39442466D01*
X120417539Y-39582984D01*
X120478395Y-39627197D01*
X120486300Y-39632941D01*
X120497060Y-39640758D01*
X120503824Y-39646039D01*
X120507998Y-39649537D01*
X120608053Y-39749592D01*
X120673737Y-39788437D01*
X120681522Y-39794962D01*
X120695488Y-39815926D01*
X120712679Y-39834338D01*
X120714528Y-39844506D01*
X120720260Y-39853110D01*
X120720674Y-39878297D01*
X120725182Y-39903079D01*
X120721239Y-39912634D01*
X120721410Y-39922970D01*
X120708143Y-39944381D01*
X120698536Y-39967669D01*
X120688122Y-39976692D01*
X120684609Y-39982363D01*
X120677871Y-39985575D01*
X120664996Y-39996732D01*
X120608053Y-40030408D01*
X120608046Y-40030413D01*
X120511854Y-40126604D01*
X120497061Y-40139239D01*
X120417536Y-40197018D01*
X120277021Y-40337533D01*
X120160213Y-40498305D01*
X120069994Y-40675367D01*
X120069993Y-40675370D01*
X120008587Y-40864362D01*
X119977500Y-41060639D01*
X119977500Y-41259360D01*
X120008587Y-41455637D01*
X120069993Y-41644629D01*
X120069994Y-41644632D01*
X120090445Y-41684768D01*
X120160213Y-41821694D01*
X120277019Y-41982464D01*
X120277021Y-41982466D01*
X120417539Y-42122984D01*
X120497060Y-42180758D01*
X120503824Y-42186039D01*
X120507998Y-42189537D01*
X120608053Y-42289592D01*
X120673737Y-42328437D01*
X120681522Y-42334962D01*
X120695488Y-42355926D01*
X120712679Y-42374338D01*
X120714528Y-42384506D01*
X120720260Y-42393110D01*
X120720674Y-42418297D01*
X120725182Y-42443079D01*
X120721239Y-42452634D01*
X120721410Y-42462970D01*
X120708143Y-42484381D01*
X120698536Y-42507669D01*
X120688122Y-42516692D01*
X120684609Y-42522363D01*
X120677871Y-42525575D01*
X120664996Y-42536732D01*
X120608053Y-42570408D01*
X120608046Y-42570413D01*
X120511854Y-42666604D01*
X120497061Y-42679239D01*
X120417536Y-42737018D01*
X120277021Y-42877533D01*
X120160213Y-43038305D01*
X120069994Y-43215367D01*
X120069993Y-43215370D01*
X120008587Y-43404362D01*
X119977500Y-43600639D01*
X119977500Y-43799360D01*
X120008587Y-43995637D01*
X120069993Y-44184629D01*
X120069994Y-44184632D01*
X120160213Y-44361694D01*
X120277019Y-44522464D01*
X120277021Y-44522466D01*
X120417539Y-44662984D01*
X120497060Y-44720758D01*
X120503824Y-44726039D01*
X120507998Y-44729537D01*
X120608053Y-44829592D01*
X120673737Y-44868437D01*
X120681522Y-44874962D01*
X120695488Y-44895926D01*
X120712679Y-44914338D01*
X120714528Y-44924506D01*
X120720260Y-44933110D01*
X120720674Y-44958297D01*
X120725182Y-44983079D01*
X120721239Y-44992634D01*
X120721410Y-45002970D01*
X120708143Y-45024381D01*
X120698536Y-45047669D01*
X120688122Y-45056692D01*
X120684609Y-45062363D01*
X120677871Y-45065575D01*
X120664996Y-45076732D01*
X120608053Y-45110408D01*
X120608046Y-45110413D01*
X120511854Y-45206604D01*
X120497061Y-45219239D01*
X120417536Y-45277018D01*
X120277021Y-45417533D01*
X120160213Y-45578305D01*
X120069994Y-45755367D01*
X120069993Y-45755370D01*
X120008587Y-45944362D01*
X119995322Y-46028113D01*
X119977500Y-46140639D01*
X119977500Y-46339361D01*
X119993043Y-46437498D01*
X120008587Y-46535637D01*
X120069993Y-46724629D01*
X120069994Y-46724632D01*
X120160213Y-46901694D01*
X120277019Y-47062464D01*
X120277021Y-47062466D01*
X120417539Y-47202984D01*
X120497060Y-47260758D01*
X120511851Y-47273390D01*
X120608053Y-47369592D01*
X120750041Y-47453564D01*
X120786086Y-47464036D01*
X120908447Y-47499586D01*
X120908450Y-47499586D01*
X120908452Y-47499587D01*
X120945466Y-47502500D01*
X120945474Y-47502500D01*
X123204526Y-47502500D01*
X123204534Y-47502500D01*
X123241548Y-47499587D01*
X123241550Y-47499586D01*
X123241552Y-47499586D01*
X123283323Y-47487449D01*
X123399959Y-47453564D01*
X123541947Y-47369592D01*
X123658592Y-47252947D01*
X123742564Y-47110959D01*
X123788587Y-46952548D01*
X123791500Y-46915534D01*
X123791500Y-45564466D01*
X123788587Y-45527452D01*
X123742564Y-45369041D01*
X123658592Y-45227053D01*
X123658590Y-45227051D01*
X123658587Y-45227047D01*
X123541952Y-45110412D01*
X123541944Y-45110406D01*
X123485004Y-45076732D01*
X123437321Y-45025663D01*
X123424817Y-44956921D01*
X123451462Y-44892332D01*
X123485004Y-44863268D01*
X123541947Y-44829592D01*
X123658592Y-44712947D01*
X123742564Y-44570959D01*
X123788587Y-44412548D01*
X123791500Y-44375534D01*
X123791500Y-43024466D01*
X123788587Y-42987452D01*
X123742564Y-42829041D01*
X123658592Y-42687053D01*
X123658590Y-42687051D01*
X123658587Y-42687047D01*
X123541952Y-42570412D01*
X123541944Y-42570406D01*
X123485004Y-42536732D01*
X123437321Y-42485663D01*
X123424817Y-42416921D01*
X123451462Y-42352332D01*
X123485004Y-42323268D01*
X123541947Y-42289592D01*
X123658592Y-42172947D01*
X123742564Y-42030959D01*
X123788587Y-41872548D01*
X123791500Y-41835534D01*
X123791500Y-40484466D01*
X123788587Y-40447452D01*
X123783226Y-40429000D01*
X123742565Y-40289045D01*
X123742564Y-40289042D01*
X123742564Y-40289041D01*
X123658592Y-40147053D01*
X123658590Y-40147051D01*
X123658587Y-40147047D01*
X123541952Y-40030412D01*
X123541944Y-40030406D01*
X123485004Y-39996732D01*
X123437321Y-39945663D01*
X123424817Y-39876921D01*
X123451462Y-39812332D01*
X123485004Y-39783268D01*
X123541947Y-39749592D01*
X123658592Y-39632947D01*
X123742564Y-39490959D01*
X123788587Y-39332548D01*
X123791500Y-39295534D01*
X123791500Y-37944466D01*
X123788587Y-37907452D01*
X123742564Y-37749041D01*
X123658592Y-37607053D01*
X123658590Y-37607051D01*
X123658587Y-37607047D01*
X123541952Y-37490412D01*
X123541944Y-37490406D01*
X123485004Y-37456732D01*
X123437321Y-37405663D01*
X123424817Y-37336921D01*
X123451462Y-37272332D01*
X123485004Y-37243268D01*
X123541947Y-37209592D01*
X123658592Y-37092947D01*
X123742564Y-36950959D01*
X123788587Y-36792548D01*
X123791500Y-36755534D01*
X123791500Y-35404466D01*
X123788587Y-35367452D01*
X123742564Y-35209041D01*
X123658592Y-35067053D01*
X123658590Y-35067051D01*
X123658587Y-35067047D01*
X123541952Y-34950412D01*
X123541949Y-34950410D01*
X123541947Y-34950408D01*
X123484511Y-34916440D01*
X123436829Y-34865371D01*
X123424326Y-34796630D01*
X123450972Y-34732040D01*
X123484514Y-34702976D01*
X123541637Y-34669193D01*
X123541643Y-34669189D01*
X123658189Y-34552643D01*
X123658196Y-34552634D01*
X123742102Y-34410756D01*
X123742103Y-34410753D01*
X123788088Y-34252473D01*
X123788089Y-34252467D01*
X123790999Y-34215488D01*
X123790999Y-32864530D01*
X123790998Y-32864508D01*
X123788089Y-32827533D01*
X123742102Y-32669242D01*
X123658196Y-32527365D01*
X123658189Y-32527356D01*
X123541643Y-32410810D01*
X123541634Y-32410803D01*
X123484513Y-32377022D01*
X123436829Y-32325953D01*
X123424326Y-32257211D01*
X123450972Y-32192622D01*
X123472847Y-32171381D01*
X123478451Y-32167143D01*
X123541947Y-32129592D01*
X123584833Y-32086705D01*
X123591669Y-32081537D01*
X123616655Y-32072080D01*
X123640098Y-32059280D01*
X123648828Y-32059904D01*
X123657015Y-32056806D01*
X123683144Y-32062358D01*
X123709790Y-32064264D01*
X123718522Y-32069876D01*
X123725359Y-32071329D01*
X123733815Y-32079705D01*
X123754137Y-32092765D01*
X123922713Y-32261341D01*
X124133293Y-32414336D01*
X124365215Y-32532506D01*
X124612767Y-32612941D01*
X124869854Y-32653660D01*
X124869855Y-32653660D01*
X125130145Y-32653660D01*
X125130146Y-32653660D01*
X125387233Y-32612941D01*
X125634785Y-32532506D01*
X125866707Y-32414336D01*
X126077287Y-32261341D01*
X126261341Y-32077287D01*
X126414336Y-31866707D01*
X126532506Y-31634785D01*
X126612941Y-31387233D01*
X126653660Y-31130146D01*
X126653660Y-30869854D01*
X126612941Y-30612767D01*
X126532506Y-30365215D01*
X126414336Y-30133293D01*
X126261341Y-29922713D01*
X126077287Y-29738659D01*
X125866707Y-29585664D01*
X125634785Y-29467494D01*
X125387233Y-29387059D01*
X125387231Y-29387058D01*
X125387229Y-29387058D01*
X125143316Y-29348426D01*
X125130146Y-29346340D01*
X124869854Y-29346340D01*
X124856684Y-29348426D01*
X124612770Y-29387058D01*
X124365212Y-29467495D01*
X124133289Y-29585666D01*
X123922716Y-29738656D01*
X123922710Y-29738661D01*
X123754137Y-29907235D01*
X123692814Y-29940720D01*
X123623122Y-29935736D01*
X123578775Y-29907235D01*
X123541952Y-29870412D01*
X123541943Y-29870405D01*
X123399957Y-29786435D01*
X123399954Y-29786434D01*
X123241552Y-29740413D01*
X123241546Y-29740412D01*
X123204541Y-29737500D01*
X123204534Y-29737500D01*
X120945466Y-29737500D01*
X120945458Y-29737500D01*
X120908453Y-29740412D01*
X120908447Y-29740413D01*
X120750045Y-29786434D01*
X120750042Y-29786435D01*
X120608056Y-29870405D01*
X120608046Y-29870413D01*
X120511854Y-29966604D01*
X120497061Y-29979239D01*
X120417536Y-30037018D01*
X120277021Y-30177533D01*
X120160213Y-30338305D01*
X120069994Y-30515367D01*
X120069993Y-30515370D01*
X120008587Y-30704362D01*
X119977500Y-30900639D01*
X117423723Y-30900639D01*
X117343905Y-30810543D01*
X117271353Y-30728648D01*
X117271351Y-30728646D01*
X117044929Y-30528054D01*
X117044926Y-30528052D01*
X117044924Y-30528050D01*
X116795968Y-30356207D01*
X116528113Y-30215627D01*
X116427668Y-30177533D01*
X116245271Y-30108358D01*
X116175034Y-30091046D01*
X115951551Y-30035963D01*
X115771371Y-30014085D01*
X115651254Y-29999500D01*
X115651252Y-29999500D01*
X115565892Y-29999500D01*
X111565892Y-29999500D01*
X111500000Y-29999500D01*
X111348748Y-29999500D01*
X111348746Y-29999500D01*
X111198598Y-30017731D01*
X111048449Y-30035963D01*
X110928641Y-30065493D01*
X110754728Y-30108358D01*
X110471886Y-30215627D01*
X110306685Y-30302330D01*
X110204032Y-30356207D01*
X110204030Y-30356208D01*
X110204025Y-30356211D01*
X109955070Y-30528054D01*
X109728648Y-30728646D01*
X109728646Y-30728648D01*
X109528054Y-30955070D01*
X109356211Y-31204025D01*
X109215627Y-31471886D01*
X109108358Y-31754728D01*
X109080758Y-31866707D01*
X109035963Y-32048449D01*
X109026110Y-32129595D01*
X109007474Y-32283079D01*
X108999500Y-32348748D01*
X106548875Y-32348748D01*
X106527321Y-32325663D01*
X106514817Y-32256921D01*
X106541462Y-32192332D01*
X106575004Y-32163268D01*
X106631947Y-32129592D01*
X106728148Y-32033389D01*
X106742939Y-32020758D01*
X106822464Y-31962981D01*
X106962981Y-31822464D01*
X107079787Y-31661694D01*
X107170005Y-31484632D01*
X107231413Y-31295636D01*
X107262500Y-31099361D01*
X107262500Y-30900639D01*
X107231413Y-30704364D01*
X107170005Y-30515368D01*
X107170005Y-30515367D01*
X107088908Y-30356207D01*
X107079787Y-30338306D01*
X106962981Y-30177536D01*
X106822464Y-30037019D01*
X106770823Y-29999500D01*
X106742938Y-29979240D01*
X106728147Y-29966608D01*
X106631947Y-29870408D01*
X106631946Y-29870407D01*
X106631943Y-29870405D01*
X106489957Y-29786435D01*
X106489954Y-29786434D01*
X106331552Y-29740413D01*
X106331546Y-29740412D01*
X106294541Y-29737500D01*
X106294534Y-29737500D01*
X104035466Y-29737500D01*
X104035458Y-29737500D01*
X103998453Y-29740412D01*
X103998447Y-29740413D01*
X103840045Y-29786434D01*
X103840042Y-29786435D01*
X103698056Y-29870405D01*
X103698047Y-29870412D01*
X103581412Y-29987047D01*
X103581406Y-29987055D01*
X103554852Y-30031955D01*
X103503782Y-30079637D01*
X103435040Y-30092140D01*
X103370451Y-30065493D01*
X103347803Y-30041718D01*
X103326455Y-30012335D01*
X103261341Y-29922713D01*
X103077287Y-29738659D01*
X102866707Y-29585664D01*
X102634785Y-29467494D01*
X102387233Y-29387059D01*
X102387231Y-29387058D01*
X102387229Y-29387058D01*
X102143316Y-29348426D01*
X102130146Y-29346340D01*
X101869854Y-29346340D01*
X101856684Y-29348426D01*
X101612770Y-29387058D01*
X101365212Y-29467495D01*
X101133289Y-29585666D01*
X100922716Y-29738656D01*
X100922710Y-29738661D01*
X100738661Y-29922710D01*
X100738656Y-29922716D01*
X100585666Y-30133289D01*
X100467495Y-30365212D01*
X100387058Y-30612770D01*
X100368705Y-30728646D01*
X100346340Y-30869854D01*
X99508372Y-30869854D01*
X99509120Y-30857495D01*
X99518271Y-30706205D01*
X99520076Y-30691340D01*
X99539389Y-30585957D01*
X99571780Y-30409198D01*
X99575364Y-30394664D01*
X99660699Y-30120812D01*
X99665997Y-30106842D01*
X99783727Y-29845258D01*
X99790680Y-29832012D01*
X99847814Y-29737500D01*
X99939075Y-29586534D01*
X99947567Y-29574230D01*
X100124481Y-29348417D01*
X100134396Y-29337226D01*
X100337226Y-29134396D01*
X100348417Y-29124481D01*
X100574230Y-28947567D01*
X100586534Y-28939075D01*
X100832012Y-28790680D01*
X100845258Y-28783727D01*
X101106842Y-28665997D01*
X101120812Y-28660699D01*
X101394668Y-28575362D01*
X101409198Y-28571780D01*
X101691344Y-28520075D01*
X101706201Y-28518271D01*
X101996264Y-28500726D01*
X102003751Y-28500500D01*
X102065892Y-28500500D01*
X124934108Y-28500500D01*
X124996249Y-28500500D01*
X125003736Y-28500726D01*
G37*
%TD.AperFunction*%
%TD*%
M02*
