%TF.GenerationSoftware,KiCad,Pcbnew,10.0.0*%
%TF.CreationDate,2026-05-12T19:48:04+02:00*%
%TF.ProjectId,esp32-c6-motion-light,65737033-322d-4633-962d-6d6f74696f6e,rev?*%
%TF.SameCoordinates,Original*%
%TF.FileFunction,Soldermask,Top*%
%TF.FilePolarity,Negative*%
%FSLAX46Y46*%
G04 Gerber Fmt 4.6, Leading zero omitted, Abs format (unit mm)*
G04 Created by KiCad (PCBNEW 10.0.0) date 2026-05-12 19:48:04*
%MOMM*%
%LPD*%
G01*
G04 APERTURE LIST*
G04 APERTURE END LIST*
G36*
X113010000Y-79750000D02*
G01*
X111310000Y-79750000D01*
X111310000Y-78050000D01*
X113010000Y-78050000D01*
X113010000Y-79750000D01*
G37*
G36*
X114946742Y-78086601D02*
G01*
X115100687Y-78150367D01*
X115239234Y-78242941D01*
X115357059Y-78360766D01*
X115449633Y-78499313D01*
X115513399Y-78653258D01*
X115545907Y-78816685D01*
X115545907Y-78983315D01*
X115513399Y-79146742D01*
X115449633Y-79300687D01*
X115357059Y-79439234D01*
X115239234Y-79557059D01*
X115100687Y-79649633D01*
X114946742Y-79713399D01*
X114783315Y-79745907D01*
X114616685Y-79745907D01*
X114453258Y-79713399D01*
X114299313Y-79649633D01*
X114160766Y-79557059D01*
X114042941Y-79439234D01*
X113950367Y-79300687D01*
X113886601Y-79146742D01*
X113854093Y-78983315D01*
X113854093Y-78816685D01*
X113886601Y-78653258D01*
X113950367Y-78499313D01*
X114042941Y-78360766D01*
X114160766Y-78242941D01*
X114299313Y-78150367D01*
X114453258Y-78086601D01*
X114616685Y-78054093D01*
X114783315Y-78054093D01*
X114946742Y-78086601D01*
G37*
G36*
X117486742Y-78086601D02*
G01*
X117640687Y-78150367D01*
X117779234Y-78242941D01*
X117897059Y-78360766D01*
X117989633Y-78499313D01*
X118053399Y-78653258D01*
X118085907Y-78816685D01*
X118085907Y-78983315D01*
X118053399Y-79146742D01*
X117989633Y-79300687D01*
X117897059Y-79439234D01*
X117779234Y-79557059D01*
X117640687Y-79649633D01*
X117486742Y-79713399D01*
X117323315Y-79745907D01*
X117156685Y-79745907D01*
X116993258Y-79713399D01*
X116839313Y-79649633D01*
X116700766Y-79557059D01*
X116582941Y-79439234D01*
X116490367Y-79300687D01*
X116426601Y-79146742D01*
X116394093Y-78983315D01*
X116394093Y-78816685D01*
X116426601Y-78653258D01*
X116490367Y-78499313D01*
X116582941Y-78360766D01*
X116700766Y-78242941D01*
X116839313Y-78150367D01*
X116993258Y-78086601D01*
X117156685Y-78054093D01*
X117323315Y-78054093D01*
X117486742Y-78086601D01*
G37*
G36*
X111600000Y-75300000D02*
G01*
X109600000Y-75300000D01*
X109600000Y-73300000D01*
X111600000Y-73300000D01*
X111600000Y-75300000D01*
G37*
G36*
X115500000Y-75300000D02*
G01*
X113500000Y-75300000D01*
X113500000Y-73300000D01*
X115500000Y-73300000D01*
X115500000Y-75300000D01*
G37*
G36*
X119500000Y-75300000D02*
G01*
X117500000Y-75300000D01*
X117500000Y-73300000D01*
X119500000Y-73300000D01*
X119500000Y-75300000D01*
G37*
G36*
X123500000Y-75300000D02*
G01*
X121500000Y-75300000D01*
X121500000Y-73300000D01*
X123500000Y-73300000D01*
X123500000Y-75300000D01*
G37*
G36*
X111616000Y-70018500D02*
G01*
X111084000Y-70018500D01*
X111084000Y-68981500D01*
X111616000Y-68981500D01*
X111616000Y-70018500D01*
G37*
G36*
X103488500Y-69066500D02*
G01*
X102111500Y-69066500D01*
X102111500Y-67933500D01*
X103488500Y-67933500D01*
X103488500Y-69066500D01*
G37*
G36*
X118888500Y-68766500D02*
G01*
X117511500Y-68766500D01*
X117511500Y-67633500D01*
X118888500Y-67633500D01*
X118888500Y-68766500D01*
G37*
G36*
X116625000Y-68550000D02*
G01*
X115375000Y-68550000D01*
X115375000Y-67850000D01*
X116625000Y-67850000D01*
X116625000Y-68550000D01*
G37*
G36*
X110666000Y-67818500D02*
G01*
X110134000Y-67818500D01*
X110134000Y-66781500D01*
X110666000Y-66781500D01*
X110666000Y-67818500D01*
G37*
G36*
X112566000Y-67818500D02*
G01*
X112034000Y-67818500D01*
X112034000Y-66781500D01*
X112566000Y-66781500D01*
X112566000Y-67818500D01*
G37*
G36*
X114625000Y-67600000D02*
G01*
X113375000Y-67600000D01*
X113375000Y-66900000D01*
X114625000Y-66900000D01*
X114625000Y-67600000D01*
G37*
G36*
X103488500Y-67066500D02*
G01*
X102111500Y-67066500D01*
X102111500Y-65933500D01*
X103488500Y-65933500D01*
X103488500Y-67066500D01*
G37*
G36*
X107303000Y-67032000D02*
G01*
X106497000Y-67032000D01*
X106497000Y-66168000D01*
X107303000Y-66168000D01*
X107303000Y-67032000D01*
G37*
G36*
X108803000Y-67032000D02*
G01*
X107997000Y-67032000D01*
X107997000Y-66168000D01*
X108803000Y-66168000D01*
X108803000Y-67032000D01*
G37*
G36*
X118888500Y-66766500D02*
G01*
X117511500Y-66766500D01*
X117511500Y-65633500D01*
X118888500Y-65633500D01*
X118888500Y-66766500D01*
G37*
G36*
X116625000Y-66650000D02*
G01*
X115375000Y-66650000D01*
X115375000Y-65950000D01*
X116625000Y-65950000D01*
X116625000Y-66650000D01*
G37*
G36*
X110866500Y-65588500D02*
G01*
X109733500Y-65588500D01*
X109733500Y-64211500D01*
X110866500Y-64211500D01*
X110866500Y-65588500D01*
G37*
G36*
X112866500Y-65588500D02*
G01*
X111733500Y-65588500D01*
X111733500Y-64211500D01*
X112866500Y-64211500D01*
X112866500Y-65588500D01*
G37*
G36*
X106753536Y-59846464D02*
G01*
X106754701Y-59849278D01*
X106811327Y-59849278D01*
X106815263Y-59849278D01*
X106816557Y-59849448D01*
X106942636Y-59883230D01*
X106943842Y-59883730D01*
X106947244Y-59885694D01*
X106947246Y-59885695D01*
X107053473Y-59947025D01*
X107053475Y-59947026D01*
X107056881Y-59948993D01*
X107057917Y-59949787D01*
X107150213Y-60042083D01*
X107151007Y-60043119D01*
X107216270Y-60156158D01*
X107216770Y-60157364D01*
X107250552Y-60283443D01*
X107250722Y-60284737D01*
X107250722Y-60345298D01*
X107253536Y-60346464D01*
X107255000Y-60350000D01*
X107255000Y-60850000D01*
X107253536Y-60853536D01*
X107250251Y-60854895D01*
X107250000Y-60856160D01*
X107250000Y-61143838D01*
X107250251Y-61145104D01*
X107253536Y-61146464D01*
X107255000Y-61150000D01*
X107255000Y-61650000D01*
X107253536Y-61653536D01*
X107250722Y-61654701D01*
X107250722Y-61715263D01*
X107250552Y-61716557D01*
X107216770Y-61842636D01*
X107216270Y-61843842D01*
X107151007Y-61956881D01*
X107150213Y-61957917D01*
X107057917Y-62050213D01*
X107056881Y-62051007D01*
X106943842Y-62116270D01*
X106942636Y-62116770D01*
X106816557Y-62150552D01*
X106815263Y-62150722D01*
X106754701Y-62150722D01*
X106753536Y-62153536D01*
X106750000Y-62155000D01*
X106738066Y-62155000D01*
X106261934Y-62155000D01*
X106250000Y-62155000D01*
X106246464Y-62153536D01*
X106245299Y-62150722D01*
X106188673Y-62150722D01*
X106184737Y-62150722D01*
X106183443Y-62150552D01*
X106057364Y-62116770D01*
X106056158Y-62116270D01*
X105943119Y-62051007D01*
X105942083Y-62050213D01*
X105849787Y-61957917D01*
X105848993Y-61956881D01*
X105783730Y-61843842D01*
X105783230Y-61842636D01*
X105749448Y-61716557D01*
X105749278Y-61715263D01*
X105749278Y-61654701D01*
X105746464Y-61653536D01*
X105745000Y-61650000D01*
X105745000Y-61150000D01*
X105746464Y-61146464D01*
X105749748Y-61145104D01*
X105750000Y-61143838D01*
X105750000Y-60856160D01*
X105749748Y-60854895D01*
X105746464Y-60853536D01*
X105745000Y-60850000D01*
X105745000Y-60350000D01*
X105746464Y-60346464D01*
X105749278Y-60345298D01*
X105749278Y-60284737D01*
X105749448Y-60283443D01*
X105783230Y-60157364D01*
X105783730Y-60156158D01*
X105785692Y-60152758D01*
X105785695Y-60152753D01*
X105847025Y-60046526D01*
X105847028Y-60046520D01*
X105848993Y-60043119D01*
X105849787Y-60042083D01*
X105942083Y-59949787D01*
X105943119Y-59948993D01*
X105946520Y-59947028D01*
X105946526Y-59947025D01*
X106052753Y-59885695D01*
X106052758Y-59885692D01*
X106056158Y-59883730D01*
X106057364Y-59883230D01*
X106183443Y-59849448D01*
X106184737Y-59849278D01*
X106245299Y-59849278D01*
X106246464Y-59846464D01*
X106250000Y-59845000D01*
X106750000Y-59845000D01*
X106753536Y-59846464D01*
G37*
G36*
X113310000Y-61750000D02*
G01*
X111610000Y-61750000D01*
X111610000Y-60050000D01*
X113310000Y-60050000D01*
X113310000Y-61750000D01*
G37*
G36*
X115246742Y-60086601D02*
G01*
X115400687Y-60150367D01*
X115539234Y-60242941D01*
X115657059Y-60360766D01*
X115749633Y-60499313D01*
X115813399Y-60653258D01*
X115845907Y-60816685D01*
X115845907Y-60983315D01*
X115813399Y-61146742D01*
X115749633Y-61300687D01*
X115657059Y-61439234D01*
X115539234Y-61557059D01*
X115400687Y-61649633D01*
X115246742Y-61713399D01*
X115083315Y-61745907D01*
X114916685Y-61745907D01*
X114753258Y-61713399D01*
X114599313Y-61649633D01*
X114460766Y-61557059D01*
X114342941Y-61439234D01*
X114250367Y-61300687D01*
X114186601Y-61146742D01*
X114154093Y-60983315D01*
X114154093Y-60816685D01*
X114186601Y-60653258D01*
X114250367Y-60499313D01*
X114342941Y-60360766D01*
X114460766Y-60242941D01*
X114599313Y-60150367D01*
X114753258Y-60086601D01*
X114916685Y-60054093D01*
X115083315Y-60054093D01*
X115246742Y-60086601D01*
G37*
G36*
X117786742Y-60086601D02*
G01*
X117940687Y-60150367D01*
X118079234Y-60242941D01*
X118197059Y-60360766D01*
X118289633Y-60499313D01*
X118353399Y-60653258D01*
X118385907Y-60816685D01*
X118385907Y-60983315D01*
X118353399Y-61146742D01*
X118289633Y-61300687D01*
X118197059Y-61439234D01*
X118079234Y-61557059D01*
X117940687Y-61649633D01*
X117786742Y-61713399D01*
X117623315Y-61745907D01*
X117456685Y-61745907D01*
X117293258Y-61713399D01*
X117139313Y-61649633D01*
X117000766Y-61557059D01*
X116882941Y-61439234D01*
X116790367Y-61300687D01*
X116726601Y-61146742D01*
X116694093Y-60983315D01*
X116694093Y-60816685D01*
X116726601Y-60653258D01*
X116790367Y-60499313D01*
X116882941Y-60360766D01*
X117000766Y-60242941D01*
X117139313Y-60150367D01*
X117293258Y-60086601D01*
X117456685Y-60054093D01*
X117623315Y-60054093D01*
X117786742Y-60086601D01*
G37*
G36*
X125246742Y-56066601D02*
G01*
X125400687Y-56130367D01*
X125539234Y-56222941D01*
X125657059Y-56340766D01*
X125749633Y-56479313D01*
X125813399Y-56633258D01*
X125845907Y-56796685D01*
X125845907Y-56963315D01*
X125813399Y-57126742D01*
X125749633Y-57280687D01*
X125657059Y-57419234D01*
X125539234Y-57537059D01*
X125400687Y-57629633D01*
X125246742Y-57693399D01*
X125083315Y-57725907D01*
X124916685Y-57725907D01*
X124753258Y-57693399D01*
X124599313Y-57629633D01*
X124460766Y-57537059D01*
X124342941Y-57419234D01*
X124250367Y-57280687D01*
X124186601Y-57126742D01*
X124154093Y-56963315D01*
X124154093Y-56796685D01*
X124186601Y-56633258D01*
X124250367Y-56479313D01*
X124342941Y-56340766D01*
X124460766Y-56222941D01*
X124599313Y-56130367D01*
X124753258Y-56066601D01*
X124916685Y-56034093D01*
X125083315Y-56034093D01*
X125246742Y-56066601D01*
G37*
G36*
X108833315Y-54654093D02*
G01*
X108996742Y-54686601D01*
X109150687Y-54750367D01*
X109289234Y-54842941D01*
X109407059Y-54960766D01*
X109499633Y-55099313D01*
X109563399Y-55253258D01*
X109595907Y-55416685D01*
X109595907Y-55583315D01*
X109563399Y-55746742D01*
X109499633Y-55900687D01*
X109407059Y-56039234D01*
X109289234Y-56157059D01*
X109150687Y-56249633D01*
X108996742Y-56313399D01*
X108833315Y-56345907D01*
X108750000Y-56350000D01*
X108748522Y-56350000D01*
X108451478Y-56350000D01*
X108450000Y-56350000D01*
X108366685Y-56345907D01*
X108203258Y-56313399D01*
X108049313Y-56249633D01*
X107910766Y-56157059D01*
X107792941Y-56039234D01*
X107700367Y-55900687D01*
X107636601Y-55746742D01*
X107604093Y-55583315D01*
X107604093Y-55416685D01*
X107636601Y-55253258D01*
X107700367Y-55099313D01*
X107792941Y-54960766D01*
X107910766Y-54842941D01*
X108049313Y-54750367D01*
X108203258Y-54686601D01*
X108366685Y-54654093D01*
X108450000Y-54650000D01*
X108750000Y-54650000D01*
X108833315Y-54654093D01*
G37*
G36*
X118833315Y-54654093D02*
G01*
X118996742Y-54686601D01*
X119150687Y-54750367D01*
X119289234Y-54842941D01*
X119407059Y-54960766D01*
X119499633Y-55099313D01*
X119563399Y-55253258D01*
X119595907Y-55416685D01*
X119595907Y-55583315D01*
X119563399Y-55746742D01*
X119499633Y-55900687D01*
X119407059Y-56039234D01*
X119289234Y-56157059D01*
X119150687Y-56249633D01*
X118996742Y-56313399D01*
X118833315Y-56345907D01*
X118750000Y-56350000D01*
X118748522Y-56350000D01*
X118451478Y-56350000D01*
X118450000Y-56350000D01*
X118366685Y-56345907D01*
X118203258Y-56313399D01*
X118049313Y-56249633D01*
X117910766Y-56157059D01*
X117792941Y-56039234D01*
X117700367Y-55900687D01*
X117636601Y-55746742D01*
X117604093Y-55583315D01*
X117604093Y-55416685D01*
X117636601Y-55253258D01*
X117700367Y-55099313D01*
X117792941Y-54960766D01*
X117910766Y-54842941D01*
X118049313Y-54750367D01*
X118203258Y-54686601D01*
X118366685Y-54654093D01*
X118450000Y-54650000D01*
X118750000Y-54650000D01*
X118833315Y-54654093D01*
G37*
G36*
X125246742Y-53526601D02*
G01*
X125400687Y-53590367D01*
X125539234Y-53682941D01*
X125657059Y-53800766D01*
X125749633Y-53939313D01*
X125813399Y-54093258D01*
X125845907Y-54256685D01*
X125845907Y-54423315D01*
X125813399Y-54586742D01*
X125749633Y-54740687D01*
X125657059Y-54879234D01*
X125539234Y-54997059D01*
X125400687Y-55089633D01*
X125246742Y-55153399D01*
X125083315Y-55185907D01*
X124916685Y-55185907D01*
X124753258Y-55153399D01*
X124599313Y-55089633D01*
X124460766Y-54997059D01*
X124342941Y-54879234D01*
X124250367Y-54740687D01*
X124186601Y-54586742D01*
X124154093Y-54423315D01*
X124154093Y-54256685D01*
X124186601Y-54093258D01*
X124250367Y-53939313D01*
X124342941Y-53800766D01*
X124460766Y-53682941D01*
X124599313Y-53590367D01*
X124753258Y-53526601D01*
X124916685Y-53494093D01*
X125083315Y-53494093D01*
X125246742Y-53526601D01*
G37*
G36*
X109354850Y-52150964D02*
G01*
X109405040Y-52156787D01*
X109422189Y-52164359D01*
X109445671Y-52169030D01*
X109470810Y-52185827D01*
X109490696Y-52194608D01*
X109504277Y-52208189D01*
X109526777Y-52223223D01*
X109541810Y-52245722D01*
X109555391Y-52259303D01*
X109564170Y-52279186D01*
X109580970Y-52304329D01*
X109585641Y-52327812D01*
X109593212Y-52344959D01*
X109599033Y-52395139D01*
X109600000Y-52400000D01*
X109600000Y-53600000D01*
X109599032Y-53604863D01*
X109593212Y-53655040D01*
X109585641Y-53672185D01*
X109580970Y-53695671D01*
X109564169Y-53720815D01*
X109555391Y-53740696D01*
X109541812Y-53754274D01*
X109526777Y-53776777D01*
X109504274Y-53791812D01*
X109490696Y-53805391D01*
X109470815Y-53814169D01*
X109445671Y-53830970D01*
X109422185Y-53835641D01*
X109405040Y-53843212D01*
X109354861Y-53849032D01*
X109350000Y-53850000D01*
X107850000Y-53850000D01*
X107845138Y-53849032D01*
X107794959Y-53843212D01*
X107777812Y-53835641D01*
X107754329Y-53830970D01*
X107729186Y-53814170D01*
X107709303Y-53805391D01*
X107695722Y-53791810D01*
X107673223Y-53776777D01*
X107658189Y-53754277D01*
X107644608Y-53740696D01*
X107635827Y-53720810D01*
X107619030Y-53695671D01*
X107614359Y-53672189D01*
X107606787Y-53655040D01*
X107600964Y-53604849D01*
X107600000Y-53600000D01*
X107600000Y-52400000D01*
X107600964Y-52395150D01*
X107606787Y-52344959D01*
X107614359Y-52327808D01*
X107619030Y-52304329D01*
X107635826Y-52279191D01*
X107644608Y-52259303D01*
X107658191Y-52245719D01*
X107673223Y-52223223D01*
X107695719Y-52208191D01*
X107709303Y-52194608D01*
X107729191Y-52185826D01*
X107754329Y-52169030D01*
X107777808Y-52164359D01*
X107794959Y-52156787D01*
X107845151Y-52150964D01*
X107850000Y-52150000D01*
X109350000Y-52150000D01*
X109354850Y-52150964D01*
G37*
G36*
X119354850Y-52150964D02*
G01*
X119405040Y-52156787D01*
X119422189Y-52164359D01*
X119445671Y-52169030D01*
X119470810Y-52185827D01*
X119490696Y-52194608D01*
X119504277Y-52208189D01*
X119526777Y-52223223D01*
X119541810Y-52245722D01*
X119555391Y-52259303D01*
X119564170Y-52279186D01*
X119580970Y-52304329D01*
X119585641Y-52327812D01*
X119593212Y-52344959D01*
X119599033Y-52395139D01*
X119600000Y-52400000D01*
X119600000Y-53600000D01*
X119599032Y-53604863D01*
X119593212Y-53655040D01*
X119585641Y-53672185D01*
X119580970Y-53695671D01*
X119564169Y-53720815D01*
X119555391Y-53740696D01*
X119541812Y-53754274D01*
X119526777Y-53776777D01*
X119504274Y-53791812D01*
X119490696Y-53805391D01*
X119470815Y-53814169D01*
X119445671Y-53830970D01*
X119422185Y-53835641D01*
X119405040Y-53843212D01*
X119354861Y-53849032D01*
X119350000Y-53850000D01*
X117850000Y-53850000D01*
X117845138Y-53849032D01*
X117794959Y-53843212D01*
X117777812Y-53835641D01*
X117754329Y-53830970D01*
X117729186Y-53814170D01*
X117709303Y-53805391D01*
X117695722Y-53791810D01*
X117673223Y-53776777D01*
X117658189Y-53754277D01*
X117644608Y-53740696D01*
X117635827Y-53720810D01*
X117619030Y-53695671D01*
X117614359Y-53672189D01*
X117606787Y-53655040D01*
X117600964Y-53604849D01*
X117600000Y-53600000D01*
X117600000Y-52400000D01*
X117600964Y-52395150D01*
X117606787Y-52344959D01*
X117614359Y-52327808D01*
X117619030Y-52304329D01*
X117635826Y-52279191D01*
X117644608Y-52259303D01*
X117658191Y-52245719D01*
X117673223Y-52223223D01*
X117695719Y-52208191D01*
X117709303Y-52194608D01*
X117729191Y-52185826D01*
X117754329Y-52169030D01*
X117777808Y-52164359D01*
X117794959Y-52156787D01*
X117845151Y-52150964D01*
X117850000Y-52150000D01*
X119350000Y-52150000D01*
X119354850Y-52150964D01*
G37*
G36*
X125850000Y-52650000D02*
G01*
X124150000Y-52650000D01*
X124150000Y-50950000D01*
X125850000Y-50950000D01*
X125850000Y-52650000D01*
G37*
G36*
X106286921Y-45489601D02*
G01*
X106336363Y-45522637D01*
X106369399Y-45572079D01*
X106369647Y-45573327D01*
X106374549Y-45578229D01*
X106483408Y-45650966D01*
X106589034Y-45756592D01*
X106672024Y-45880796D01*
X106729189Y-46018803D01*
X106758331Y-46165311D01*
X106758331Y-46314689D01*
X106729189Y-46461197D01*
X106672024Y-46599204D01*
X106589034Y-46723408D01*
X106483408Y-46829034D01*
X106374546Y-46901772D01*
X106369647Y-46906671D01*
X106369399Y-46907921D01*
X106336363Y-46957363D01*
X106286921Y-46990399D01*
X106228600Y-47002000D01*
X104101400Y-47002000D01*
X104043079Y-46990399D01*
X103993637Y-46957363D01*
X103960601Y-46907921D01*
X103949000Y-46849600D01*
X103949000Y-45630400D01*
X103960601Y-45572079D01*
X103993637Y-45522637D01*
X104043079Y-45489601D01*
X104101400Y-45478000D01*
X106228600Y-45478000D01*
X106286921Y-45489601D01*
G37*
G36*
X123196921Y-45489601D02*
G01*
X123246363Y-45522637D01*
X123279399Y-45572079D01*
X123291000Y-45630400D01*
X123291000Y-46849600D01*
X123279399Y-46907921D01*
X123246363Y-46957363D01*
X123196921Y-46990399D01*
X123138600Y-47002000D01*
X121011400Y-47002000D01*
X120953079Y-46990399D01*
X120903637Y-46957363D01*
X120870601Y-46907921D01*
X120870352Y-46906672D01*
X120865450Y-46901770D01*
X120756592Y-46829034D01*
X120650966Y-46723408D01*
X120567976Y-46599204D01*
X120510811Y-46461197D01*
X120481669Y-46314689D01*
X120481669Y-46165311D01*
X120510811Y-46018803D01*
X120567976Y-45880796D01*
X120650966Y-45756592D01*
X120756592Y-45650966D01*
X120865447Y-45578231D01*
X120870352Y-45573326D01*
X120870601Y-45572079D01*
X120903637Y-45522637D01*
X120953079Y-45489601D01*
X121011400Y-45478000D01*
X123138600Y-45478000D01*
X123196921Y-45489601D01*
G37*
G36*
X106286921Y-42949601D02*
G01*
X106336363Y-42982637D01*
X106369399Y-43032079D01*
X106369647Y-43033327D01*
X106374549Y-43038229D01*
X106483408Y-43110966D01*
X106589034Y-43216592D01*
X106672024Y-43340796D01*
X106729189Y-43478803D01*
X106758331Y-43625311D01*
X106758331Y-43774689D01*
X106729189Y-43921197D01*
X106672024Y-44059204D01*
X106589034Y-44183408D01*
X106483408Y-44289034D01*
X106374546Y-44361772D01*
X106369647Y-44366671D01*
X106369399Y-44367921D01*
X106336363Y-44417363D01*
X106286921Y-44450399D01*
X106228600Y-44462000D01*
X104101400Y-44462000D01*
X104043079Y-44450399D01*
X103993637Y-44417363D01*
X103960601Y-44367921D01*
X103949000Y-44309600D01*
X103949000Y-43090400D01*
X103960601Y-43032079D01*
X103993637Y-42982637D01*
X104043079Y-42949601D01*
X104101400Y-42938000D01*
X106228600Y-42938000D01*
X106286921Y-42949601D01*
G37*
G36*
X123196921Y-42949601D02*
G01*
X123246363Y-42982637D01*
X123279399Y-43032079D01*
X123291000Y-43090400D01*
X123291000Y-44309600D01*
X123279399Y-44367921D01*
X123246363Y-44417363D01*
X123196921Y-44450399D01*
X123138600Y-44462000D01*
X121011400Y-44462000D01*
X120953079Y-44450399D01*
X120903637Y-44417363D01*
X120870601Y-44367921D01*
X120870352Y-44366672D01*
X120865450Y-44361770D01*
X120756592Y-44289034D01*
X120650966Y-44183408D01*
X120567976Y-44059204D01*
X120510811Y-43921197D01*
X120481669Y-43774689D01*
X120481669Y-43625311D01*
X120510811Y-43478803D01*
X120567976Y-43340796D01*
X120650966Y-43216592D01*
X120756592Y-43110966D01*
X120865447Y-43038231D01*
X120870352Y-43033326D01*
X120870601Y-43032079D01*
X120903637Y-42982637D01*
X120953079Y-42949601D01*
X121011400Y-42938000D01*
X123138600Y-42938000D01*
X123196921Y-42949601D01*
G37*
G36*
X106286921Y-40409601D02*
G01*
X106336363Y-40442637D01*
X106369399Y-40492079D01*
X106369647Y-40493327D01*
X106374549Y-40498229D01*
X106483408Y-40570966D01*
X106589034Y-40676592D01*
X106672024Y-40800796D01*
X106729189Y-40938803D01*
X106758331Y-41085311D01*
X106758331Y-41234689D01*
X106729189Y-41381197D01*
X106672024Y-41519204D01*
X106589034Y-41643408D01*
X106483408Y-41749034D01*
X106374546Y-41821772D01*
X106369647Y-41826671D01*
X106369399Y-41827921D01*
X106336363Y-41877363D01*
X106286921Y-41910399D01*
X106228600Y-41922000D01*
X104101400Y-41922000D01*
X104043079Y-41910399D01*
X103993637Y-41877363D01*
X103960601Y-41827921D01*
X103949000Y-41769600D01*
X103949000Y-40550400D01*
X103960601Y-40492079D01*
X103993637Y-40442637D01*
X104043079Y-40409601D01*
X104101400Y-40398000D01*
X106228600Y-40398000D01*
X106286921Y-40409601D01*
G37*
G36*
X123196921Y-40409601D02*
G01*
X123246363Y-40442637D01*
X123279399Y-40492079D01*
X123291000Y-40550400D01*
X123291000Y-41769600D01*
X123279399Y-41827921D01*
X123246363Y-41877363D01*
X123196921Y-41910399D01*
X123138600Y-41922000D01*
X121011400Y-41922000D01*
X120953079Y-41910399D01*
X120903637Y-41877363D01*
X120870601Y-41827921D01*
X120870352Y-41826672D01*
X120865450Y-41821770D01*
X120756592Y-41749034D01*
X120650966Y-41643408D01*
X120567976Y-41519204D01*
X120510811Y-41381197D01*
X120481669Y-41234689D01*
X120481669Y-41085311D01*
X120510811Y-40938803D01*
X120567976Y-40800796D01*
X120650966Y-40676592D01*
X120756592Y-40570966D01*
X120865447Y-40498231D01*
X120870352Y-40493326D01*
X120870601Y-40492079D01*
X120903637Y-40442637D01*
X120953079Y-40409601D01*
X121011400Y-40398000D01*
X123138600Y-40398000D01*
X123196921Y-40409601D01*
G37*
G36*
X106286921Y-37869601D02*
G01*
X106336363Y-37902637D01*
X106369399Y-37952079D01*
X106369647Y-37953327D01*
X106374549Y-37958229D01*
X106483408Y-38030966D01*
X106589034Y-38136592D01*
X106672024Y-38260796D01*
X106729189Y-38398803D01*
X106758331Y-38545311D01*
X106758331Y-38694689D01*
X106729189Y-38841197D01*
X106672024Y-38979204D01*
X106589034Y-39103408D01*
X106483408Y-39209034D01*
X106374546Y-39281772D01*
X106369647Y-39286671D01*
X106369399Y-39287921D01*
X106336363Y-39337363D01*
X106286921Y-39370399D01*
X106228600Y-39382000D01*
X104101400Y-39382000D01*
X104043079Y-39370399D01*
X103993637Y-39337363D01*
X103960601Y-39287921D01*
X103949000Y-39229600D01*
X103949000Y-38010400D01*
X103960601Y-37952079D01*
X103993637Y-37902637D01*
X104043079Y-37869601D01*
X104101400Y-37858000D01*
X106228600Y-37858000D01*
X106286921Y-37869601D01*
G37*
G36*
X123196921Y-37869601D02*
G01*
X123246363Y-37902637D01*
X123279399Y-37952079D01*
X123291000Y-38010400D01*
X123291000Y-39229600D01*
X123279399Y-39287921D01*
X123246363Y-39337363D01*
X123196921Y-39370399D01*
X123138600Y-39382000D01*
X121011400Y-39382000D01*
X120953079Y-39370399D01*
X120903637Y-39337363D01*
X120870601Y-39287921D01*
X120870352Y-39286672D01*
X120865450Y-39281770D01*
X120756592Y-39209034D01*
X120650966Y-39103408D01*
X120567976Y-38979204D01*
X120510811Y-38841197D01*
X120481669Y-38694689D01*
X120481669Y-38545311D01*
X120510811Y-38398803D01*
X120567976Y-38260796D01*
X120650966Y-38136592D01*
X120756592Y-38030966D01*
X120865447Y-37958231D01*
X120870352Y-37953326D01*
X120870601Y-37952079D01*
X120903637Y-37902637D01*
X120953079Y-37869601D01*
X121011400Y-37858000D01*
X123138600Y-37858000D01*
X123196921Y-37869601D01*
G37*
G36*
X106286921Y-35329601D02*
G01*
X106336363Y-35362637D01*
X106369399Y-35412079D01*
X106369647Y-35413327D01*
X106374549Y-35418229D01*
X106483408Y-35490966D01*
X106589034Y-35596592D01*
X106672024Y-35720796D01*
X106729189Y-35858803D01*
X106758331Y-36005311D01*
X106758331Y-36154689D01*
X106729189Y-36301197D01*
X106672024Y-36439204D01*
X106589034Y-36563408D01*
X106483408Y-36669034D01*
X106374546Y-36741772D01*
X106369647Y-36746671D01*
X106369399Y-36747921D01*
X106336363Y-36797363D01*
X106286921Y-36830399D01*
X106228600Y-36842000D01*
X104101400Y-36842000D01*
X104043079Y-36830399D01*
X103993637Y-36797363D01*
X103960601Y-36747921D01*
X103949000Y-36689600D01*
X103949000Y-35470400D01*
X103960601Y-35412079D01*
X103993637Y-35362637D01*
X104043079Y-35329601D01*
X104101400Y-35318000D01*
X106228600Y-35318000D01*
X106286921Y-35329601D01*
G37*
G36*
X123196921Y-35329601D02*
G01*
X123246363Y-35362637D01*
X123279399Y-35412079D01*
X123291000Y-35470400D01*
X123291000Y-36689600D01*
X123279399Y-36747921D01*
X123246363Y-36797363D01*
X123196921Y-36830399D01*
X123138600Y-36842000D01*
X121011400Y-36842000D01*
X120953079Y-36830399D01*
X120903637Y-36797363D01*
X120870601Y-36747921D01*
X120870352Y-36746672D01*
X120865450Y-36741770D01*
X120756592Y-36669034D01*
X120650966Y-36563408D01*
X120567976Y-36439204D01*
X120510811Y-36301197D01*
X120481669Y-36154689D01*
X120481669Y-36005311D01*
X120510811Y-35858803D01*
X120567976Y-35720796D01*
X120650966Y-35596592D01*
X120756592Y-35490966D01*
X120865447Y-35418231D01*
X120870352Y-35413326D01*
X120870601Y-35412079D01*
X120903637Y-35362637D01*
X120953079Y-35329601D01*
X121011400Y-35318000D01*
X123138600Y-35318000D01*
X123196921Y-35329601D01*
G37*
G36*
X106286921Y-32789601D02*
G01*
X106336363Y-32822637D01*
X106369399Y-32872079D01*
X106369647Y-32873327D01*
X106374549Y-32878229D01*
X106483408Y-32950966D01*
X106589034Y-33056592D01*
X106672024Y-33180796D01*
X106729189Y-33318803D01*
X106758331Y-33465311D01*
X106758331Y-33614689D01*
X106729189Y-33761197D01*
X106672024Y-33899204D01*
X106589034Y-34023408D01*
X106483408Y-34129034D01*
X106374546Y-34201772D01*
X106369647Y-34206671D01*
X106369399Y-34207921D01*
X106336363Y-34257363D01*
X106286921Y-34290399D01*
X106228600Y-34302000D01*
X104101400Y-34302000D01*
X104043079Y-34290399D01*
X103993637Y-34257363D01*
X103960601Y-34207921D01*
X103949000Y-34149600D01*
X103949000Y-32930400D01*
X103960601Y-32872079D01*
X103993637Y-32822637D01*
X104043079Y-32789601D01*
X104101400Y-32778000D01*
X106228600Y-32778000D01*
X106286921Y-32789601D01*
G37*
G36*
X123196921Y-32789601D02*
G01*
X123246363Y-32822637D01*
X123279399Y-32872079D01*
X123291000Y-32930400D01*
X123291000Y-34149600D01*
X123279399Y-34207921D01*
X123246363Y-34257363D01*
X123196921Y-34290399D01*
X123138600Y-34302000D01*
X121011400Y-34302000D01*
X120953079Y-34290399D01*
X120903637Y-34257363D01*
X120870601Y-34207921D01*
X120870352Y-34206672D01*
X120865450Y-34201770D01*
X120756592Y-34129034D01*
X120650966Y-34023408D01*
X120567976Y-33899204D01*
X120510811Y-33761197D01*
X120481669Y-33614689D01*
X120481669Y-33465311D01*
X120510811Y-33318803D01*
X120567976Y-33180796D01*
X120650966Y-33056592D01*
X120756592Y-32950966D01*
X120865447Y-32878231D01*
X120870352Y-32873326D01*
X120870601Y-32872079D01*
X120903637Y-32822637D01*
X120953079Y-32789601D01*
X121011400Y-32778000D01*
X123138600Y-32778000D01*
X123196921Y-32789601D01*
G37*
G36*
X106286921Y-30249601D02*
G01*
X106336363Y-30282637D01*
X106369399Y-30332079D01*
X106369647Y-30333327D01*
X106374549Y-30338229D01*
X106483408Y-30410966D01*
X106589034Y-30516592D01*
X106672024Y-30640796D01*
X106729189Y-30778803D01*
X106758331Y-30925311D01*
X106758331Y-31074689D01*
X106729189Y-31221197D01*
X106672024Y-31359204D01*
X106589034Y-31483408D01*
X106483408Y-31589034D01*
X106374546Y-31661772D01*
X106369647Y-31666671D01*
X106369399Y-31667921D01*
X106336363Y-31717363D01*
X106286921Y-31750399D01*
X106228600Y-31762000D01*
X104101400Y-31762000D01*
X104043079Y-31750399D01*
X103993637Y-31717363D01*
X103960601Y-31667921D01*
X103949000Y-31609600D01*
X103949000Y-30390400D01*
X103960601Y-30332079D01*
X103993637Y-30282637D01*
X104043079Y-30249601D01*
X104101400Y-30238000D01*
X106228600Y-30238000D01*
X106286921Y-30249601D01*
G37*
G36*
X123196921Y-30249601D02*
G01*
X123246363Y-30282637D01*
X123279399Y-30332079D01*
X123291000Y-30390400D01*
X123291000Y-31609600D01*
X123279399Y-31667921D01*
X123246363Y-31717363D01*
X123196921Y-31750399D01*
X123138600Y-31762000D01*
X121011400Y-31762000D01*
X120953079Y-31750399D01*
X120903637Y-31717363D01*
X120870601Y-31667921D01*
X120870352Y-31666672D01*
X120865450Y-31661770D01*
X120756592Y-31589034D01*
X120650966Y-31483408D01*
X120567976Y-31359204D01*
X120510811Y-31221197D01*
X120481669Y-31074689D01*
X120481669Y-30925311D01*
X120510811Y-30778803D01*
X120567976Y-30640796D01*
X120650966Y-30516592D01*
X120756592Y-30410966D01*
X120865447Y-30338231D01*
X120870352Y-30333326D01*
X120870601Y-30332079D01*
X120903637Y-30282637D01*
X120953079Y-30249601D01*
X121011400Y-30238000D01*
X123138600Y-30238000D01*
X123196921Y-30249601D01*
G37*
M02*
