%TF.GenerationSoftware,KiCad,Pcbnew,10.0.0*%
%TF.CreationDate,2026-05-12T19:48:04+02:00*%
%TF.ProjectId,esp32-c6-motion-light,65737033-322d-4633-962d-6d6f74696f6e,rev?*%
%TF.SameCoordinates,Original*%
%TF.FileFunction,Profile,NP*%
%FSLAX46Y46*%
G04 Gerber Fmt 4.6, Leading zero omitted, Abs format (unit mm)*
G04 Created by KiCad (PCBNEW 10.0.0) date 2026-05-12 19:48:04*
%MOMM*%
%LPD*%
G01*
G04 APERTURE LIST*
%TA.AperFunction,Profile*%
%ADD10C,0.050000*%
%TD*%
G04 APERTURE END LIST*
D10*
X125000000Y-28000000D02*
G75*
G02*
X128000000Y-31000000I0J-3000000D01*
G01*
X126153160Y-31000000D02*
G75*
G02*
X123846840Y-31000000I-1153160J0D01*
G01*
X123846840Y-31000000D02*
G75*
G02*
X126153160Y-31000000I1153160J0D01*
G01*
X99000000Y-31000000D02*
G75*
G02*
X102000000Y-28000000I3000000J0D01*
G01*
X102000000Y-28000000D02*
X125000000Y-28000000D01*
X103153160Y-31000000D02*
G75*
G02*
X100846840Y-31000000I-1153160J0D01*
G01*
X100846840Y-31000000D02*
G75*
G02*
X103153160Y-31000000I1153160J0D01*
G01*
X99000000Y-83000000D02*
X99000000Y-31000000D01*
X103153160Y-83000000D02*
G75*
G02*
X100846840Y-83000000I-1153160J0D01*
G01*
X100846840Y-83000000D02*
G75*
G02*
X103153160Y-83000000I1153160J0D01*
G01*
X102000000Y-86000000D02*
G75*
G02*
X99000000Y-83000000I0J3000000D01*
G01*
X109500000Y-32500000D02*
G75*
G02*
X111500000Y-30500000I2000000J0D01*
G01*
X109500000Y-45000000D02*
X109500000Y-32500000D01*
X111500000Y-30500000D02*
X115500000Y-30500000D01*
X111500000Y-47000000D02*
G75*
G02*
X109500000Y-45000000I0J2000000D01*
G01*
X115500000Y-30500000D02*
G75*
G02*
X117500000Y-32500000I0J-2000000D01*
G01*
X115500000Y-47000000D02*
X111500000Y-47000000D01*
X117500000Y-32500000D02*
X117500000Y-45000000D01*
X117500000Y-45000000D02*
G75*
G02*
X115500000Y-47000000I-2000000J0D01*
G01*
X126153160Y-83000000D02*
G75*
G02*
X123846840Y-83000000I-1153160J0D01*
G01*
X123846840Y-83000000D02*
G75*
G02*
X126153160Y-83000000I1153160J0D01*
G01*
X125000000Y-86000000D02*
X102000000Y-86000000D01*
X128000000Y-31000000D02*
X128000000Y-83000000D01*
X128000000Y-83000000D02*
G75*
G02*
X125000000Y-86000000I-3000000J0D01*
G01*
M02*
