%TF.GenerationSoftware,KiCad,Pcbnew,10.0.0*%
%TF.CreationDate,2026-03-30T22:31:15+02:00*%
%TF.ProjectId,kicad-esp32c6-co2,6b696361-642d-4657-9370-333263362d63,rev?*%
%TF.SameCoordinates,Original*%
%TF.FileFunction,Copper,L2,Inr*%
%TF.FilePolarity,Positive*%
%FSLAX46Y46*%
G04 Gerber Fmt 4.6, Leading zero omitted, Abs format (unit mm)*
G04 Created by KiCad (PCBNEW 10.0.0) date 2026-03-30 22:31:15*
%MOMM*%
%LPD*%
G01*
G04 APERTURE LIST*
%TA.AperFunction,ComponentPad*%
%ADD10C,1.524000*%
%TD*%
%TA.AperFunction,ComponentPad*%
%ADD11O,2.000000X1.200000*%
%TD*%
%TA.AperFunction,ViaPad*%
%ADD12C,0.600000*%
%TD*%
G04 APERTURE END LIST*
D10*
%TO.N,unconnected-(U1-GPIO0{slash}A0{slash}D0-Pad1)*%
%TO.C,U1*%
X63760000Y-43000000D03*
%TO.N,unconnected-(U1-GPIO1{slash}A1{slash}D1-Pad2)*%
X63760000Y-45540000D03*
%TO.N,unconnected-(U1-GPIO2{slash}A2{slash}D2-Pad3)*%
X63760000Y-48080000D03*
%TO.N,unconnected-(U1-GPIO21{slash}D3-Pad4)*%
X63760000Y-50620000D03*
%TO.N,Net-(SCD41-SDA)*%
X63760000Y-53160000D03*
%TO.N,Net-(SCD41-SCL)*%
X63760000Y-55700000D03*
%TO.N,unconnected-(U1-GPIO16{slash}D6{slash}TX-Pad7)*%
X63760000Y-58240000D03*
%TO.N,unconnected-(U1-GPIO17{slash}D7{slash}RX-Pad8)*%
X79000000Y-58240000D03*
%TO.N,unconnected-(U1-GPIO19{slash}D8{slash}SCK-Pad9)*%
X79000000Y-55700000D03*
%TO.N,unconnected-(U1-GPIO20{slash}D9{slash}MISO-Pad10)*%
X79000000Y-53160000D03*
%TO.N,unconnected-(U1-GPIO18{slash}D10{slash}MOSI-Pad11)*%
X79000000Y-50620000D03*
%TO.N,+3.3V*%
X79000000Y-48080000D03*
%TO.N,GND*%
X79000000Y-45540000D03*
%TO.N,unconnected-(U1-VBUS-Pad14)*%
X79000000Y-43000000D03*
%TD*%
D11*
%TO.N,GND*%
%TO.C,SCD41*%
X79000000Y-63920000D03*
%TO.N,+3.3V*%
X79000000Y-66460000D03*
%TO.N,Net-(SCD41-SCL)*%
X79000000Y-69000000D03*
%TO.N,Net-(SCD41-SDA)*%
X79000000Y-71540000D03*
%TD*%
D12*
%TO.N,Net-(SCD41-SCL)*%
X66900000Y-69000000D03*
%TD*%
%TA.AperFunction,Conductor*%
%TO.N,GND*%
G36*
X84642539Y-39820185D02*
G01*
X84688294Y-39872989D01*
X84699500Y-39924500D01*
X84699500Y-73675500D01*
X84679815Y-73742539D01*
X84627011Y-73788294D01*
X84575500Y-73799500D01*
X59024500Y-73799500D01*
X58957461Y-73779815D01*
X58911706Y-73727011D01*
X58900500Y-73675500D01*
X58900500Y-71453389D01*
X77499500Y-71453389D01*
X77499500Y-71626611D01*
X77526598Y-71797701D01*
X77580127Y-71962445D01*
X77658768Y-72116788D01*
X77760586Y-72256928D01*
X77883072Y-72379414D01*
X78023212Y-72481232D01*
X78177555Y-72559873D01*
X78342299Y-72613402D01*
X78513389Y-72640500D01*
X78513390Y-72640500D01*
X79486610Y-72640500D01*
X79486611Y-72640500D01*
X79657701Y-72613402D01*
X79822445Y-72559873D01*
X79976788Y-72481232D01*
X80116928Y-72379414D01*
X80239414Y-72256928D01*
X80341232Y-72116788D01*
X80419873Y-71962445D01*
X80473402Y-71797701D01*
X80500500Y-71626611D01*
X80500500Y-71453389D01*
X80473402Y-71282299D01*
X80419873Y-71117555D01*
X80341232Y-70963212D01*
X80239414Y-70823072D01*
X80116928Y-70700586D01*
X79976788Y-70598768D01*
X79822445Y-70520127D01*
X79657701Y-70466598D01*
X79657699Y-70466597D01*
X79657698Y-70466597D01*
X79526271Y-70445781D01*
X79486611Y-70439500D01*
X78513389Y-70439500D01*
X78473728Y-70445781D01*
X78342302Y-70466597D01*
X78177552Y-70520128D01*
X78023211Y-70598768D01*
X77943256Y-70656859D01*
X77883072Y-70700586D01*
X77883070Y-70700588D01*
X77883069Y-70700588D01*
X77760588Y-70823069D01*
X77760588Y-70823070D01*
X77760586Y-70823072D01*
X77716859Y-70883256D01*
X77658768Y-70963211D01*
X77580128Y-71117552D01*
X77526597Y-71282302D01*
X77499500Y-71453389D01*
X58900500Y-71453389D01*
X58900500Y-68921153D01*
X66099500Y-68921153D01*
X66099500Y-69078846D01*
X66130261Y-69233489D01*
X66130264Y-69233501D01*
X66190602Y-69379172D01*
X66190609Y-69379185D01*
X66278210Y-69510288D01*
X66278213Y-69510292D01*
X66389707Y-69621786D01*
X66389711Y-69621789D01*
X66520814Y-69709390D01*
X66520827Y-69709397D01*
X66666498Y-69769735D01*
X66666503Y-69769737D01*
X66821153Y-69800499D01*
X66821156Y-69800500D01*
X66821158Y-69800500D01*
X66978844Y-69800500D01*
X66978845Y-69800499D01*
X67133497Y-69769737D01*
X67279179Y-69709394D01*
X67410289Y-69621789D01*
X67521789Y-69510289D01*
X67609394Y-69379179D01*
X67669737Y-69233497D01*
X67700500Y-69078842D01*
X67700500Y-68921158D01*
X67700499Y-68921153D01*
X67700499Y-68921150D01*
X67698955Y-68913389D01*
X77499500Y-68913389D01*
X77499500Y-69086611D01*
X77526598Y-69257701D01*
X77580127Y-69422445D01*
X77658768Y-69576788D01*
X77760586Y-69716928D01*
X77883072Y-69839414D01*
X78023212Y-69941232D01*
X78177555Y-70019873D01*
X78342299Y-70073402D01*
X78513389Y-70100500D01*
X78513390Y-70100500D01*
X79486610Y-70100500D01*
X79486611Y-70100500D01*
X79657701Y-70073402D01*
X79822445Y-70019873D01*
X79976788Y-69941232D01*
X80116928Y-69839414D01*
X80239414Y-69716928D01*
X80341232Y-69576788D01*
X80419873Y-69422445D01*
X80473402Y-69257701D01*
X80500500Y-69086611D01*
X80500500Y-68913389D01*
X80473402Y-68742299D01*
X80419873Y-68577555D01*
X80341232Y-68423212D01*
X80239414Y-68283072D01*
X80116928Y-68160586D01*
X79976788Y-68058768D01*
X79822445Y-67980127D01*
X79657701Y-67926598D01*
X79657699Y-67926597D01*
X79657698Y-67926597D01*
X79526271Y-67905781D01*
X79486611Y-67899500D01*
X78513389Y-67899500D01*
X78473728Y-67905781D01*
X78342302Y-67926597D01*
X78177552Y-67980128D01*
X78023211Y-68058768D01*
X77943256Y-68116859D01*
X77883072Y-68160586D01*
X77883070Y-68160588D01*
X77883069Y-68160588D01*
X77760588Y-68283069D01*
X77760588Y-68283070D01*
X77760586Y-68283072D01*
X77716859Y-68343256D01*
X77658768Y-68423211D01*
X77580128Y-68577552D01*
X77526597Y-68742302D01*
X77522765Y-68766498D01*
X77499500Y-68913389D01*
X67698955Y-68913389D01*
X67669738Y-68766510D01*
X67669737Y-68766503D01*
X67659713Y-68742302D01*
X67609397Y-68620827D01*
X67609390Y-68620814D01*
X67521789Y-68489711D01*
X67521786Y-68489707D01*
X67410292Y-68378213D01*
X67410288Y-68378210D01*
X67279185Y-68290609D01*
X67279172Y-68290602D01*
X67133501Y-68230264D01*
X67133489Y-68230261D01*
X66978845Y-68199500D01*
X66978842Y-68199500D01*
X66821158Y-68199500D01*
X66821155Y-68199500D01*
X66666510Y-68230261D01*
X66666498Y-68230264D01*
X66520827Y-68290602D01*
X66520814Y-68290609D01*
X66389711Y-68378210D01*
X66389707Y-68378213D01*
X66278213Y-68489707D01*
X66278210Y-68489711D01*
X66190609Y-68620814D01*
X66190602Y-68620827D01*
X66130264Y-68766498D01*
X66130261Y-68766510D01*
X66099500Y-68921153D01*
X58900500Y-68921153D01*
X58900500Y-66373389D01*
X77499500Y-66373389D01*
X77499500Y-66546611D01*
X77526598Y-66717701D01*
X77580127Y-66882445D01*
X77658768Y-67036788D01*
X77760586Y-67176928D01*
X77883072Y-67299414D01*
X78023212Y-67401232D01*
X78177555Y-67479873D01*
X78342299Y-67533402D01*
X78513389Y-67560500D01*
X78513390Y-67560500D01*
X79486610Y-67560500D01*
X79486611Y-67560500D01*
X79657701Y-67533402D01*
X79822445Y-67479873D01*
X79976788Y-67401232D01*
X80116928Y-67299414D01*
X80239414Y-67176928D01*
X80341232Y-67036788D01*
X80419873Y-66882445D01*
X80473402Y-66717701D01*
X80500500Y-66546611D01*
X80500500Y-66373389D01*
X80473402Y-66202299D01*
X80419873Y-66037555D01*
X80341232Y-65883212D01*
X80239414Y-65743072D01*
X80116928Y-65620586D01*
X79976788Y-65518768D01*
X79822445Y-65440127D01*
X79657701Y-65386598D01*
X79657699Y-65386597D01*
X79657698Y-65386597D01*
X79526271Y-65365781D01*
X79486611Y-65359500D01*
X78513389Y-65359500D01*
X78473728Y-65365781D01*
X78342302Y-65386597D01*
X78177552Y-65440128D01*
X78023211Y-65518768D01*
X77943256Y-65576859D01*
X77883072Y-65620586D01*
X77883070Y-65620588D01*
X77883069Y-65620588D01*
X77760588Y-65743069D01*
X77760588Y-65743070D01*
X77760586Y-65743072D01*
X77716859Y-65803256D01*
X77658768Y-65883211D01*
X77580128Y-66037552D01*
X77526597Y-66202302D01*
X77499500Y-66373389D01*
X58900500Y-66373389D01*
X58900500Y-63833428D01*
X77500000Y-63833428D01*
X77500000Y-64006571D01*
X77527085Y-64177584D01*
X77580591Y-64342257D01*
X77659195Y-64496524D01*
X77760967Y-64636602D01*
X77845406Y-64721041D01*
X78517037Y-64049409D01*
X78534075Y-64112993D01*
X78599901Y-64227007D01*
X78692993Y-64320099D01*
X78807007Y-64385925D01*
X78870590Y-64402962D01*
X78295788Y-64977763D01*
X78295788Y-64977764D01*
X78342414Y-64992913D01*
X78513429Y-65020000D01*
X79486571Y-65020000D01*
X79657585Y-64992913D01*
X79657588Y-64992913D01*
X79704211Y-64977764D01*
X79129409Y-64402962D01*
X79192993Y-64385925D01*
X79307007Y-64320099D01*
X79400099Y-64227007D01*
X79465925Y-64112993D01*
X79482962Y-64049409D01*
X80154594Y-64721041D01*
X80239032Y-64636602D01*
X80340804Y-64496524D01*
X80419408Y-64342257D01*
X80472914Y-64177584D01*
X80500000Y-64006571D01*
X80500000Y-63833428D01*
X80472914Y-63662415D01*
X80419408Y-63497742D01*
X80340804Y-63343475D01*
X80239032Y-63203397D01*
X80154594Y-63118959D01*
X79482962Y-63790590D01*
X79465925Y-63727007D01*
X79400099Y-63612993D01*
X79307007Y-63519901D01*
X79192993Y-63454075D01*
X79129409Y-63437037D01*
X79704211Y-62862235D01*
X79657582Y-62847085D01*
X79486571Y-62820000D01*
X78513429Y-62820000D01*
X78342423Y-62847084D01*
X78342411Y-62847087D01*
X78295787Y-62862235D01*
X78870590Y-63437037D01*
X78807007Y-63454075D01*
X78692993Y-63519901D01*
X78599901Y-63612993D01*
X78534075Y-63727007D01*
X78517037Y-63790590D01*
X77845406Y-63118959D01*
X77760967Y-63203397D01*
X77659195Y-63343475D01*
X77580591Y-63497742D01*
X77527085Y-63662415D01*
X77500000Y-63833428D01*
X58900500Y-63833428D01*
X58900500Y-42900639D01*
X62497500Y-42900639D01*
X62497500Y-43099360D01*
X62528587Y-43295637D01*
X62589993Y-43484629D01*
X62589994Y-43484632D01*
X62680213Y-43661694D01*
X62797019Y-43822464D01*
X62937536Y-43962981D01*
X63098306Y-44079787D01*
X63216832Y-44140179D01*
X63254780Y-44159515D01*
X63305576Y-44207490D01*
X63322371Y-44275311D01*
X63299833Y-44341446D01*
X63254780Y-44380485D01*
X63098305Y-44460213D01*
X62937533Y-44577021D01*
X62797021Y-44717533D01*
X62680213Y-44878305D01*
X62589994Y-45055367D01*
X62589993Y-45055370D01*
X62528587Y-45244362D01*
X62497500Y-45440639D01*
X62497500Y-45639360D01*
X62528587Y-45835637D01*
X62589993Y-46024629D01*
X62589994Y-46024632D01*
X62680076Y-46201425D01*
X62680213Y-46201694D01*
X62797019Y-46362464D01*
X62937536Y-46502981D01*
X63098306Y-46619787D01*
X63216832Y-46680179D01*
X63254780Y-46699515D01*
X63305576Y-46747490D01*
X63322371Y-46815311D01*
X63299833Y-46881446D01*
X63254780Y-46920485D01*
X63098305Y-47000213D01*
X62937533Y-47117021D01*
X62797021Y-47257533D01*
X62680213Y-47418305D01*
X62589994Y-47595367D01*
X62589993Y-47595370D01*
X62528587Y-47784362D01*
X62497500Y-47980639D01*
X62497500Y-48179360D01*
X62528587Y-48375637D01*
X62589993Y-48564629D01*
X62589994Y-48564632D01*
X62680213Y-48741694D01*
X62797019Y-48902464D01*
X62937536Y-49042981D01*
X63098306Y-49159787D01*
X63216832Y-49220179D01*
X63254780Y-49239515D01*
X63305576Y-49287490D01*
X63322371Y-49355311D01*
X63299833Y-49421446D01*
X63254780Y-49460485D01*
X63098305Y-49540213D01*
X62937533Y-49657021D01*
X62797021Y-49797533D01*
X62680213Y-49958305D01*
X62589994Y-50135367D01*
X62589993Y-50135370D01*
X62528587Y-50324362D01*
X62497500Y-50520639D01*
X62497500Y-50719360D01*
X62528587Y-50915637D01*
X62589993Y-51104629D01*
X62589994Y-51104632D01*
X62680213Y-51281694D01*
X62797019Y-51442464D01*
X62937536Y-51582981D01*
X63098306Y-51699787D01*
X63216832Y-51760179D01*
X63254780Y-51779515D01*
X63305576Y-51827490D01*
X63322371Y-51895311D01*
X63299833Y-51961446D01*
X63254780Y-52000485D01*
X63098305Y-52080213D01*
X62937533Y-52197021D01*
X62797021Y-52337533D01*
X62680213Y-52498305D01*
X62589994Y-52675367D01*
X62589993Y-52675370D01*
X62528587Y-52864362D01*
X62497500Y-53060639D01*
X62497500Y-53259360D01*
X62528587Y-53455637D01*
X62589993Y-53644629D01*
X62589994Y-53644632D01*
X62680213Y-53821694D01*
X62797019Y-53982464D01*
X62937536Y-54122981D01*
X63098306Y-54239787D01*
X63216832Y-54300179D01*
X63254780Y-54319515D01*
X63305576Y-54367490D01*
X63322371Y-54435311D01*
X63299833Y-54501446D01*
X63254780Y-54540485D01*
X63098305Y-54620213D01*
X62937533Y-54737021D01*
X62797021Y-54877533D01*
X62680213Y-55038305D01*
X62589994Y-55215367D01*
X62589993Y-55215370D01*
X62528587Y-55404362D01*
X62497500Y-55600639D01*
X62497500Y-55799360D01*
X62528587Y-55995637D01*
X62589993Y-56184629D01*
X62589994Y-56184632D01*
X62680213Y-56361694D01*
X62797019Y-56522464D01*
X62937536Y-56662981D01*
X63098306Y-56779787D01*
X63216832Y-56840179D01*
X63254780Y-56859515D01*
X63305576Y-56907490D01*
X63322371Y-56975311D01*
X63299833Y-57041446D01*
X63254780Y-57080485D01*
X63098305Y-57160213D01*
X62937533Y-57277021D01*
X62797021Y-57417533D01*
X62680213Y-57578305D01*
X62589994Y-57755367D01*
X62589993Y-57755370D01*
X62528587Y-57944362D01*
X62497500Y-58140639D01*
X62497500Y-58339360D01*
X62528587Y-58535637D01*
X62589993Y-58724629D01*
X62589994Y-58724632D01*
X62680213Y-58901694D01*
X62797019Y-59062464D01*
X62937536Y-59202981D01*
X63098306Y-59319787D01*
X63185149Y-59364035D01*
X63275367Y-59410005D01*
X63275370Y-59410006D01*
X63369866Y-59440709D01*
X63464364Y-59471413D01*
X63660639Y-59502500D01*
X63660640Y-59502500D01*
X63859360Y-59502500D01*
X63859361Y-59502500D01*
X64055636Y-59471413D01*
X64244632Y-59410005D01*
X64421694Y-59319787D01*
X64582464Y-59202981D01*
X64722981Y-59062464D01*
X64839787Y-58901694D01*
X64930005Y-58724632D01*
X64991413Y-58535636D01*
X65022500Y-58339361D01*
X65022500Y-58140639D01*
X64991413Y-57944364D01*
X64930005Y-57755368D01*
X64930005Y-57755367D01*
X64839786Y-57578305D01*
X64722981Y-57417536D01*
X64582464Y-57277019D01*
X64421694Y-57160213D01*
X64265218Y-57080484D01*
X64214423Y-57032510D01*
X64197628Y-56964689D01*
X64220165Y-56898554D01*
X64265218Y-56859515D01*
X64421694Y-56779787D01*
X64582464Y-56662981D01*
X64722981Y-56522464D01*
X64839787Y-56361694D01*
X64930005Y-56184632D01*
X64991413Y-55995636D01*
X65022500Y-55799361D01*
X65022500Y-55600639D01*
X64991413Y-55404364D01*
X64930005Y-55215368D01*
X64930005Y-55215367D01*
X64839786Y-55038305D01*
X64722981Y-54877536D01*
X64582464Y-54737019D01*
X64421694Y-54620213D01*
X64265218Y-54540484D01*
X64214423Y-54492510D01*
X64197628Y-54424689D01*
X64220165Y-54358554D01*
X64265218Y-54319515D01*
X64421694Y-54239787D01*
X64582464Y-54122981D01*
X64722981Y-53982464D01*
X64839787Y-53821694D01*
X64930005Y-53644632D01*
X64991413Y-53455636D01*
X65022500Y-53259361D01*
X65022500Y-53060639D01*
X64991413Y-52864364D01*
X64930005Y-52675368D01*
X64930005Y-52675367D01*
X64839786Y-52498305D01*
X64722981Y-52337536D01*
X64582464Y-52197019D01*
X64421694Y-52080213D01*
X64265218Y-52000484D01*
X64214423Y-51952510D01*
X64197628Y-51884689D01*
X64220165Y-51818554D01*
X64265218Y-51779515D01*
X64421694Y-51699787D01*
X64582464Y-51582981D01*
X64722981Y-51442464D01*
X64839787Y-51281694D01*
X64930005Y-51104632D01*
X64991413Y-50915636D01*
X65022500Y-50719361D01*
X65022500Y-50520639D01*
X64991413Y-50324364D01*
X64930005Y-50135368D01*
X64930005Y-50135367D01*
X64839786Y-49958305D01*
X64722981Y-49797536D01*
X64582464Y-49657019D01*
X64421694Y-49540213D01*
X64265218Y-49460484D01*
X64214423Y-49412510D01*
X64197628Y-49344689D01*
X64220165Y-49278554D01*
X64265218Y-49239515D01*
X64421694Y-49159787D01*
X64582464Y-49042981D01*
X64722981Y-48902464D01*
X64839787Y-48741694D01*
X64930005Y-48564632D01*
X64991413Y-48375636D01*
X65022500Y-48179361D01*
X65022500Y-47980639D01*
X64991413Y-47784364D01*
X64930005Y-47595368D01*
X64930005Y-47595367D01*
X64839786Y-47418305D01*
X64722981Y-47257536D01*
X64582464Y-47117019D01*
X64421694Y-47000213D01*
X64265218Y-46920484D01*
X64214423Y-46872510D01*
X64197628Y-46804689D01*
X64220165Y-46738554D01*
X64265218Y-46699515D01*
X64421694Y-46619787D01*
X64582464Y-46502981D01*
X64722981Y-46362464D01*
X64839787Y-46201694D01*
X64930005Y-46024632D01*
X64991413Y-45835636D01*
X65022500Y-45639361D01*
X65022500Y-45440639D01*
X64991413Y-45244364D01*
X64930005Y-45055368D01*
X64930005Y-45055367D01*
X64884035Y-44965149D01*
X64839787Y-44878306D01*
X64722981Y-44717536D01*
X64582464Y-44577019D01*
X64421694Y-44460213D01*
X64265218Y-44380484D01*
X64214423Y-44332510D01*
X64197628Y-44264689D01*
X64220165Y-44198554D01*
X64265218Y-44159515D01*
X64421694Y-44079787D01*
X64582464Y-43962981D01*
X64722981Y-43822464D01*
X64839787Y-43661694D01*
X64930005Y-43484632D01*
X64991413Y-43295636D01*
X65022500Y-43099361D01*
X65022500Y-42900639D01*
X77737500Y-42900639D01*
X77737500Y-43099360D01*
X77768587Y-43295637D01*
X77829993Y-43484629D01*
X77829994Y-43484632D01*
X77920213Y-43661694D01*
X78037019Y-43822464D01*
X78177536Y-43962981D01*
X78338306Y-44079787D01*
X78495332Y-44159796D01*
X78546127Y-44207769D01*
X78562922Y-44275590D01*
X78540385Y-44341725D01*
X78495332Y-44380764D01*
X78338566Y-44460641D01*
X78301283Y-44487729D01*
X78301282Y-44487730D01*
X78915906Y-45102352D01*
X78828429Y-45125792D01*
X78727070Y-45184311D01*
X78644311Y-45267070D01*
X78585792Y-45368429D01*
X78562352Y-45455905D01*
X77947730Y-44841282D01*
X77947729Y-44841283D01*
X77920643Y-44878564D01*
X77830457Y-45055562D01*
X77769075Y-45244476D01*
X77769075Y-45244479D01*
X77738000Y-45440678D01*
X77738000Y-45639321D01*
X77769075Y-45835520D01*
X77769075Y-45835523D01*
X77830457Y-46024437D01*
X77920641Y-46201432D01*
X77947730Y-46238715D01*
X78562352Y-45624093D01*
X78585792Y-45711571D01*
X78644311Y-45812930D01*
X78727070Y-45895689D01*
X78828429Y-45954208D01*
X78915905Y-45977647D01*
X78301283Y-46592268D01*
X78301283Y-46592269D01*
X78338567Y-46619358D01*
X78495331Y-46699234D01*
X78546127Y-46747209D01*
X78562922Y-46815030D01*
X78540384Y-46881165D01*
X78495331Y-46920204D01*
X78338305Y-47000213D01*
X78177533Y-47117021D01*
X78037021Y-47257533D01*
X77920213Y-47418305D01*
X77829994Y-47595367D01*
X77829993Y-47595370D01*
X77768587Y-47784362D01*
X77737500Y-47980639D01*
X77737500Y-48179360D01*
X77768587Y-48375637D01*
X77829993Y-48564629D01*
X77829994Y-48564632D01*
X77920213Y-48741694D01*
X78037019Y-48902464D01*
X78177536Y-49042981D01*
X78338306Y-49159787D01*
X78456832Y-49220179D01*
X78494780Y-49239515D01*
X78545576Y-49287490D01*
X78562371Y-49355311D01*
X78539833Y-49421446D01*
X78494780Y-49460485D01*
X78338305Y-49540213D01*
X78177533Y-49657021D01*
X78037021Y-49797533D01*
X77920213Y-49958305D01*
X77829994Y-50135367D01*
X77829993Y-50135370D01*
X77768587Y-50324362D01*
X77737500Y-50520639D01*
X77737500Y-50719360D01*
X77768587Y-50915637D01*
X77829993Y-51104629D01*
X77829994Y-51104632D01*
X77920213Y-51281694D01*
X78037019Y-51442464D01*
X78177536Y-51582981D01*
X78338306Y-51699787D01*
X78456832Y-51760179D01*
X78494780Y-51779515D01*
X78545576Y-51827490D01*
X78562371Y-51895311D01*
X78539833Y-51961446D01*
X78494780Y-52000485D01*
X78338305Y-52080213D01*
X78177533Y-52197021D01*
X78037021Y-52337533D01*
X77920213Y-52498305D01*
X77829994Y-52675367D01*
X77829993Y-52675370D01*
X77768587Y-52864362D01*
X77737500Y-53060639D01*
X77737500Y-53259360D01*
X77768587Y-53455637D01*
X77829993Y-53644629D01*
X77829994Y-53644632D01*
X77920213Y-53821694D01*
X78037019Y-53982464D01*
X78177536Y-54122981D01*
X78338306Y-54239787D01*
X78456832Y-54300179D01*
X78494780Y-54319515D01*
X78545576Y-54367490D01*
X78562371Y-54435311D01*
X78539833Y-54501446D01*
X78494780Y-54540485D01*
X78338305Y-54620213D01*
X78177533Y-54737021D01*
X78037021Y-54877533D01*
X77920213Y-55038305D01*
X77829994Y-55215367D01*
X77829993Y-55215370D01*
X77768587Y-55404362D01*
X77737500Y-55600639D01*
X77737500Y-55799360D01*
X77768587Y-55995637D01*
X77829993Y-56184629D01*
X77829994Y-56184632D01*
X77920213Y-56361694D01*
X78037019Y-56522464D01*
X78177536Y-56662981D01*
X78338306Y-56779787D01*
X78456832Y-56840179D01*
X78494780Y-56859515D01*
X78545576Y-56907490D01*
X78562371Y-56975311D01*
X78539833Y-57041446D01*
X78494780Y-57080485D01*
X78338305Y-57160213D01*
X78177533Y-57277021D01*
X78037021Y-57417533D01*
X77920213Y-57578305D01*
X77829994Y-57755367D01*
X77829993Y-57755370D01*
X77768587Y-57944362D01*
X77737500Y-58140639D01*
X77737500Y-58339360D01*
X77768587Y-58535637D01*
X77829993Y-58724629D01*
X77829994Y-58724632D01*
X77920213Y-58901694D01*
X78037019Y-59062464D01*
X78177536Y-59202981D01*
X78338306Y-59319787D01*
X78425149Y-59364035D01*
X78515367Y-59410005D01*
X78515370Y-59410006D01*
X78609866Y-59440709D01*
X78704364Y-59471413D01*
X78900639Y-59502500D01*
X78900640Y-59502500D01*
X79099360Y-59502500D01*
X79099361Y-59502500D01*
X79295636Y-59471413D01*
X79484632Y-59410005D01*
X79661694Y-59319787D01*
X79822464Y-59202981D01*
X79962981Y-59062464D01*
X80079787Y-58901694D01*
X80170005Y-58724632D01*
X80231413Y-58535636D01*
X80262500Y-58339361D01*
X80262500Y-58140639D01*
X80231413Y-57944364D01*
X80170005Y-57755368D01*
X80170005Y-57755367D01*
X80079786Y-57578305D01*
X79962981Y-57417536D01*
X79822464Y-57277019D01*
X79661694Y-57160213D01*
X79505218Y-57080484D01*
X79454423Y-57032510D01*
X79437628Y-56964689D01*
X79460165Y-56898554D01*
X79505218Y-56859515D01*
X79661694Y-56779787D01*
X79822464Y-56662981D01*
X79962981Y-56522464D01*
X80079787Y-56361694D01*
X80170005Y-56184632D01*
X80231413Y-55995636D01*
X80262500Y-55799361D01*
X80262500Y-55600639D01*
X80231413Y-55404364D01*
X80170005Y-55215368D01*
X80170005Y-55215367D01*
X80079786Y-55038305D01*
X79962981Y-54877536D01*
X79822464Y-54737019D01*
X79661694Y-54620213D01*
X79505218Y-54540484D01*
X79454423Y-54492510D01*
X79437628Y-54424689D01*
X79460165Y-54358554D01*
X79505218Y-54319515D01*
X79661694Y-54239787D01*
X79822464Y-54122981D01*
X79962981Y-53982464D01*
X80079787Y-53821694D01*
X80170005Y-53644632D01*
X80231413Y-53455636D01*
X80262500Y-53259361D01*
X80262500Y-53060639D01*
X80231413Y-52864364D01*
X80170005Y-52675368D01*
X80170005Y-52675367D01*
X80079786Y-52498305D01*
X79962981Y-52337536D01*
X79822464Y-52197019D01*
X79661694Y-52080213D01*
X79505218Y-52000484D01*
X79454423Y-51952510D01*
X79437628Y-51884689D01*
X79460165Y-51818554D01*
X79505218Y-51779515D01*
X79661694Y-51699787D01*
X79822464Y-51582981D01*
X79962981Y-51442464D01*
X80079787Y-51281694D01*
X80170005Y-51104632D01*
X80231413Y-50915636D01*
X80262500Y-50719361D01*
X80262500Y-50520639D01*
X80231413Y-50324364D01*
X80170005Y-50135368D01*
X80170005Y-50135367D01*
X80079786Y-49958305D01*
X79962981Y-49797536D01*
X79822464Y-49657019D01*
X79661694Y-49540213D01*
X79505218Y-49460484D01*
X79454423Y-49412510D01*
X79437628Y-49344689D01*
X79460165Y-49278554D01*
X79505218Y-49239515D01*
X79661694Y-49159787D01*
X79822464Y-49042981D01*
X79962981Y-48902464D01*
X80079787Y-48741694D01*
X80170005Y-48564632D01*
X80231413Y-48375636D01*
X80262500Y-48179361D01*
X80262500Y-47980639D01*
X80231413Y-47784364D01*
X80170005Y-47595368D01*
X80170005Y-47595367D01*
X80079786Y-47418305D01*
X79962981Y-47257536D01*
X79822464Y-47117019D01*
X79661694Y-47000213D01*
X79504667Y-46920203D01*
X79453872Y-46872229D01*
X79437077Y-46804408D01*
X79459614Y-46738273D01*
X79504669Y-46699234D01*
X79661422Y-46619364D01*
X79698716Y-46592268D01*
X79084095Y-45977647D01*
X79171571Y-45954208D01*
X79272930Y-45895689D01*
X79355689Y-45812930D01*
X79414208Y-45711571D01*
X79437647Y-45624094D01*
X80052268Y-46238715D01*
X80079362Y-46201425D01*
X80169542Y-46024437D01*
X80230924Y-45835523D01*
X80230924Y-45835520D01*
X80262000Y-45639321D01*
X80262000Y-45440678D01*
X80230924Y-45244479D01*
X80230924Y-45244476D01*
X80169542Y-45055562D01*
X80079358Y-44878567D01*
X80052268Y-44841283D01*
X79437647Y-45455904D01*
X79414208Y-45368429D01*
X79355689Y-45267070D01*
X79272930Y-45184311D01*
X79171571Y-45125792D01*
X79084094Y-45102352D01*
X79698716Y-44487731D01*
X79698715Y-44487730D01*
X79661432Y-44460641D01*
X79504668Y-44380765D01*
X79453872Y-44332790D01*
X79437077Y-44264969D01*
X79459615Y-44198834D01*
X79504667Y-44159796D01*
X79661694Y-44079787D01*
X79822464Y-43962981D01*
X79962981Y-43822464D01*
X80079787Y-43661694D01*
X80170005Y-43484632D01*
X80231413Y-43295636D01*
X80262500Y-43099361D01*
X80262500Y-42900639D01*
X80231413Y-42704364D01*
X80170005Y-42515368D01*
X80170005Y-42515367D01*
X80079786Y-42338305D01*
X79962981Y-42177536D01*
X79822464Y-42037019D01*
X79661694Y-41920213D01*
X79484632Y-41829994D01*
X79484629Y-41829993D01*
X79295637Y-41768587D01*
X79197498Y-41753043D01*
X79099361Y-41737500D01*
X78900639Y-41737500D01*
X78835214Y-41747862D01*
X78704362Y-41768587D01*
X78515370Y-41829993D01*
X78515367Y-41829994D01*
X78338305Y-41920213D01*
X78177533Y-42037021D01*
X78037021Y-42177533D01*
X77920213Y-42338305D01*
X77829994Y-42515367D01*
X77829993Y-42515370D01*
X77768587Y-42704362D01*
X77737500Y-42900639D01*
X65022500Y-42900639D01*
X64991413Y-42704364D01*
X64930005Y-42515368D01*
X64930005Y-42515367D01*
X64839786Y-42338305D01*
X64722981Y-42177536D01*
X64582464Y-42037019D01*
X64421694Y-41920213D01*
X64244632Y-41829994D01*
X64244629Y-41829993D01*
X64055637Y-41768587D01*
X63957498Y-41753043D01*
X63859361Y-41737500D01*
X63660639Y-41737500D01*
X63595214Y-41747862D01*
X63464362Y-41768587D01*
X63275370Y-41829993D01*
X63275367Y-41829994D01*
X63098305Y-41920213D01*
X62937533Y-42037021D01*
X62797021Y-42177533D01*
X62680213Y-42338305D01*
X62589994Y-42515367D01*
X62589993Y-42515370D01*
X62528587Y-42704362D01*
X62497500Y-42900639D01*
X58900500Y-42900639D01*
X58900500Y-39924500D01*
X58920185Y-39857461D01*
X58972989Y-39811706D01*
X59024500Y-39800500D01*
X84575500Y-39800500D01*
X84642539Y-39820185D01*
G37*
%TD.AperFunction*%
%TD*%
M02*
